<mxfile host="65bd71144e">
    <diagram id="Is1e3tYusMroez-41f5H" name="Page-1">
        <mxGraphModel dx="1411" dy="926" grid="1" gridSize="10" guides="1" tooltips="1" connect="1" arrows="1" fold="1" page="1" pageScale="1" pageWidth="1920" pageHeight="1200" math="0" shadow="0">
            <root>
                <mxCell id="0"/>
                <mxCell id="1" parent="0"/>
                <mxCell id="9" style="edgeStyle=orthogonalEdgeStyle;html=1;exitX=0.5;exitY=0;exitDx=0;exitDy=0;entryX=0.5;entryY=0;entryDx=0;entryDy=0;" parent="1" source="2" target="6" edge="1">
                    <mxGeometry relative="1" as="geometry">
                        <mxPoint x="190" y="86.5" as="sourcePoint"/>
                        <mxPoint x="592.5" y="80" as="targetPoint"/>
                        <Array as="points">
                            <mxPoint x="190" y="110"/>
                            <mxPoint x="593" y="110"/>
                        </Array>
                    </mxGeometry>
                </mxCell>
                <mxCell id="10" value="POST auth/conductor/login" style="edgeLabel;html=1;align=center;verticalAlign=middle;resizable=0;points=[];fontSize=14;fontStyle=0" parent="9" vertex="1" connectable="0">
                    <mxGeometry x="0.2415" y="-2" relative="1" as="geometry">
                        <mxPoint x="-60" y="-13" as="offset"/>
                    </mxGeometry>
                </mxCell>
                <mxCell id="2" value="" style="strokeColor=#dddddd;shadow=1;strokeWidth=1;rounded=1;absoluteArcSize=1;arcSize=2;labelPosition=center;verticalLabelPosition=middle;align=center;verticalAlign=bottom;spacingLeft=0;fontColor=#000000;fontSize=12;whiteSpace=wrap;spacingBottom=2;" parent="1" vertex="1">
                    <mxGeometry x="130" y="136.5" width="120" height="90" as="geometry"/>
                </mxCell>
                <mxCell id="3" value="" style="dashed=0;connectable=0;html=1;fillColor=#757575;strokeColor=none;shape=mxgraph.gcp2.phone;part=1;rounded=1;fontSize=17;" parent="2" vertex="1">
                    <mxGeometry x="0.5" width="32" height="50" relative="1" as="geometry">
                        <mxPoint x="-16" y="10" as="offset"/>
                    </mxGeometry>
                </mxCell>
                <mxCell id="4" value="" style="shape=image;verticalLabelPosition=bottom;labelBackgroundColor=default;verticalAlign=top;aspect=fixed;imageAspect=0;image=data:image/png,iVBORw0KGgoAAAANSUhEUgAADsMAAAI9CAYAAADVDufsAAAACXBIWXMAAC4jAAAuIwF4pT92AAAgAElEQVR4nOzd73Ecx7U34NOu9zt4IwBuBIAj4CoCQhFgFQHhCLiKQFAEXEZgKAKBEQiMQGAEl4yg3w8zKyxJ/Fns7mz39DxPlYqW7bJP2SRmus/vnEk55wAAAAAAAAAAAAAAAAAAgBr9q3QBAAAAAAAAAAAAAAAAAADwGMOwAAAAAAAAAAAAAAAAAABUyzAsAAAAAAAAAAAAAAAAAADVMgwLAAAAAAAAAAAAAAAAAEC1DMMCAAAAAAAAAAAAAAAAAFAtw7AAAAAAAAAAAAAAAAAAAFTLMCwAAAAAAAAAAAAAAAAAANUyDAsAAAAAAAAAAAAAAAAAQLUMwwIAAAAAAAAAAAAAAAAAUC3DsAAAAAAAAAAAAAAAAAAAVMswLAAAAAAAAAAAAAAAAAAA1TIMCwAAAAAAAAAAAAAAAABAtQzDAgAAAAAAAAAAAAAAAABQLcOwAAAAAAAAAAAAAAAAAABUyzAsAAAAAAAAAAAAAAAAAADVMgwLAAAAAAAAAAAAAAAAAEC1DMMCAAAAAAAAAAAAAAAAAFAtw7AAAAAAAAAAAAAAAAAAAFTLMCwAAAAAAAAAAAAAAAAAANUyDAsAAAAAAAAAAAAAAAAAQLUMwwIAAAAAAAAAAAAAAAAAUC3DsAAAAAAAAAAAAAAAAAAAVMswLAAAAAAAAAAAAAAAAAAA1TIMCwAAAAAAAAAAAAAAAABAtQzDAgAAAAAAAAAAAAAAAABQLcOwAAAAAAAAAAAAAAAAAABUyzAsAAAAAAAAAAAAAAAAAADVMgwLAAAAAAAAAAAAAAAAAEC1DMMCAAAAAAAAAAAAAAAAAFAtw7AAAABUKaV0m1J6VboOAAAAAAAAAAAAAKAsw7AAAADU6jQibgzEAgAAAAAAAAAAAMC0GYYFAACgZgZiAQAAAAAAAAAAAGDiDMMCAABQOwOxAAAAAAAAAAAAADBhhmEBAAAYAwOxAAAAAAAAAAAAADBRhmEBAAAYCwOxAAAAAAAAAAAAADBBhmEBAAAYEwOxAAAAAAAAAAAAADAxhmEBAAAYGwOxAAAAAAAAAAAAADAhKedcugYAAHaQUjqLiNVA2GztX1r/5yMiTiLieM//9Z8j4m7t779ExO3a39+s/vmc8/o/D/CslNJzB9ZPETHLOX85RD0AAAAAAAAAAIyPjB0AQBsMwwIAVKz/6uHqwu37X08LlraLj/2vt3F/sfcl53xTrCKgShsMw0Z0DYNzzQAAAAAAAAAAgOmRsQMAmA7DsDCQtYNVRLcl6KT/x+v//MpZRBztuYSv8e3WoIj7zUER94ejcDACKC+ldBLds2IW98+N14XKKWn1/Lrr/7qJiLuc812xioBiNhyGjeh+dswMxAIAAAAAwPNkWgAAGCMZu3/I2AEAk2UYFraUUpr1//D7X4doAhzK5+gORf9sEOp/dUAC2KP+GXLW/3US07yQ28bH6J5LtxFxa+gN2veCYdgIA7EAAAAAABARMi0AAIyfjN3WZOwAgKYZhoUnPLJBaMyNgV19iq6ZcBP9NiEbOAGellJaXcjN+l9PixbUnvXLuxuNbmjLC4dhIwzEAgAAAAAwETItP5BpAQAYKRm7wcnYAQDNMAwLPRuEdrLavnkT95uE7grWA1BM/zyZxf3l3FSbzaV8je55dBPdxZ2BOBixLYZhIwzEAgAAAADQGJmWnci0AABURsauOBk7AGC0DMMySf0GoVncNwpsENq/r9FvEIr7TUJfilYEMID+mXIe3XNF07k+Lu5gxLYcho0wEAsAAAAAwEjJtByETAsAwAHJ2FVPxg4AGA3DsEzC2gahWThElfQ5vj0s3ZUsBmAbKaWT6J4nq8s5W+nG5WtEXEf3LLrW1Ia67TAMG2EgFgAAAACAEZBpqYZMCwDAnsjYjZ6MHQBQLcOwNMkGodHQSABGoX+uzKN7rti83JZPEbEMG+2gSjsOw0YYiAUAAAAAoDIyLaMh0wIA8AIydk2TsQMAqmEYlibYINSMT3HfRLguXAswcSml87h/rhyXrYYD+RzdRrvrnPNN4VqA2MswbISBWAAAAAAACpJpaYZMCwDAd2TsJknGDgAoyjAso7W2KfM8bBBq1R/RHZhs2AQOYu1y7jw0oafua9xf2mlmQyF7GoaNMBALDCSlNCtdQwmamgAAAABPk2mZBJkWAGCSZOxYI2MHABycYVhGpW8WzKM7QNkgNC2fImIZ3YHprmwpQEtczrGBr9E9g5YG6eCw9jgMG9H9Wb7MOS/3+J8JTNyef06NRs45la5hylJKi4h4V7oOmvPxu7+/6/9auel//eJcBDwkpXQTEa9L11HATxaFQJ38XAJKkGmZNJmWCkz1vhaYDO/6FCVjxwZk7GAAE77nZHef49uef8R93z/i20zAnfsMxsQwLNXTLOABmgjATjxb2MHnuL+0uytbCrRvoNDCLwZigX2ZarjKMGxZhmGpyKeI+BL3TbIvEXEbBmZhkiYcxhBEhUr5uQQcir4jD5BpKWSq97XAZHjX5+C867IDGTvYkwnfc1LOapH23fd/+ZlOLQzDUqWU0kl0h6fLcIDiaZoIwEZSSq+iu5ybR8Rp0WJoxce4fwZ9KVwLNGnA0IKBWGAvphquMgxblmFYRmS1afZ27ddb5ydo04TDGIKoUCk/l4AhybTwAjItBzTV+1pgMrzrcxAydgxAxg52MOF7Tuq1Wpp9E/dDsjcF62GCDMNSjf4AdR7dAcoDm204MAE/SCnNonu2XJSthIZ9jYjriLjy9SPYr4FDCwZigZ1NNVxlGLYsw7A04Gv0g7H9X5pj0IAJhzEEUaFSfi4B+ybTwh7ItAxsqve1wGR412dQMnYcgIwdbGHC95yMz2pZ9k3cL8q+K1gPDTMMS3EppbPotmWeR8RR4XJow+rAtHQBBNO0tqHONmYO7VNEXIUmNuzFAUILBmKBnUw1XGUYtizDsDTsU3RNsZvoGmOCEDAiEw5jCKJCpfxcAvZFpoUByLQMZKr3tcBkeNdn72TsKEjGDjY04XtO2rBalH2z+tXPffbBMCzFpJTm0R2gTguXQts+R3dgWnpwQvs0o6nI1+g2O1/ZbATbO1BowUAssLWphqsMw5ZlGJaJ+RhdY+wmugFZ93tQqQmHMQRRoVJ+LgG7kmnhQGRa9miq97XAZHjXZ29k7KiIjB08Y8L3nLTrc9xnAG78/Gcb/ypdANOSUjpJKV2llL5ExPvQNGB4xxHxW0T8X0pp2R/igcaklOb9ge+viLgIl3SUdxQRbyPi75TSTUppVrge4HHv+1ATAAD1eR3d8Pef0d3v3fb3y+f9xnoAAIC9kWmhAJkWAOBgZOyokIwdwPQcR/ce8j66n/93/Z2IDAAbMwzLQaSUZimlZUT8Hd1LqwMUJVxExF8OTNCGlNKrlNJlSukuuhdim4+o1euI+LM/sM1LFwM8yEAsAMA4nEZ3v/zfuB+OXbjrAwAAdiHTQiVkWgCAvZOxY0Rk7ACmaTUc+30GwMIwHmUYlkH10/k30W3uvyhcDqw4MMGI9Rd0i4i4i25L7nHRgmBzx9EN3H3pD2o2GEFdDMQCAIzPafRfju3PWtf9ZnvnLQAA4FkyLVRKpgUA2JmMHSMmYwcwbasMwF/rX40tXRR1MQzLIPrA0V100/m2CFGr1YFJAwFGIKV00m9k/r/oXnJtZGasjqL7PXznwg6qYyAWAGC8jiLiTXSb7VcbYy9TSidFqwIAAKoj08JIyLQAAC8mY0dDZOwA+Oersf2SBIOxRIRhWPZsrWHwPmwRYjw0EKBiaxd0f4eNzLRl/cJuKaAN1XifUroqXQQAADs7jW7b/d/9vd9VSumsdFEAAEA5Mi2MlEwLAPAsGTsaJmMHQET3PPh+MHZWuCYKMQzLXmgY0AgNBKiICzomZHVA+7s/nNliB+W97Z9BAAC04Tgi3kbEXwZjAQBgemRaaIRMCwDwAxk7JkTGDoCV1TPhz/6eZGFZwrQYhmUnGgY0SgMBCnJBx8RdRLfFbuHCDoq7MBALANCk9cHY25TSpcYYAAC0SaaFRsm0AAAydkydjB0AK8fRfUH875TSjbuSaTAMy1Y0DJiIVQPh1ifUYXgppVcppUW4oIOj6A5mLuygPAOxAABtO42I36JrjF1rjAEAQBtkWpgImRYAmCAZO/iHjB0A33sd3V3JF1+LbZthWF4kpTTTMGCCTqP7hPqNBgIMo7+gu4vucgLorF/YzQvXAlNmIBYAYBrexH1jbJlSOitdEAAA8DIyLUyUTAsATISMHTxIxg6A762eDX/3vf9Z4XrYM8OwbKRvGNxExJ+hYcB0vY6ugbC0JQL2Y20r87voXjyBHx1FF8i+cyCDYgzEAgBMx1F02/T/6r+uM7dNHAAA6ibTAhEh0wIAzZKxg43I2AHwkIu4XyJ2XroY9sMwLE9KKZ30oe8/o7s0BboH4t8ppStBONjOWkPaVmbY3HHcH8hOCtcCU2QgFgBgek6ju7u46+8CT8qWAwAArJNpgQfJtABAI2TsYCsydgA85HVE/LdfmjAvXQy7MQzLg1JKr1JKi4j4O7pLUuBHb6MLwl2WLgTGon++LENDGnbxOjSwoRQDsQAA03QU3V3g3314Yla4HgAAmDSZFtiITAsAjJSMHeyFjB0ADzmO+y+Jz0sXw3YMw/KD/g/0XUS8K1sJjMJRRPzWPwxnpYuBmvVNtrvQkIZ9WTWw56ULgYkxEAsAMG2vo9so7jwGAAAFyLTAi8i0AMDIyNjB3snYAfAQQ7EjZhiWf6SUzlJKNxHxPrrLUGBzx9GF4K5TSieFa4GqpJRmKaXbiPgtPF9g346iO4zdpJTOShcDE2IgFgCAVXPsS0ppYas4AAAMS6YFdiLTAgCVk7GDQcnYAfCY9aHYWeli2IxhWCKl9CqldBURf0W31R7Y3puIuE0pLUoXAqWtPV/+jIjT0vVA415HxF8C2HBQFymlW3/mAAAm7yi6L1LdOZMBAMD+ybTAXsm0AEBlZOzgoGTsAHjMapGYxQkjYBh24lJK5xFxFxFvC5cCLTmKiHe2QzBlni9QzLvoGtiz0oXARJxGxI0LcgAA4n4o9v9SSktf2gEAgN3pOcIgZFoAoBLed6EYGTsAHrNanLCUC62XYdiJSimdpJRuIuK/0V1yAvu32g7hQchk9JvqrsPzBUry/IHDMhALAMD3LiLib0OxAACwHZkWOAg9RQAoRMYOquB9GICnXETEXUppUboQfmQYdoJSSpcRcRvdxDowvNWDcF66EBhS/3y5i4g3hUsBOqvnz3npQmACDMQCAPCQi+g2iy+8KwIAwGZkWuDgZFoA4IBk7KA6MnYAPOYoIt6llHxNvDKGYSckpXTWb878LWwSgkM7ioj3KaUbX4OgNWub6jxfoD5HEfHflNK14DUMzkAsAAAPOYqId9FvjfW+CAAAD5NpgaJkWgBgYDJ2UDUZOwCechrd18SvPCfqYBh2IvpPM/8VNmdCaa+j+xrEZelCYB/6bVh3YVMd1O5NdM+fWelCoHEGYgEAeMz6UOy8cC0AAFAVmRaohkwLAAxAxg5GQ8YOgKe8DV8Tr4Jh2MallE76zZnvStcC/OMoIn6zUZMxW9tU99+wqQ7G4jj6zUSlC4HGGYgFAOApq6/t3AlTAAAwdTItUCWZFgDYExk7GCUZOwCe4mviFTAM27B+S99t2JwJtbJRk1Hqg5q3YVMdjNXblNJtSumsdCHQMAOxAAA8ZxWmEC4GAGCSZFqgejItALADGTsYPRk7AJ7yJrqvxM5KFzJFhmEbtLZJ6LewSQhqZ6Mmo5JSWkTEn9EFNoHxWg3qaV7DcAzEAgCwidcR8XdK6cq7IwAAUyDTAqMi0wIAW5Cxg2bI2AHwlKPovyau139YhmEb00+V34VNQjA2q42a56ULgYf0TembiHhXuhZgb1bN62uHMBiMgVgAADb1NrrNsfPShQAAwFBkWmC0ZFoAYAMydtAkGTsAnvM2upyor4kfiGHYhqSUrqLbJGRzJozTUUT8N6W0dGCiJmtN6ddlKwEG8ia65rVDGAzjNLqhBn/GAAB4zlFEvO+/uOP9EQCApsi0wOjJtADAE2TsoHkydgA8ZfXhlHnpQqbAMGwDUkonKaXb6KbJgfG7CAcmKpFSWoSmNEzBcUT85RAGgzkKm78AANjc6+jOaIvShQAAwK5kWqA5Mi0A8B0ZO5gMGTsAnrJafm2R2MAMw45cSuk8Im6jmyIH2rE6MF2WLoRpSim9SindRMS70rUAB+UQBsMxEAsAwEu9Synd9V8UAACA0ZFpgWbJtABAyNjBhMnYAfCUi5AVHZRh2BFLKV1FxH/DJiFo2W8ppWsHJg6pf/G6je4rJMD0rA5hJ4XrgBYZiAUA4KWOI+LPlNKVO0IAAMZEpgUmQaYFgMmSsYPJk7ED4Cmn0T0nzksX0iLDsCO0tknobelagIN4E4YmOJCU0jwibqILWgLTdRoRt74+BIMwEAsAwDbehnMaAAAjINMCkyPTAsDkyNgBPRk7AJ5yFBH/TSktShfSGsOwI9NfHN6FTUIwNavNEPPShdCufjvz+7CdGegcRff1ocvShUCDDMQCALANX4kFAKBqMi0wWTItAEyGjB3wHRk7AJ7zLqW01OPfH8OwI9JfGP4VDlAwVUcR8b6/TIG96bczX4ftzMDDfkspLUsXAQ0yEAsAwLbehndJAAAqI9MCkyfTAkDTZOyAZ8jYAfCUi+h6/AZi98Aw7Ej0L0fvS9cBVOFtSsmDkL1IKZ1ExE1EvClaCFC7i5TSrWcP7J2BWAAAtnUaEX+llBalCwEAAJkWYI1MCwDNkbEDNiRjB8BTTiPiVl50d4ZhK9dvErqJbgocYOV1GJxgR/3vn9voXqwAnnManj0wBAOxAADs4p2QMQAApci0AI+QaQGgGTJ2wAvJ2AHwlOPwnNiZYdiK9b+5b6K7IAT43urANCtdCOOTUppH94w5KlsJMDIu62AYBmIBANjF64i4Symdly4EAIDpkGkBniHTAsDoydgBW5KxA+Apq7yo/v6WDMNWaq1pYJMQ8JSjiPizv3SBjfS/X96HSzpgO0cR8ZdnD+ydP1sAAOziKCL+m1K6Kl0IAADtk2kBNiTTAsBoydgBO5IDAuApq/7+vHQhY2QYtkL9b+a/wgEK2Nx7QTc2kVJaRndJB7Cr9w5hMAh/tgAA2MXblNJtSulV6UIAAGiTTAuwBZkWAEZFxg7YIzkgAJ7iObEFw7CVSSldhgMUsJ23/SUMPKj//XFRug6gKe89e2AQLjgAANjFaUTcpZRmpQsBAKAtMi3ADmRaABgFGTtgADJ2ADxFXvSFDMNWpH/J+a10HcCoXfjyA99LKb1KKd2ESzpgGBcu62AQLjgAANjFUUT82Q8rAADAzmRagD2QaQGgWjJ2wMBk7AB4irzoCxiGrYRNQsAenUbEjeYBEd0lXUTcRMTrwqUAbbtIKS09e2DvXHAAALCr35zXAADYlUwLsEcyLQBUR8YOOBAZOwCeIi+6IcOwhfWbhG5D0wDYr1Xz4Kx0IZSzdkl3WrgUYBouQuMahuCCAwCAXTmvAQCwFZkWYCAyLQBUQ8YOODA9GwCe8j6ldF66iNoZhi3IAQoYmObBhHnGAIXY5AzDMBALAMCuTiPizl0hAACb0m8EBibTAkBx3nmBQmTsAHjK0n3J0wzDFuIABRzIUWgeTE7///dteMYAZbisg2EYiAUAYFeru8J56UIAAKibTAtwIDItABQjYwcUJmMHwGPclzzDMGwBmgbAgXkYTkj///NNRBwXLgWYNpd1MAwDsQAA7OoouvfKy9KFAABQJ5kW4MBkWgA4OBk7oBIydgA85igirj0jHmYY9sBsEgIK0TyYgLVLuqPCpQBEuKyDoRiIBQBgH35LKS1LFwEAQF1kWoBCZFoAOBgZO6AyMnYAPOY4uvdWvmMY9oBsEgIK0zxomEs6oFIu62AY7w0uAACwBxcpJdtkAQCICJkWoDiZFgAGJ2MHVErGDoDHnMqK/uj/lS5gKhyggEocRcR1RJwUroM98ozhEV+j29wdEXHX/7VyGxFfdvzPfxUR643Is/6fi4h4veN/Nm1ZXdbNcs67/r4D7l2klCLnPC9dCAAAo/YmnNkAACZPvxGohEwLAIPxzssjZOyohYwdAI+5SCnd5pyvShdSC8OwB+AABVTka0Scly6C/fGMmbyP0V243cb9ZdxdzvnuQP/910/9i/3vz9WF3urXk+gubpgWl3UwDAOxAADsgzMbAMCE6TcCFZFpAWAQ3nknT8aOsdCvAeAxv/UDsTelC6mBYdiBOUDxiI/9r6vD1YotQgzpa0TMcs63z/47GYWU0quIWIZnzBR8iu4S7ja694pDXsZtbe3nzc33/1pK6SS6S7tZdM+qs4g4PkhhlOKyDoZhIBYAgH04jYi7/szm/hAAYCJkWniETAslyLQAMAgZu0mRsaMFMnYAPOY6pXTi+WAYdlCaBpM2li1CJ/1fq7/XWGiXpkFj+ku6m7D9q0Vfo/v/9jYiblrd4NI/E+9i7RKv/319Ft3l3az/x96j2uKyDoZhIBYAgH04ivszm3tEAIDGybRMmkwLtZFpAWAQMnZNk7GTsWuZjB0ADzmK7l5tVriO4gzDDkTTYDI+R3eQGusWoR/YItQkTYPGuKRrzupi7joibqf8Z7W/uLmJby/v1i/uZuHdqgWn4TAGQzAQCwDAPhiIBQCYAJmWyZBpYQxkWgAYhIxdc2TsejJ2kyFjB8BDXqeUFjnnRelCSjIMOwBNg2Z9jfsGwU10h6nmtq1ssEVo9avf3+OgadAYl3TN+BjdRcWNP59P6//3uY2Iq4h/3rPO+7/8ORiv1ymlpaE92DsDsQAA7IOBWACAhsm0NEumRaZljGRaABiEjF0zZOw2JGPXLBk7AB7yLqV0k3O+KV1IKYZh96w/QF2HS9UWrLYI3cTED1K2CI2WpkGbrsLlxBh9jf5iLiKuW2w8H8raxd2if+9aXdq9KVoY2zC0B8PwZwsAgH0wEAsA0CCZlqbItPRkWkZLpgWAIcnYjZOM3Z7I2DVFDgiAhyxTSmdTfV8yDLtHa5uEjguXwvY+xf0WoZvCtVTtkS1Cs+gOS6/LVUZP06BBKaVlRFyUroONrS7nrnPO16WLaVH/Ar+M7oXepd04XaSU7nLOi9KFQGNchAMAsA8GYgEAGiLT0gSZlg3JtFRPpgWAwcjYjY6M3cBk7JogYwfA944jYhERl4XrKCLlnEvX0IS1poFNQuPzR9w3C+4K19KEtcPSrP/Vhs3D0jRoUEppERHvStfBRv6I7nJuWbqQqVp7Ds1DM3ssfvFnhoeklBxYd/PBQCwMa6o/p3LOqXQNU+Z8CBTgvpFnpZRuYpr3MD8ZRIE6+bkE35JpGTWZlj2TaSlusDPmVO9rgcnwrr8BPZRRkbErTMZulGTsJmjC95zAZiZ5TjAMuycppdvQNBiTVbPgeqqfhT6klNJqi5AmwvAE0xqUUppHxPvSdfCkz9FtFV56rtQlpXQS3YXdPGw6r93PNjzyPaGFvfgU3fuh5xMMYKo/pwzDliXIARTi3pEnTTiMMckGM4yBn0vwLZmW0ZFpOSCZloMa9Gw51ftaYDK86z9Dxm4UZOwqJWM3KjJ2EzPhe05gM58j4mxq71b/Kl1AC1JKy9A0GINPEfFLRPxPzvk85+wwdSA55+uc8zzn/Coifo6ID6VrapRAWoP6xptLunp9iO6y+STnfOW5Up+c813OeZFzPonuGfRH4ZJ43DKldFa6CGjQaUTc9Bs9AQBgW0fRvVc6twEAjIxMy2jItBQi03IwMi0ADEbGrnoydpWTsRsVGTsA1h1HxKJ0EYfmy7A76psGF6Xr4FGfI2IZ3Rahu7KlsK4P459HxGVovO2DpkGD+gPrTdg+W5vVs8XF3EitbbK7DH++avM1ug1Fd6ULoQ42eO+VL8TCAKb6c8qXYcua8Jdhf805L0oXMRb93dsmjfCT/q+H/v4snJn40SQ3y/K8CW8m91UWqJSfS9CRaameTEulZFr2TqaFQXjnAyJk7ComYzdyMnZVk7GbkKm+88ql/OgFGYDv/30ncZ8BOAlfAG/VpM6JhmF3kFK6jIjfStfBg/6IrllwXboQntdfRlxG10hwYNrOvzUN2tK/sN6FPxM1+RTd5dyydCHsT0ppHt1GHIe7ehjY4x9THTIbkD9fsGdT/Tml6VCWYVgO7bum2mzt11chEDxV3iv5wVTDGDGxxjKMiZ9LINNSOZmWEZFp2QuZFgbhnQ+QsauSjF2DZOyqpFczEVN955VLGZYMQJM+5Zwn8+Xw/1e6gLHqX+o0DeryNe63CN2VLYWX6C+852ubNRfhwPQSv2gatKX/s3ATLulq8TEiFhoJbeovXpcppdVm58ldGlToNLp3uvPCdUCLTiPiJqXkMhwA2Fj/3nDT/+3N9/96vxn8JLrm2El0TTMNsrZ5rwQAqJxMS5VkWkZKpmVnMi0ADELGrjoydg2TsauSjB2wtQ0yAGdx3/ufhS/KjsFpSmk+lYUk/ypdwBj1f7CvStfBPz5HxC8RcZJzvtQ0GK+c85ec8zLnfBIRP0V3OOZpv0zlgTUxVyE0WoMP0W2onbmka1/O+TrnPAvPn1q8SSl534ZhrAYXXpUuBABoQ875Lud8k3Ne5JznOeezflPvTxHxn+jO15/KVskATkOfBACgSjIt1ZFpaYRMy1ZkWgAYkoxdHWTsJkTGrjoydsAgcs63/c/8Rf+MP4mI/4mInyPi1/AMqNXVVHKhhmFfqN9yfxM2CdXgU3SXpif9ZbMN9A3pA3SziPjf6A7L/EjToEEppcuIuChdx8R9iIj/7QO8NtROzNrzx4VdeW/7zfXA/hmIBQAG15+vrlYDstE1x34KzbGWXKSUlqWLAADgnkxLVWRaGibTshGZFgAGI2NXBRm7CZOxq23CuGAAACAASURBVIqMHXAQ/ZKw9QHZ1YJs/f96HEX3BffmGYZ9gT4ofB2aBqV9jIif+i8MLEsXw7D6L0vMQwPhe5oGDUopnUfEb6XrmLCPcX9Bd1e6GMpyYVeNq36DPbB/BmIBgIPqm2M33zXHfo6I38OXY8fsog+eAQBQmExLNWRaJkSm5VEyLQAMRsauOBk7/iFjVw0ZO6CI9f5/3H859kNEfC5a2LS96xcmNs0w7MtcRRcYpoxVw2CWc74pXQyHpYHwDU2DBvUH0WXpOiZq/flyV7oY6vLdhZ1w9uEdRcS1YT0YjIFYAKCofnPsZf/l2P+NiF8i4o/CZfFyv9k6DgBQBZmWsmRaJkym5RsyLQAMRsauKBk7HiVjV5yMHVDc2pdj5znnk4j4d3SLsQ3GHt6idAFDMwy7oZTSIiIuStcxURoG/EMDQdOgRf0BdBm2NB/a54j42fOFTfQXdmfRBbMdzA7rOLpN9sAwDMQCAFXo7/2WOefzta/GfoiIr4VLYzO2jgMAFCTTUpRMC/+QaZFpAWA4MnbFyNixMRm7omTsgKrknG/7xdgncT8Yq/d/GBetfx3WMOwGUkrnEfGudB0T9Dm6S1IHKH7wXQNhKl+L0DRoly3Nh/U1Iv6Tcz7JOTv88yL9z+GziPg1HMoO6XVK6ap0EdCw04i4M7wAANRkbWvsq7gfjKVeR2HJCgBAETItxci08CiZFgAYhIzdYcnYsTUZu2Jk7IAqrQ3Grnr/U7krKWlRuoAhGYZ9Rj8NvSxbxeSsH6CWpYuhbn0D4Twifopu42qrNA0alVK6DFuaD+n3iDjJOTvws7Wc85ec8yK6CzsHssN52wd6gGGshhcMxAIA1VkNxkbE/0S3TfxT2Yp4hIFYAIADk2kpQqaFjcm0AMB+yNgdnIwdO5OxK0bGDqha3/s/j26BmKUJw2n667CGYZ/QBzauowtwcBgOUGwl53yTc55FF4b7XLicfdM0aFQ/bPJb6Tom4lNE/LvfKvOldDG04bvmdWvPnlotWz6cQQUMxAIAVeuDE8uc81l0zbHfQ3OsNqfRfaEBAICBybQUIdPCVmRaAGB7MnYHJWPH3snYFSFjB1Svfz4s+q/FtnhfUoNF6QKGYhj2aVfRBTcY3sdwgGIP+gv2s+i2RLRA06BRa81phrXazHyWc74tXQxt6pvXJ9HOs6dmR+FnJwzNQCwAMAp9c+xyrTnW8hd2xuai/1IDAADDkmk5HJkW9kKmBQBeRsbuYGTsGJyM3UHJ2AGj0i/EPomIn0Pff5+a/TqsYdhHpJTmEXFRuo4J+BrdxejMAYp96b8QsYju6xBjfhhqGrRtGRHHpYto3B8RcWYzM4fSyLNnDE5TSv5cw7AMxAIAo9I3x2YR8e+I+FC4HDq/pZRmpYsAAGiVTMvByLSwdzItAPAiy5CxG5qMHQfVyLvwGMjYAaOTc77u+/4/RffFena3KF3AEAzDPqAP/Hr4D+/3iDhxMcpQ+q9DzKL7MsTXwuW8lKZBw/rm9JvSdTTsa0T8nHM+zznflS6GaVl79vwnxvfsGZO3QtUwOAOxAMDo5Jxvc87z6EIUv4ZzWWnXrW6aBQAoSablYGRaGJRMCwA8TcZucDJ2FCNjdzAydsAo9V8TP4vuzuRz6XpG7iKl9Kp0EftmGPZhy+iCvwzjc0T8lHO+zDl/KV0M7esv4E+i22A1BpoGDdOcHtwf0TWlr0sXwrT12xLPwga7IV23eECDyhiIBQBGqQ9RLKK7EzQUW85RRLijAQDYv2XItAxJpoWDkmkBgB/J2A1Oxo4qyNgdhIwdMFr9/cNZ6Pnv6rJ0AftmGPY7/efgT0vX0bDfI+Is53xTuhCmJef8Jed8HhE/R90PQk2D9i1Dc3oIX6P783OuKU0tvttgx/4JVcNhGIgFAEarvxNchKHYkk77vgsAAHsg0zI4mRaKkGkBgB8sQ8ZuCDJ2VEfGbnAydsCorfX8LU/Y3rx0AftmGHZN/xn4t6XraJTNmVSh32R1EnVu1NQ0aFxKaRGa00P4GF1Telm6EHhIv8Hu3xHxqXQtDXqdUmpuYxFUyEAsADBqhmKLe5tSOi9dBADA2Mm0DEqmhSrItACAjN2AZOyomozdoGTsgNFbW55Q+yKxGh2nlOali9gnw7C9/vPvtl4M40PYnElF1jZq/hL1PAg1DRrXN6ffla6jQb/mnGc557vShcBTcs63ETGLbqM4+7UwoAcHYSAWABg9Q7FFLVNKJ6WLAAAYK5mWQcm0UBWZFgCmTMZuMDJ2jIKM3aBk7IAmVL5IrGbz0gXsk2HYe8vowr3sz9eI+DnnPLc5kxr1F/VnUX6LkKZB4/rm9LJ0HY35Gt125kXpQmBTfeP6Mmwl2rej8DMWDuUoIv5qbUsYADA9a0OxZ9EF3xneURjeAADYxTJkWvZNpoWqybQAMDUydoOQsWN0ZOwGI2MHNGNtkdh/StcyIq9bWl5tGDYiUkrnEfGmdB2N+RTd5kzhFqrWfy79LMptEdI0mIZFRByXLqIhHyPixHZmxqp/P6qhcd2S05TSonQRMCHvDcQCAC3o7wbnEfFTdPcNDMvZDQBgCzItg5BpYRRkWgCYmEXI2O2TjB2jJmM3CH0aoCk556uI+HdYnrCpy9IF7Mvkh2FtEhrE7znns5zzXelCYFOFtghpGkxASmkWEW9L19GQ33POM9uZGbv+PWkWvkC0T+9SSmeli4AJMRALADQj53yTc55FxC+hUTa0d/19GQAAG5BpGYRMC6Mj0wJA62Ts9k7GjibI2A1Cxg5oSs75NiJOwvKETZyXLmBfJj8MG13T4Kh0EY34Gt1FaDPT4kzLgbcIaRpMgOb0Xn2NiJ89Y2hJzvlL/wWiX0rX0pBl6QJgYgzEAgBN6e/rTqLcF3emYtnfmwEA8LxlyLTsi0wLoybTAkCrZOz2SsaO5sjYDWJZugCAfeoXgMwi4mPhUmp3nFJqYiB20sOw/f+Jb0rX0YhPETFzEcrY5Zzvcs5nMewWIU2D6VhExHHpIhrwObpnzHXpQmAI/TPh3+HrQ/twmlJalC4CJsZALADQlD5UcRndOc322GEch6AFAMCzZFr2SqaFJsi0ANCoRcjY7YOMHU2TsdsrGTugOX2ffxa+Jv4cw7BjZpPQXn2M7gB1W7oQ2JcBtwj9R9NgGlJKs4h4W7qOBnyKiDPPGFrX/x4/1Cbn1l2mlE5KFwETYyAWAGhOzvm2Dxj/WrqWRr1pZessAMAQZFr2SqaF5si0ANAKGbu9kbFjEmTs9krGDmhSf2diIPZxTfToJzsMGxFXEXFUuogG/J5znvWflYamDLBF6EPO+WpP/1nUz//Xu/uQcz7zjGEqcs53ETGLiD/KVjJ6RyEgBCUYiAUAmpRzXoSvxA5l2Q95AADwI5mW/ZBpoVkyLQA0wrNndzJ2TIqM3d7I2AHNMhD7pKMWllZPchi23yR0UbqOBvySc74sXQQMaY9bhD70D1UmIKW0iIjT0nWM3K/+zDBFOecvOefzcAjb1WtDeVCEgVgAoEm+EjsYQQsAgAfItOyNTAvNk2kBYMxk7PZCxo5JkrHbGxk7oFn9O5KF1w8zDDtSy9IFjNzXiPi53zAIzVvbIvRxy/8ITYMJSSmdRISm6m5+6b+6ApPVPzf+U7qOkbvyhSEowkAsANCs/r7ip4j4XLiUlrxpYfMsAMCeLUsXMHIyLUyKTAsAYyRjtxcydkyejN1eyNgBLZuFgdiHjL4/P7lh2H6T0HHpOkbsa0TMcs7XpQuBQ+q3CM3i5VuENA2mZxndVy14OY1pWJNzvoqIX0rXMWJHEbEoXQRMlIFYAKBZOeeb6L6680fhUlqyFLQAAOjItOxMpoVJkmkBYISWIWO3LRk7WCNjtzMZO6BZOecv0Q1+fi1dS2WOxr6welLDsP0moXeFyxizT9E1DW5LFwKl9E2AXzf8t2saTEz/UvC6dB0jpTEND+gvrl3Wbe9tSumsdBEwUe9TSsvSRQAADKEPGZ+HbeP7chQRV6WLAAAoTaZlZzItTJ5MCwBjIGO3Exk7eICM3c5k7IBm5ZzvooEvoQ5gVrqAXUxqGDaEKXahaQC9nPMinj80aRpMk+fMdlaXdJ4x8ID+su7fYTPRtvxshnIuDMQCAC3rt43/OyI+l66lARcppVnpIgAACnOfvT2ZFujJtAAwAt57tyNjB0+QsduZn81As3LON7H58rCpGPWA8GSGYfsQxZvSdYzUqmnwpXQhUItntghpGkxQSmkREcel6xghl3Swgf7PyCxc1m3jdUppXroImDADsQBA0/rz2llEfCxdSwOWpQsAAChFpmUnMi3wHZkWAGolY7c1GTvYgIzdTmTsgKb1y8P09O8dp5ROShexrckMw4YQxbY0DeARffPgp/j20KRpMEH9i8Bl4TLGyCUdvIDLup1cpZRelS4CJsxALADQtJzzl5zzLCJ+L13LyB33YTgAgClali5gpGRa4BEyLQDURsZuazJ28AIydjuRsQNaNw/Ph3Wj/TrsJIZhU0qXYZPQNjQN4Bn9J9Nn0T0UNQ2maxERR6WLGBmXdLAFl3VbOwoNFSjNQCwA0Lyc82U8/uUdNnM55g20AADbkGnZmkwLPEOmBYDKLELG7qVk7GALMnZbk7EDmpZzvovunZTOrHQB22p+GLbfTrEoXccIaRrAhvpD05mmwTSllGYRcVG6jpFxSQc7cFm3tXcC1VCcgVgAoHn9l3f+Hc5s2zqKiKvSRQAAHIpMy9ZkWmBDMi0A1EDGbisydrADGbutydgBTcs5X0V3t4hh2Kpdhk1CL6VpAC/Ub4lgmhalCxgZl3SwBy7rtrYoXQBgIBYAaN/ame1z4VLG6k0fjgMAmAKZlpeTaYEXkmkBoAKL0gWMjIwd7IGM3dYWpQsAGJivYHeOUkpnpYvYRtPDsP1WineFyxgbTQOADfWhvNel6xgRl3SwR2uXdWzuQqAaqmAgFgBo3urLO2Gr7LaWpQsAABiaTMtWZFoAAEZGxu7FZOxgj2TstiJjBzQt53wTER9K11GJWekCttH0MGzYSvFSmgYAL7MsXcCIuKSDAfR/pn4pXcfILEoXAESEgVgAYAL6u/ZZGIjdxnFKyUZeAKB1i9IFjIxMCwDAOC1LFzAiMnYwABm7rSxKFwAwsEXpAioxK13ANpodhu03aF4ULmNMVgcoTQOADaSU5hFxXLqOEZm7pINh5JyX4bLuJV7bXAfVuEgpLVNKr0oXAgAwlJzzl5zzWdgsu42Fd0UAoFUyLS8m0wIAMEIydi8mYwcDkbF7MRk7oGk557vQw4+IOCtdwDaaHYYNm4ReQtMA4OUWpQsYkV9yzteli4CW9Zd1v5auY0QWpQsA/nERETeGHACA1uWc56GZ9lJH4fwGALRrWbqAEZFpAQAYr0XpAkZExg4GJmP3YovSBQAMbFG6gAocjzG72eQwbL+F4nXpOkZi1TSwSQhgQzbWvciv/QUCMLCc8yIEqzf1OqV0XroI4B+nYSAWAJgAA7Fbedt/NQ0AoBkyLS8i0wIAMFIydi8iYwcHImP3IjJ2QNN8HfYfs9IFvFSTw7BhOvslLjUNADbXD2lcla5jJD70FwfAgfTB6o+l6xgJP8uhLgZiAYBJMBC7lUXpAgAA9mxRuoARkWkBABghGbsXkbGDA5OxexE/y4HW+TkXcVa6gJdqbhjWBs0X+Y9NQgAvdhkRR6WLGIFP/YUBcHjnEfGpdBEjcNxvIQXqYSAWAJgEA7EvdpFSGl0DDgDgITItLyLTAgAwXjJ2m5Gxg3Jk7DYjYwc0rV/EN/UFCaPrxTc3DBs2aG7qQ87ZBDvAC/SDGZel6xiBTxExK10ETFXO+Ut0l3VfS9cyAovSBQA/MBALAEyCgdgX088AAFqxKF3ASMi0AACMlIzdxmTsoCAZuxdZlC4AYGDL0gUUZhi2JBs0N2aTEMB25mFj3XO+RsS8vygACsk530V3WcfTbK6DOhmIBQAmob+n/6N0HSPxuu8BAQCMlkzLxmRaAADGbR4yds+RsYMKyNhtTMYOaN11THs5wnHpAl6qqWHYsHViE5/DJiGAbdlY97x5zvm2dBFARM75JiJ+KV3HCPjZDnUyEAsATMU8ui8A8LxF6QIAAHa0KF3ACMi0AACMnxzG82TsoBIydhvzsx1oVr+g5Lp0HSWNbTF1M8OwKaWTsEFzE+c2CQG8XL/VaHRbLw7s15zzpF8EoTY552VEfChdR+VOx3aIgwkxEAsANK+/r5+FgdhN+DosADBaMi0bk2kBABgxGbuNyNhBZWTsNiJjB7Ru6u9nJ6ULeIlmhmHDBs1N/GKTEMDWFqULqNzHnPOidBHAgy5DqPo5i9IFAI8yEAsANK8P+59HxNfStYzAonQBAABbWpQuYARkWgAAxm9RuoDKydhBvWTsnrcoXQDAUPplJVPu15+ULuAlmhiG7TdoXhQuo3Yf+q0lALyQjXXP+hpdYBOokFD1RnxdCOq2Gog9KVwHAMBgcs530X0h1tntac5vAMDoyLRsRKYFAGDkZOyeJWMHFZOx24geDdC6m9IFFDQrXcBLNDEMG90mDh73KfxvBLCLeekCKjfrLwKASvWh6nnhMmo3L10A8KTTiLhNKZ2VLgQAYCj9V7DmpesYgUXpAgAAXkhe42kyLQAAbZiXLqByMnZQORm7jcxLFwAwoOvSBbCZ0Q/DppRehYfqU75GxNwBCmA7/Raj16XrqNivfVATqFzO+Toifi9dR8UufHUSqncU3RdiDcQCAM3qz27/KV1H5WweBwBGQ6blWTItAAANkLF7lowdjISM3bNk7ICW3ZQuoKBRvcuPfhg2uqbBUekiKnbpAAWwE1uIH/cx57woXQTwIovoNqzzsEXpAoBnGYgFAJqXc76KiA+l66jcvHQBAAAbmodMy1NkWgAA2iBj9zgZOxifRcjYPWVRugCAIfRfCP9cug6e18IwrAPU4/7IOS9LFwEwVv32ojeFy6jV1xA6hNHpN6vPS9dRsfN+Sz9QNwOxAMAUXIagxVNsHgcAxkKm5XEyLQAADZCxe5KMHYyQjN2zZOyAlt2ULqCUlNKsdA2bGvUwbErpPCKOS9dRqc/hJQxgV5rTj5v320+Akek3rP+ndB2VOgrv0DAWBmIBgKb1QYvz6MJSPGxRugAAgKfItDxJpgUAoB0ydo+TsYORkrF7kowd0LLb0gXwvFEPw4YD1FPmfVgGgC30W4vmpeuo1B855+vSRQDbyzlfRcTH0nVUyhkDxsNALADQtD4kNS9cRs0ubB4HACrnvvlxMi0AAA2QsXuSjB2MnIzdk9x5AK2a8jDsaHKYox2GTSmdRMTrwmXU6vec803pIgBG7jy6AQu+9TVcYEIr5uELQw857rf1A+NgIBYAaFoflvq9dB0VE7YAAKok0/IkmRYAgHbI2D1Mxg7aMQ8Zu4fI2AFNmvi95WgWUY92GDYEHB7zOSIWpYsAaIDnzMNsaYZG9F8YWhQuo1bz0gUAL2IgFgBoWs75MiI+la6jUu7wAIBaeU95mEwLAEBbvPc+TMYOGiFj96R56QIABvK5dAGFGIYdUkrpVXh4PsYBCmBHKaVZRJyWrqNCf/RfIwEakXO+ioiPpeuo0Jt+az8wHgZiAYDWnYfN4w85SinNSxcBALBOpuVJMi0AAI2QsXuUjB00RsbuUTJ2QKvuShdQyGiyl6Mcho0u9HFUuogK/T7xTzID7Mu8dAEV+hr+d4FWzUsXUCnbS2F8VgOxs9KFAADsm83jT3J+AwBqI9PyMJkWAIC2zEsXUCEZO2jXvHQBldKjAVp0U7oAnjbWYVgPzR99DkEYgJ31m5ovStdRoYUtzdCmPlD9a+k6KjQvXQCwlaOI+NPXwQCAFvWbx/8oXUeFTlNKo9lSCwBMgkzLj2RaAAAaImP3KBk7aJSM3aPmpQsAYHpGNwzbBxpOS9dRoUsHKIC9mJcuoEIf+7Al0Kic8yK6IAr3jlJK56WLALb23kAsANCoeXRfF+BbBk4AgCrItDxKpgUAoC3z0gVUSMYOGidj9yAZO6BFN6ULKGQ0C6hHNwwbAg0P+Zhzvi5dBEAj5qULqJBnL0zDvHQBFZqXLgDYiYFYAKA5/QDBvHQdFTrvv0YBAFCavtqPZFoAANozL11AhZwFYBrmpQuo0Lx0AQDsxVHpAjY1xmFYmyN+NC9dAEALbGp+0O8559vSRQDDyznfRMQfpeuozJuU0knpIoCdGIgFAJrTDxJ8LF1HZY5C/wgAqIN3kh/NSxcAAMD+yNg9SMYOJkLG7kEydkBr7koXwNNGNQzbB1hHM2l8IL/mnO9KFwHQCNvZvvU1IhaliwAO6jK6P/vcE1yC8TMQCwC0aB7Ob99ztwcAFCXT8iCZFgCA9riH+5aMHUyPjN2PZOyAZrjPrN+ohmHDQ/J7nyPiqnQRAA3xnPnWZc75S+kigMPpD3DeL7+liQNtMBALADSlP78tCpdRm9P+qxQAAKXoNX5LpgUAoE3ee78lYwcTI2P3IBk7AA5mNMOw/afT3xQuozYLByiA/UgpnYdNzes+55yXpYsAirgKm+vWHQtTQzMMxAIATck5X0XEp9J1VEbYAgAoQqblQTItAACNkbH7gYwdTJeM3bdk7AA4mNEMw4ZNQt/76AAFsFfz0gVUZl66AKCMPpgiPPyteekCmJTP4bJ8SAZiAYDWOL99Sy8JACjFe8i3ZFoAANo0L11AZealCwDKkLF70Lx0AQB7NMml1GNZbDCmYdh56QIqsyhdAEArUkqvwqbmdR9zzjeliwDK6QMqn0vXUZF56QKYlLuImIWB2CEZiAUAmtHf4XwoXUdFjvqvUwAAHNq8dAGVWZQuAACA/ZKx+4GMHUycjN0P5qULANijL6ULKORV6QI2MYph2H6y+LR0HRX5wwEKYK8E5L61KF0AUIV56QIqIkzNQeWcb8NA7NDep5Rs6AQAWrEI747r5qULAACmRablBzItAABtkpv41qJ0AUAV5qULqIiMHQAHMYph2PCS8D2BXYD9cvi690FzGoj45+tCH0vXURHPCg7KQOxB/JZSWpYuAgBgVznnu4i4Kl1HRd70X6kAADiUeekCKiPTAgDQJrmJezJ2QETI2D3AswL4/+zd0XUUS5Yu4B133XdxLVCNBWIsoMYCGAvQsaAZC6i2oGkLqGPBgAWTsmDAg5IHyIK4D0oOqBGgkipzR2Z831qzZl6mz79OQ2VmxL8jYHJLGYb1UPzmz7HYAsAJjMW4l9k5GrLLDgA0ZZcdoCG+SZidgdhZvDYQCwCsxLvw3vg933AAwJy8e3yj0wIAsEI6dj/YZQcAmrLLDtAQayQATK75YdhSyvOIOM/O0ZBddgCAlfHh9Y3NaeAOJ9fdcVZK8cxgdgZiZ2EgFgBYvFrrl3AD1/d8vwEAs9Bp+cEuOwAAAJOw3vaNjh1wh47dHTp2AEyu+WHYiLjMDtAQH1AAp+ej65tddgCgSbvsAA3xzCCFgdhZGIgFABav1rqPiOvsHI14Od5WAQAwtcvsAA3RaQEAWC99iW922QGAJu2yAzTEMwOASS1hGNbD8JtddgCANRkLcS+zczTC5jRwLyfX3eHbhDQGYmdhIBYAWINddoCG+IYDAObgneObXXYAAABOT8fuDh074F46dndYKwFgUk0Pw5ZSnkfEeXaORviAAjg9H1zf7LIDAE3bZQdoxFkpxbODNAZiZ2EgFgBYNLfD3uH7DQCYlE7LHTotAADrZZ3tm112AKBpu+wAjdCxA9bgWXaAJIfsAA/R9DBs+ID63i47AMAKec7c+mhzGvgVJ9fdsc0OQN++G4g14DAdA7EAwNLtsgM04uV4awUAwFTsNX6zyw4AAMBkvPfe0rEDfknH7o5tdgCAJ7rIDpBhKe+7hmGXwQmaANPYZgdoxLvsAMAi7LMDNMI3CunGgdjnEfE5O8uKGYgFABbL7bB3+IYDAKbkXeOWTgsAwLptswM0QscOeIh9doBGWDMBYDLNDsOWUjbR6ST1PXbZAQDWppTyKiLOsnM04Go8jQrgl5Sp/3JeSnmeHQJqrV/idtPRQOx0DMQCAEu2yw7QCGULAGASOi137LIDAAAwDR27v+jYAQ+iY/cXHTsAJtPsMGw4SeirKydoAkximx2gEU6sA46xyw7QiG12AIgwEDuT16WUfSnlWXYQAIBjKFv8ZZsdAABYrW12gEbotAAArNs2O0AjdOyAY+yyAzRimx0A4DF0BdvX8jCs07pv7bIDAKyU50zEda31Q3YIYFE+RMRNdogGeIbQDAOxs3gdEYNFLgBggfbZARpwVkrZZocAAFbJOvGtXXYAAAAm5b1Xxw44no7dLc8QYKncbN24lodhX2YHaMDnWuuQHQJgbUopm4g4T47RAifWAUcZh+722Tka8MJQHC0xEDuLizAQCwAsz7tQtohQtgAApqHTotMCALBqOnZ/0bEDjqJj9xcdO4Bluc4O8FBNDsM6pfsvPqAApqEAd1uE3GeHABbJO+qtbXYA+J6B2FkYiAUAFmV8R3Rjge83AODEdFr+Yr8AAGDddOx07IDH8818a5sdAOARNtkBkhyyAzxUk8Ow4QMqIuKm1rrPDgGwUtvsAA34MBYiAY5Saz1ExMfsHA3wzUJzDMTOwkAsALA0u+wADbgYb7EAADgV68M6LQAAPdhmB2iAjh3wKDp2f7GGAizRJjsAv9bqMOw2O0AD9tkBAFbsZXaABjh1CniKfXaABmyzA8B9DMTOwkAsALAYY9niKjtHA7bZAQCAVdlmB2jAPjsAAACT07HTsQOeZp8doAHb7AAAj7DJDsCvNTcMO5ZJL7JzNMAHFMAESinb7AwN+Fxr/ZQdAliuWuuHiLjOzpHs3M1CtMpA7CwMxAIAS7LPDtCAbXYAAGAddFr+otMCALBiOnYRoWMHPJGOXUTo2AHLtMkOkGTIDvBQzQ3D56wdlAAAIABJREFUhkJCRMTVeFo7AKe3zQ7QAJvTwCl8yA7QgG12APiZ7wZiPyZHWTMDsQDAItRa9xFxk50j2avsAADAamyzAzRApwUAYP222QEaoGMHnIKOnWcKsDzPswPwa4Zh27TPDgCwYtvsAA3wcQ2cgkV/zxQaV2v9Umt9FRF/ZmdZMQOxAMBS7LMDJDsrpdi0BABOYZsdoAH77AAAAExumx2gATp2wCno2HmmAAsy9gDPsnMk+ZId4KEMw7bnZjylHYBpvMgOkOzP8aY4gCcZT33/nJ0j2TY7ADxErfUyDMROyUAsALAEyha+4QCA09hmB0im0wIA0AcdOx074AR07CLCWgqwLD0fsPwpO8BDNTUMOxZHL7JzJHOSEMBESinb7AwN8JwBTqn3MvV5KWWTHQIewkDs5L4OxG6ScwAA3EvZIiKULQCAJ9JpiQh7jQAAq6djFxHee4HT0rHTpwGWo+dh2MVoahg2FBEivOwATGmbHSDZTa3VQh1wSn5TPFtYEAOxk7uIiE+lFAtiAECr9tkBknlPAwCeapsdoAE6LQAA67fNDpBMxw44Nb8pni3AcnS7p1xrHbIzPJRh2LZc11oXc60wwAJ1+3Iy8kENnFSt9UtEfMzOkaz3ZwsLYyB2cmdxe0Os3wYAoEW9rw05eRwAeKptdoBkOi0AAH3ofa+z93VU4MR07CLCswVYDr9XC9DaMGzvf2h8QAFMa5sdIJnnDDCF3n9bttkB4FgGYidnIBYAaFKt9RDKFtvsAADAovW+3tP7fgAAQC+22QGSee8FptD7b8s2OwDA75RSnkXERXaOJJ+zAxyjtWHYF9kBku2zAwCs1Xjrw1lyjEw3tdbeP6aBafT+29Lrhy8LZyB2cgZiAYBW9f4N5/0MAHgKnRYAAFZNx07HDphM778tOnbAEmyzAyT6kh3gGM0Mw5ZSttkZkl3XWj9lhwBYsW12gGS9f0gDE6m1fonObxbyLcNSGYidnIFYAKBFQ3aAZN7NAIBHsQ6s0wIA0IltdoBkOnbAJHTsrK0Ai7DNDpBoyA5wjGaGYUMBwQcUwLQ8ZwCmM2QHSLbNDgCPZSB2cgZiAYCm1FoPEfE5O0ei3m9zAwAer/f1HXuNAAB98N4LMJ0hO0CybXYAgN/YZgdI5GbYR9pmB0i2zw4AsHJdL9TVWi3UAVPq/Tem62cMyzcOxP49O8eKGYgFAFqzzw6QycnjAMAjbbMDJNtnBwAAYBZd72nq2AET6/03putnDNC2UsqziLjIzpHoU3aAY7Q0DNvzw+2m1rqoPzgAC9TzrQ8fswMA6+Zmoa6/ZViJWusuIv7IzrFiBmIBgJYM2QGSeScDAB6j53cInRYAgH7o2AFMRMeu67UVoH2vsgMkW9T6b0vDsOfZARL1fsoHwKQMHXRfcATmMWQHSHQ+ngoFi1Zr3YeB2CkZiAUAmjAOMlxn50i0yQ4AACySTgsAAKtmH7Pr3gswnyE7QCIdO6BlXQ/D1lq/ZGc4RhPDsKWUbXaGZEN2AICV632hzgY1MIfef2t6f9awEgZiJ/d1IHabHQQA6N6QHSCR7zcA4CjWcrp+dwQA6Env62a9916AefT+W9P7swZo0Dio/zI7R6Kr7ADHamIYNjzUen+pAZjaJjtAouta6yE7BLB+tdYhO0Oy3r9pWBEDsZM7i4j/KaVcZgcBALo2ZAdI9CI7AACwOL2v/+q0AAD0YZMdIJGOHTALHbvu11iANnV9K2xEfMoOcCzDsPk+L+06YYAF2mYHSDRkBwC68jE7QKKev2lYIQOxs3hvIBYASNT1QEMpZZOdAQBYlJ7Xf3VaAAD6sc0OkGjIDgB0RccOoC29D8MesgMcq5Vh2E12gERDdgCADmyyAyQasgMAXRmyAyTaZAeAUzMQOwsDsQBAinGg4XN2jkTKFgDAMTbZARIN2QEAAJjNJjtAoiE7ANCVITtAok12AIDvlVKeRcTL7BzJ3Az7SC+yAyQasgMArNn4gnKenSPRkB0A6MriPohOqOdvGlbMQOwsDMQCAFl6/oYzDAsAHKPn9d8hOwAAANPTsfPeC8yq5/2ZntdYgDZdZgfIVmsdsjMcK30YtpSyyc6QbMgOALByPRfbrmuth+wQQD+W+EF0Sr5tWCsDsbMwEAsAZBiyAyTqec0QADiCdd+u3xkBAHrS83qZjh0wKx27ssnOAPCdN9kBkn3ODvAY6cOw0fdV559rrV+yQwCs3CY7QKIhOwDQpavsAIk22QFgKgZiZ2EgFgCY25AdINGz7AAAwGJssgMk0mkBAOjHJjtAoiE7ANAlHTuAZKWUbUScZ+dINmQHeIwWhmG32QESDdkBADqwyQ6Q6FN2AKBLQ3aARD2flEoHxoHY/4yIm+Qoa2YgFgCYzXjbQa/vdi+yAwAAi7HNDpBoyA4AAMBsNtkBEunYARmG7ACJdOyAVvR+K2zEQt+FWxiG7fn07SE7AEAHttkBEg3ZAYAuLfLD6EQ22QFgarXWD3H7ftXr0MQcDMQCAHPq9huulNLz/hQA8HA9vzMM2QEAAJjNNjtAoiE7ANClbvdnQscOaEApZRMRL5NjtGDIDvAYLQzD9nyyQ88vMQBz6XaDutbqOQNk6Pm3p+dvGzoyvmNsw0DslAzEAgBzGbIDJPINBwA8RM/vDD2v9wMA9EbHDmBePf/29LzWArRjlx2gATe11kN2iMdoYRh2kx0gyWL/0AAszEV2gCRX2QGAPo3vuL0OyG2yA8BcDMTO4n0pZZcdAgBYvZ7LFpvsAADAImyyAyTRaQEA6IuOHcCMdOwA8oy3wr5OjtGCITvAY7UwDHueHSBJzwUTgFmUUro9sS48Z4Bcvf4G9fptQ6cMxM7ibSllnx0CAFi1Xr/fIpQtAICH6XXdt+f3RACArujYAaTp9Teo17UWoB277ACNGLIDPFbqMGwppecrzofsAAAd6Pk5c8gOAHRtyA6QZTwxCrphIHYWrw3EAgBT6fy2r012AACgbTotAAB0ouf33kN2AKBrQ3aALDp2QBa3wt7xITvAY2XfDNvzaUKH7AAAHej5OdPriVFAG3r+DdpkB4C5GYidhYFYAGBKV9kBkmyyAwAAzet5r/GQHQAAgNn0/N7bc78FyNfzb9AmOwDQrX12gEZcL/ng7Oxh2J5PE+r55QVgLp4zADkO2QESbbIDQAYDsbMwEAsATOWQHSDJJjsAANA8e40AAPTAey9AjkN2gESb7ABAf0op24h4kZ2jEUN2gKfIHobt9jShsSgMwLR6fc7c1Fq/ZIcA+tX5u+4mOwBkMRA7CwOxAMAUDtkBkpxnBwAAmtfrXmPv6/wAAL3p9b1Xxw5I1fm39yY7ANClfXaAhgzZAZ4iexh2k/zPz/I5OwBAJ3o9ta7nD2SgHdfZAZL0ukkEEWEgdiYGYgGAUxuyAwAANGqTHSCJTgsAQF907ADy6NgBzKCUsguHJX/vQ3aApzAMm8NJQgBMyUId0IJDdoAkvW4SwV++G4hVmpuOgVgA4JS63bMopWyzMwAATdtkB0jS7fshAABd0bEDWnDIDpBExw6YTSnleUS8zc7RkM+11kWvAWcPw/ZqyA4A0IleP5YW/XICrMaQHQDIYyB2FgZiAYCTGN/dAADgqyE7AAAAs9KxA8gzZAcA6MA+O0Bj9tkBnip7GPZF8j8/iw8ogHmcZQdIMmQHAOjYJjsAtGI8PWwbBmKnZCAWADiVm+wASZ5lBwAAmqbTAgBAD3TsAJjbJjsA0IdSyi4iLrJzNOZDdoCnyh6G7ZVT1gEAWLshO0CS8+wA0BIDsbN4XUr5UEoxyAEAPEWv+xa93noBAPArvb4bAgAAwNyG7ABJdOyAyZVSnkfE2+wcjbmutR6yQzxV2jBs5yVNp2gCTKyUss3OkKXWOmRnAAD4ykDsLF5GxND5WgsAAADAyXS+zqLTAgDQCR07AADWaFzfXfwNqBNYxb+TzJthuz1tu9bqFE0AAFat502D8TQp4DsGYmdxEQZiAYDHG7IDJPHuBAD8TLfrvDotAAAAMA8dO4DJfAi3UN9nnx3gFDKHYQGA0zNgApBPmRruYSB2FgZiAQCOo2gBAAAAAP2xZw2QT7cFmEQpZRcRL7JzNOh6LQchGoad31V2AIBO9Fpk+5IdAOA719kBgLYYiJ2FgVgA4DEO2QEAAGiCTgsAQF907ADy6dgBnEgp5TIi3mbnaNQ+O8CpZA7DbhP/2QCsn/I/QL5DdgCgPQZiZ2EgFgA41iE7AABAY7bZAQAAYAb2EwHyHbIDAKxBKeV5RLzPztGwfXaAU3Ez7PycJgTAlIbsAAAoScHvGIidhYFYAAAAAI6l0wIAQA+G7AAA6NgBpzMOwg7ZORr2udZ6yA5xKoZh5/cpOwAAAMzEuy/wU98NxH5MjrJmBmIBAH7tRXYAAIDGWNcHAACAefkWB3iCUsombgdhz1KDtO1ddoBTMgwLwFptsgMA4AR54NdqrV9qra8i4s/sLCtmIBYA+K1a65CdAQAAAACY3SY7AAA6dgCPNXbiPoRB2N/5kB3glDKHYZUwAZjSJjtAEidEAQCLU2u9DAOxUzIQCwAAAHAc6ygAAPRgkx0giY4dAMDCjV24IW67cfzcn7XWVR28kDkM+zzxn53JBxQAU1rViwoA0A8DsZP7OhDb63oMAAAAwDF6XUPRaQEAoAc6dgAACzZ24A5hEPYh3mUHOLXMYdhe+YACAKAXvZZmttkBYKkMxE7OQCwAAAAAv6LTAgAAAPPSsQM4wth9GyLiLDnKElzVWlf3nDEMCwAATEVpBjiagdjJnYWBWAAAAAAAAACAFujYATxQKeUyIv43DMI+1OpuhY0wDAsAAAA0xkDs5AzEAgD3uc4OAAAAAAAAAAD/qpTyLiLeZ+dYkOta64fsEFMwDAsA6+KEKABgFQzETs5ALADwrw7ZAQAAAAAAZqBjBwCwEKWUZ6WUISL+lp1lYXbZAaZiGBYAVqTW+ik7AwDAqRiInZyBWACge6WUbXYGAAAAAGA+OnYAAMsw7uUeIuJFbpLFua617rNDTMUwLAAAANAsA7GTMxALAAAAAAAAAABAM0opu4j4n7jtt3GcXXaAKRmGnVmtdcjOAAAAAEsyDsT+V3aOFTMQCwAAAIBOCwAAAACQqpTyvJTyKSLeZmdZqFXfChthGBaA9VLkBwBYkVrru4j4IzvHihmIBQAAAAAAgL7YGwQAoBnjbbD/GxEXyVGWbJcdYGqGYQFYq0/ZAQAAOK3xxDIDsdMxEAsAAAAAAAD90LEDACBdKWXrNtiTWP2tsBGGYQEAAIAFMRA7ua8Dsa+ygwAAzOSQHQAAAAAAAACgN6WUTSllHxH/E26DPYVddoA5GIadWSllm50BAAAAlsxA7OTOIuK/SymX2UEAAKZWaz1kZwAAaIVOCwAAAAAwtVLKs1LKLiI+RcTr5Dhr0cWtsBER/zc7AAAAAMCxaq37UkpExPvsLCv2vpQSvSySAQDxPDsAAAAAAAAAAOs1DsG+idsLGzidy+wAc3EzLACsSClFaREA6IYbYmfx3g2xANANm40AAAAAwOrp2AEAzGu8CfZNKeUQEW/D3vSpXdVah+wQc3EzLACsy7PsAAAAc3JD7CzcEAsAAAAAAACshY4dAMAMSinP4vYWWDfBTutNdoA5GYYFAAAAFs1A7CwMxAIAAAAAAAAAAPBLpZTncTug+To7Swf+WWv9lB1iToZhAQCAqThJE5iNgdhZGIgFAAAAAAAAADgdHTtgFcZbYF/F7RDsRXKcXtxExC47xNwMw87PywoAAL14nh0gyZAdAHo1DsQeIuJDRJwlx1krA7EAAAAA66XTAgAAAPPSsQMWrZTyKm6HYF+Fzt7c3tRav2SHmNv/Sfxnd3UF73d6fVkBYB42qAGArtVah4jYxu2pZ0zjfSnlMjsEAHA6pZRtdgYAgMbotAAAwHrp2AEAPEEp5VUpZV9K+RIR/x0Rr8Mg7Nyuer3QInMYtrvJYwBmdcgOkMQGNQDQvVrrpzAQOzUDsQDAGlxlBwAAmqXTAgBADw7ZAZLo2AEAHKGUsimlXJZSPhiAbcab7ABZ/m92AACYyCE7AABO0gTy1Fo/jTecDWHRbSrvSymbWusuOwgAAAAAAABwtEN2AAB07ID2lFKex+1lFF//93lmHn7w9/HCkC4Zhp2f04QAAOiFd18glYHYWbwdB2Ivs4MAAE+iaAEAQIR1fQAAAJibb3EgTSllExGbuP0t+vq/X6QF4iGue7+8wjDs/BRKAJjSNjsAADFkBwC+MRA7i9ellDAQCwCLpmgBAECETgsAAH3YZgcAQMcOpvTdkOtXz+N27e/Zd//3xdy5OInL7ADZModhh4h4m/jPB2DdvmQHAODOhzRAGgOxszAQCwAs0afsAABAs4bQaQEAYP107ADybbIDQGtKKTU7AzTqn7XWITtEtv+THaBDrosGmEevRTanNQMtOc8OAPBVrfVT3J7we5McZc1el1L22SEAgEfZZAdIouwHAHCXTgsAQF907ADy6dgB8BCfa61vskO0wDAsAKzLRXYAAJSpoVUGYmdhIBYAlmmTHQAAAAAAYCY6dgD5dOwAjnOZHaAVmcOwvZ4mFKWU59kZAABgSqWUbXaGLOOwHdAoA7GzMBALAMvT600IihYAwM90u86r0wIAAADz0LED4IH+y+/mN2nDsLXWngsGvZZKAGZTax2yM2Tp+eMYAOAhxoWh5xHxOTvLihmIBYBl6fUmBBuGAMC9dFoAAOiBjh0AADTvqtb6LjtESzJvhu2ZUzQBAFi7bXaAJNfZAYCHqbUe4va3ykDsdAzEAsAClFIMOwAA8D2dFgAAAJjHNjtAEh07gIe5iYhX2SFakz0Me5X8z8+iWAIwj5vsAEm22QEAOnbIDgA83HjDxzYMxE7JQCwAtK/nYYdDdgAAoGk6LQAA9EDHDoC5HbIDACzEq7HjyHeyh2F7tc0OANCJT9kBktigBlqwzQ4A8BAGYmfxupTywa1zANCsbp/RtdZDdgYAgAZtswMAADArHTuAPNvsAAA0679qrUN2iBZlD8Mekv/5WXxAATClnm/zANqxyQ6QpNdNIlg0A7GzeBkRg4FYAGiStSQAgPsdsgMksX4DAEAPrIsCLdhkB0iiYwfwax9rre+yQ7TKMGyOi+wAAJ3o9WPJQh3QgvPsAEm+ZAcAHsdA7CwuwkAsALRokx0gyVV2AACgeYfsAEl0WgAA+qJjB5BHxw6Af/U5Ii6zQ7Qsexi224dYKcVHFMD0en3OnBkwADJ1/q57yA4APJ6B2FkYiAWA9myyAwAANKrXvcbe1/kBAHrT63uvjh2QqvNv70N2AIBG3UTE5dhj5Ceyh2F7PU0oQrkEYA49P2d6/kgG8m2yAyQ6ZAcAnsZA7CwMxAJAW15kB0jS89ohAPAwPb8vbLIDAAAwm57fe3XsgEyb7ACJDtkBABr1qtba8/v5g2QPw/Y8qewDCmB6njMAOXr+DTpkBwCezkDsLAzEAkADSimb7AyJel47BAAepuf3hZ7X+QEAeuO9FyBHz79Bh+wAAA36o9Y6ZIdYgtRh2M6nlbfZAQA60PNzZpMdAOjaNjtAllrrITsDcBoGYmdhIBYA8m2yAyTqee0QAHgAnRYAADrR83vvJjsA0LVtdoAsOnYAP/hnrXWfHWIpsm+GjYi4zg6QpOeTPABmMQ4w9MpzBsjU629Qr982sFrfDcT+mRxlzQzEAkCubXaARD2vHU6h59IkAOvW67pvr+v8AADd0bEDSNPrb1Cvay0AP/NnrfVNdoglaWEY9pAdIMlZKWWTHQKgA73e5PUiOwDQp/Ed9yw5RpZDdgDg9GqtX2qtl2EgdkoGYgEgT69FiwjDm6fWc2kSgHU7ZAdIotMCANAXHTuAGenYATD6PHYTOUILw7A9lw16LpkAzKXbElYpxXMGyNDzb0/P3zawegZiJ2cgFgBydPsN1/mNF5zOJjsAAJPred2323dFAIAOdbtWpmMHJOn5t6fntRaA732OiG12iCVqYRi22w+o8IcWYA5DdoBE2+wAQJd6Xqg7ZAcApmUgdnJfB2J7fpYAwGzGQyjOs3MkucoOwGpssgMAMDmdFgAAejBkB0i0zQ4AdKnnXsQhOwBAAz5HxNYBzo/TwjDskB0g0TY7AEAHDtkBEvX8sQzk2WYHSOTUOuiAgdjJGYgFgPn0/Lw9ZAcAABZjyA6QaJsdAACA2RyyAyTqeZ0UyLPNDpBIxw7o3U0YhH2SFoZhD9kBEl2MJ68DMJ1DdoBE2+wAQJdeZAdIdMgOAMzDQOzkzsJALADMYZsdINEhOwAAk/NNyakcsgMk0mkBAOjHITtAom12AKBLOnYAfTIIewLpw7C11kN2hmQ24QCm1fMJQuellE12CKAfpZRtdoZMvm2gLwZiJ2cgFgCmt80OkKjnNUOAXpxlB8hQax2yM6yNdV+dFgCATvS8XqZjB8xKx677tRagX18HYXt+9z6J9GHY0VV2gESvsgMArNl4asZ1do5E2+wAQFd6LsX0/E0D3TIQOzkDsQAwLaeOAwA8TM/rvzotAAAd0LHTsQNm1XMHouc1FqBvBmFPqJVh2J7/y9xmBwDowCE7QKJtdgCgKz2XYg7ZAYAcBmInZyAWACbQ+7PVJiMAcKSe3x222QEAAJjNITtAom12AKArOnYAffkcBmFPqpVh2EN2gEQXpZRn2SEAVm7IDpBomx0A6ErPtwr5SIWOGYidnIFYADi9bXaARJ+zAwAAi3PIDpBIpwUAoB9DdoBE2+wAQFd07AD6YRB2Aq0Mw/b+X2rPp3sAzOGQHSDReSllkx0CWL9SyjY7Q7Lev2mge+NA7B/ZOVbMQCwAnNY2O0Ai32+ckvdTgD70/v6g0wIA0IdDdoBEOnbALHTsul9jAfrydRD2S3aQtWliGLbWOmRnSLbNDgCwcr1/PNmgBubQ+29N788aICJqrfswEDslA7EAcDovswMkOmQHYFXclAcNUmDm1HRadFoAADrRe++h994LMI/ef2t6f9YA/fgzDMJOpolh2NHn7ACJen+pAZiUa+VtUAOz2GYHSHTtgxX4ykDs5AzEAsATOXU8huwAAExukx2AVdJpAQBg1XTsuu69APPZZgdIpGMH9OLPWuul37zptDQM2/NH1JkSJ8DkrrIDJOr5pg9gBuNNCxfJMTL1/C0D3MNA7OS+DsReZgcBgIXqfZjBN9w0huwAADCxnt8hdFoAAPqhYwcwER27rtdWgH78UWu9zA6xdoZh23GZHQBg5bp+zpRSei85AtPq/Tem62cMcD8DsZM7i4j3BmIB4FF6/oZz6jinZjAIoB+9rwNfZgcAAGAWXb/36tgBE+v9N6brZwywejcR8R9jZ5CJtTQMO2QHSNb7yw3A1Hr/iPKcAaa0zQ6QbMgOALTJQOwsDMQCwBHGU8fPk2Nk6n2NkNM7yw4A3KvXQfXP2QFWbsgOkMxeIwBAH3pfP/PeC0xpmx0g2ZAdAGAinyNiW2sdsoP0oplh2Fpr7x9Q56WUXjflAOYwZAdIZqEOmEQp5VlEvMzOkckHLPArBmJnYSAWAB6u9zWiITsAALN4lh0gidvPJ6TTotMCANCJITtAst7XT4GJ6Njp2AGr9TFuB2F7Xz+eVTPDsKOr7ADJLrMDAKxVrfUQt9fP9+qslGKxDphC778tblsAfstA7CwMxALAw1xmB0hmE5KTMxgE0BWdFgAAVk3HTscOmEzvvy06dsAa/b3W+qrW6qDKmbU2DDtkB0jW+0sOwNSG7ADJPGeAKfT+2zJkBwCWwUDsLAzEAsAvlFI2EXGRHCOVU8cn1fOgca83UELLDKkzlSE7QLLe9wMAAHoxZAdI5r0XmELvvy1DdgCAE7qJiP+ote6yg/TKMGxbzp0eDTCpngtZET6mgRMrpTyLiJfZOZL1/mwBjmAgdhYGYgHg53pfG+r9JrdJOfEYaEyvQ+qH7AAdGLIDJNNpAQDoQ+89iN7XUYET07GLCM8WYD2uImLjEOZcrQ3DeshFvMkOALBiQ3aAZGelFIt1wCn5TfFsAY40DsT+e9yeEMc0DMQCwP0uswMkswfFVLbZAYAfGIZlKt4ndFoAAHowZAdIpmMHnJrfFM8WYB3+q9a6dUhwvqaGYcc/EJ+zcyTzsgMwESdwRITnDHBavZdermuth+wQwPLUWj/FbWHeQOx0DMQCwHdKKZuIuEiOkW3IDtCB6+wAAKPen3lMRKclIuw1AgCsno5dRHjvBU5Lx07HDli2zxHx77XWd9lBuNXUMOxoyA6Q7ExZE2BSV9kBkr0upfR6IjpwQorUEeHbBXgCA7GzMBALAN8ob/mGm8MhO0CS59kBAEZOo5/HkB0gmU4LAEAfdOx07IAT0LGLCGspwLL9vdb6fOz60QjDsG26zA4AsGJDdoAGKD8Cp9D7iXURninAExmIncX7UopT+QDAN9zn8SY3mIJiJDSklLLNzpBIGWceQ3aABlxmBwAAYHJDdoAG6NgBp9D7/kyEZwqwTF9vg91lB+FHzQ3D1lo/ZGdowIvxFBAATm/IDtAAH9fAKVj090wBTsBA7Cz+VkrZZ4cAgCzjUNB5do5kQ3aAThyyAyRxMyxAR3RaIkKnBQCgB0N2gAbo2AGnoGPnmQIsj9tgG9fcMOzoKjtAA3xEAUyg1jpkZ2jARSlFQQt4tFLKq1Ckvq61HrJDAOtgIHYWrw3EAtCxy+wADRiyA3TikB0gyVl2AOCObXaARIo589Fp0WkBAFg1HbuI0LEDnkjHLiJ07IBluYqIf3MbbPtaHYZ1kqZyCsCUPmYHaIANauApLrMDNGDIDgCsi4HYWRiIBaA7pZRn4dTxCN9wc/mSHSCLYiTQglprt7/DCXRa7BMAAPRAx07HDniay+wADRiyAwA8wHVE/GetdWuAfxlaHYYdsgM04KyUcpkdAmClhuwADXhp7YedAAAgAElEQVQ1liEBjlJK2UTEy+QYLVB2Ak7OQOwsDMQC0JvLcGvlleGg2fR8I6G1VmjHNjtAEmsJ8xqyAzRApwUAYP2G7AAN0LEDHkXH7i86dkDLbiLi7xHxvNbq92pBmhyGHcufNmucKAQwFS8rtyXIy+wQwCJ5R701ZAcA1slA7CwMxALQE99wvt+Yh5thoR29lpR7PpBgdjotf/GuCQCwbjp2OnbA4/lmvjVkBwD4iT/jdgh252Dl5WlyGHbkIyriopSyzQ4BsDbj9fXX2Tka4GMbOMp42uVldo4GuFUImJSB2FkYiAVg9cb9hfPsHA2w3zSTWuuQnSHRJjsA8JeL7ABJrFfOzzuGTgsAwKrp2P1Fxw44io7dX3TsgBZdRcS/11ovx/ddFsgwbPt22QEAVspzJuK8lPIqOwSwKK/i9tTL3nmGAJMbB2I3EfE5OcqaGYgFYO2UtCJuxvcqmJqbYaEBpZSe/y563s3POvGtXXYAAAAm5b1Xxw44no7dLc8QoCVXEfEftdat/ePla3kYdsgO0IgXpZRNdgiAFRqyAzRCKRI4xi47QCOG7ABAH8YTMrdhIHZKBmIBWKVxX+FlcowWKFrMr9d3154H8KAlm+wAidyyMb8hO0AjdFoAANZtyA7QCB074Bi77ACNGLIDAMTdIdghOwyn0eww7Fj4/JidoxG77AAAa1NrVYS79aKUss0OAbSvlHIZEefZORpw7VQoYE4GYmdhIBaANdplB2iENcD59TqMdVZKeZYdAuh6MN2a5cx0Wu7YZQcAAGAaOnZ/0bEDHkTH7i86dkC2j2EIdrWaHYYd+Yi69dpJmgCTsEF9y8l1wENcZgdohG8UYHYGYmfxupQyGGAAYA3G/YTXyTFaMWQH6NCQHSBRz0N40IptdoBEvR5GkM168S2dFgCAddOxu6VjBzzEZXaARlgzAbL8GRH/Vmt9ZQh2vQzDLscuOwDACnnO3Hppgxr4lfF0yxfZORoxZAcA+mQgdhYvIsJALABrcJkdoBEfx3co5tXzv/NtdgCg36F0N22ksdf4zS47AAAAk/Hee0vHDvglHbs7huwAQFeuI+LvEfH/aq2XtdZDch4m1vQw7FhSUPK85SRNgNOzUPfNLjsA0LRddoBG3NRaPTuANAZiZ3ERBmIBWLDxGeaGglu+33L0PIzV7RAetGDcSz9LjpHlOjtAr3Ra7tBpAQBYL+ts3+yyAwBN22UHaISOHTCXjxHxn7XWTa1156DkfjQ9DDvaZwdoyC47AMCajC88H7NzNMIGNXAvJ9bdYZEOSGcgdhYGYgFYsjfR7yDQv/INl+OQHSCRYVjI1fPfwUN2gM7tswM0ZJcdAACA09Oxu0PHDriXjt0d9meAqf09Iv6t1vrK8H2fljAM6w/mNz6iAE7Pc+abXXYAoEm77AAN8cwAmmAgdhYGYgFYHLfC3vHZyb85aq2H7AyJzr0/Qqqeh2F7vpW7BdaNv9FpAQBYL++93+yyAwBN2mUHaIhnBjC1Ted7kt1rfhh2/AN6lZ2jIbvsAAAr46PrGxvUwB1OrLvjxglSQEsMxM7CQCwAS+NW2G/22QE61/M76jY7AHRsmx0g0SE7QM90Wn6wyw4AAMAk9CW+0bED7tCxu0PHDpjD61LKZXYI8jQ/DDvaZwdoiI8ogBMahwg+ZudoyC47ANCUXXaAhlikA5pjIHYWBmIBWIRx3+BtcoyW7LMDdO6QHSDRNjsAdKznwqGbYfPtswM0RKcFAGCFdOx+sMsOADRllx2gITp2wFzel1JeZYcgx1KGYT0U73qXHQBgZTxnvnk9nlIFdM6JdT/wrACaVGv9Umt9HhF/ZmdZMQOxACzBLjtAQz6O5Tzy9DyU9Tw7APSolNL7372ef3dbYf34Lp0WAIB18t77jY4dEBE6dvfwrADmtLc/0KdFDMM6UegHL31EAZyUj6+7dtkBgCbsswM05KbW6lkBNK3WehkGYqdkIBaAZo03b71OjtES32/5eh7KUnqCHNvsAIluHAKRT6flBzotAADrZN3trl12AKAJ++wADdGxA+Z2FhEf9Ln6s4hh2NE+O0BjdtkBANbCBvUPXtighr6VUi4j4jw7R0P22QEAHsJA7OQMxALQqn12gMYoWuQ7ZAfIZG0VUmyzAyTq+QCC1uyzAzRmlx0AAIDT0rH7gY4ddE7H7gf77ABAl84jYsgOwbwWMww7nhJxk52jIS/GFygATmOfHaAx77IDADnGAR+/AXftswMAPJSB2MldRMSnUsrz7CAAEPHX0J2bKL/50+14+WqtvQ9mbbMDQIe22QES9f6b2wydlh/otAAArNM+O0Bj9GugUzp299pnBwC6dVFK2WeHYD6LGYYd7bMDNGbnNhKA07BB/YMLG9TQrTcRcZYdoiHXSrzA0hiIndx53N4QayAWgBbsswM0xq2w7bjKDpDoVXYA6Mn4bdbzeqa1y7bsswM0RqcFAGBldOx+oGMH/dKxu0vHDsj2upTyJjsE8zAMu2zncfsiBcBpKMvd9c4GNfSllLIJ75f/ygl+wCIZiJ3cWUQM2SEA6FspZRe3+wTcuh7LeLSh59LLhXVVmFXvA+g9/962aJ8doDE6LQAA62QN7i4dO+iMjt29dOyAFvyjlNL7nkEXFjUMO54W8Tk7R2Peji9UADydj7G7ziJilx0CmNW7cGLdv7KJAyyWgdjJeWYCkEbR4l6+39rS+3DWNjsAdGSbHSCTGzfaotNyL50WAID10bG7S8cO+qNj9yN7NEAr9qWU59khmNaihmFHPqJ+tM8OALAGNqjv9TcvhNCHUso2Il5m52jMx1rrITsEwFMYiAWA1dqHosW/sn/Ult6Hs5w6DTMYb955kZ0j0VV2AO7lneRH++wAAACcjo7dvXTsoBM6dvfSsQNachYRw7h/wEotcRj2Q0TcZIdozAtXOQOczD47QINs2kMf9tkBGrTPDgBwCgZiAWBdxv2Angd/7nOlaNEWNxX2fVMlzGibHSBZ77+1rdJp+ZFOCwDA+uyzAzRIxw76sM8O0KB9dgDWp9Zaev6fiPj3sMb4FAZiV25xw7C11i/hGvX77P1FBTiJfXaABr0opbzJDgFMp5Syi4jz7ByNuam1+u4AVsNALACsw7gPsM/O0aB9dgDu1fONheduA4FZ9D5cZxi2QTotP6XTAgCwLvvsAA3SsYOV07G7l44dTGA8dLb39e+nugiHlazW4oZhR/5A/ugs/HsBeLJxg9qQwI92NqhhnUopm4h4mxyjRfvsAACnNg7E/pGdAwB4kn3c7gfwzU2tdZ8dgnsN2QGSXWYHgA70XgYasgPwU7obP9JpAQBYER27n9Kxg5XSsfupfXYAWKta6xB6Xk/1ejzIgJVZ5DDsOOXe82nSP/O6lLLNDgGwAvvsAA06C/9eYK322QEapZQDrNI4KGKhFAAWqJTyKiJeZudo0D47AD/V+42FvQ/pwaTG52LPB0Rc11oP2SG4n07LT+m0AACsyz47QIN07GC99tkBGqVjBxMae14OIHmat6WUy+wQnNYih2FH++wAjdo7VQjgacaTVD5n52jQy7FcAqxEKeVNRLzIztGgj4pkwJoZiAWA5RnX/ffZORqlaNGuITtAsvNSyvPsELBive9X9H7gwBLsswM0SqcFAGAldOx+SscOVkbH7qd07GAGtdbLcPDeU72zZ7cuix2GHYubN9k5GnQeih8Ap+C39H42qGElSimbiNjlpmjWPjsAwNQMxALA4nyIvm+/+xlFi4bVWr9ExHV2jmSX2QFgxXovFg/ZAfg1nZaf0mkBAFgX73b307GDldCx+6V9dgDoyKtwCMlTnEXEMP6mswKLHYYd+Yi632unCgE82YewQX2fs/ABC2uxD0Xq+1zXWj9khwCYg4FYAFiGUsounDj+M/aJ2jdkB0hmvw4mUEq5DGubQ3YAHsS7yv10WgAA1kPH7n46drAe+7AOdR8dO5jReADtZXjveoqziPjgwJJ1WPow7D47QMOcKgTwBONL4z47R6Ne2qCGZSulvAlF6p9RTgK6YiAWANpWSnkeEW+zczTqc611yA7Bbw3ZAZKdW0uFSfT+9+qm1vopOwQPss8O0DCdFgCAFdCx+yUdO1g4Hbtf0rGDmY1rwt4tnuYivLuuwqKHYWuth4j4MztHo87i9sQlAB7Px9rP7Uspm+wQwPHGIvU/snM06iZ86AIdMhALAG0ahwOs8/+ctbtlGLIDNOAyOwCsybg38TI5RrYhOwAPo9PySzotAADrYZ3u53TsYKF07H5Jxw6SjAcF63g9zctSivfXhVv0MOzIH8KfezGeSALAI4wb1B+zczTqLHzMwuKMRep9do6GfRhPLQXojoFYAGjSh4g4zw7RqOvx/YXGjWus19k5kr1UeoSTuswO0IAhOwBH0Wn5OZ0WAIAV0LH7JR07WCAdu9/SsYNE4x7pP7NzLNzfSimX2SF4vMUPw45XPV9l52jYP8aTSQB4HBvUP/eilLLLDgEcZRcRF9khGrbLDgCQyUAsALRjXHN5kZ2jYfvsABxlyA7QgMvsALAil9kBGjBkB+DhdFp+S6cFAGAddOx+TscOlmcXOna/sssOAL2rtb4Jh5E81Xvrksu1+GHY0S47QOM+jCeUAHCkWusQNqh/5W0pZZsdAvi9UsqriPhbdo6G/TmeVgrQte8GYm+SowBAt8bvt7fZORp2E8p1S/MhO0AD3HoHJzCe1N77rek343Aly7LLDtA4nRYAgIXTsfstHTtYCB2739Kxg3ZcRsTn7BALNxiIXaZVDMOOH1HX2Tkadh5OSQd4in12gMbZoIbGlVI24bfsd/bZAQBaMQ7EbsNALADMbtxs22fnaNy7WuuX7BAcZcgO0ICzcYgPeJrL7AANcMDAAum0/JZOCwDAOuyzAzROxw4ap2P3IPvsAMCtcb/0Veh3PcVZROy9oy3PKoZhR7vsAI17WUrZZYcAWKJxGMAG9c+dhfIFNGv8SPsQt39Xud/VWEYCYDTeMrMNC6YAMBvfbw/iVtgFGjfjnUxtLxOeZLxB50V2jgYM2QF4tF12gMbptAAALJyO3W/p2EHD7NE8iI4dNGa8qXmbHGPpLsI72uKsZhjWR9SDvC2lvMoOAbBQu+wAjXthgxqa9S5uP9b4uV12AIAWGYgFgPmMJYshbm/F4ufcCrtcNpEjzsdhPuBxdtkBGjFkB+BxdFoeRKcFAGD5dtkBGqdjB+3Ssfu9XXYA4Edjv+uP7BwL96KUss8OwcOtZhh2tMsOsAD7Usrz7BAAS2OD+kFsUENjSimXEfE6O0fjPjuxDuDnDMQCwGz2oWTxO26FXbYhO0AjdtkBYInG/W23wt6uZR6yQ/Aku+wAC6DTAgCwYDp2D6JjB43RsXsQHTto2PgO9s/sHAv3enwesACrGob1EfUgZ3G7efAsOwjAAu2yAyyADWpoxHjTyPvsHAugSA3wGwZiAWBa4ymzL7NzLIBbYRdsLMl4n7w9WXqbHQIW6E12gEYM2QF4Gp2WB9FpAQBYvl12gAXQsYNG6Ng9mI4dNK7W+iYiPmbnWLj39vGWYVXDsKNddoAFuIiID9khABboQyhs/c5ZRHywQQ25Simb8L73ENdj+QiA3zAQCwDTKKW8C6eNP4RbYdfBWsWtXXYAWJKxHOxZecvv6DrssgMsgE4LAMCy6dj9no4dNEDH7sF07GA5LiPic3aIhfvg0JL2rW4Y1kmaD/ZiPG0egAcab55Quvu983A6OaQZF8o/xO3COb+2yw4AsCQGYgHgtEoplxHxt+wcC+FW2HUYsgM0wu2wcBz7Mrduxlu2WTidlgfTaQEAWCgduwfTsYNEOnZH2WUHAB5mfA97FbpdT3EWEXuHlrRtdcOwo112gIV4XUp5kx0CYGHehRfEh7iwQQ1pPsTtqen8mhPrAB7BQCwAnMY4CPs+O8dCuBV2PZyw/80+OwAswTg4/iI7RyP8hq7LLjvAQui0AAAsl47dw+jYQR4du4fRsYOFqbUe4rbbxeNdhENLmrbKYVgnaR7lH2PpBoAHGE9Msen6MK9LKbvsENCTcYFcOexh/JYDPJKBWAB4GoOwR3Mr7EqM/z1+zs7RiHP7c/Agu+wADRmyA3A6Oi1H0WkBAFggHbuj6NjBzHTsjuK3HBZo7Hb9kZ1j4Rxa0rBVDsOOdtkBFuR9KeVVdgiApbBBfZS3NqhhHuPC+OvsHAtxVWt1kwLAE3w3EOu9GACOYBD2aNe11l12CE5qnx2gIbvsANCycf9aKfEb65nrs8sOsCA6LQAAC6RjdxQdO5iJjt1RdOxgwcZ3sX9m51i416UUhwI0aLXDsONfXKdLP9y+lPI8OwTAguyyAyyIDWqY2Lgg/jY7x4LssgMArME4EPs8rL8AwIMYhH2UXXYATk5x5ptzt37AL73LDtCQj25JXx+dlqPptAAALNMuO8CC6NjBxHTsjrbLDgA8Ta31TUR8zM6xcP/wjtae1Q7DjkxgP9xZRAw2DwAexsl1R7NBDRNRpj7aVa11yA4BsBZjGXcbypsA8EvjibG+3Y5zNa7BsSK11kN4d/zem1LKs+wQ0JpxUPw8O0dDHCSwXjotD6fTAgCwQDp2R9Oxg4no2B1Nxw7W4zLszT2Vd7TGrHoYdnwAX2XnWBCbBwDHucwOsCCeMTCB8e+URbrj7LIDAKyNgVgA+LVSyj4i/pGdY4F22QGYzD47QEPOwu2XcMc4IG5A8C7DsCul03I0+40AAMt0mR1gQbzzwgR07B5llx0AOI2x1/UqIm6ysyzYWUR8cMBtO1Y9DDuyUXYcH1IAD2SD+mieMXBC49+lITvHwvzpxDqAaRiIBYD7jYOwr7NzLNBH32+rZqjrrtellG12CGjIPm73E7j1cfzmZr10Wo5jvxEAYGF07I7mnRdOSMfuUXTsYGVqrYe47XXxeOdx+45mILYBqx+GrbV+iog/s3MsjA8pOFIpZZOdgTS77AAL4xkDJ/DdIp1S2HF22QEA1sxALAB8U0p5VkoZwiDsY9yEoZBVGzfcFSDv2mcHgBaMg+Evs3M0xgECK6fT8ij2G+FIOi0ANGCXHWBhvPPCCejYPdouOwBweuM65B/ZORbuIiLeZYegg2HY0ZtwpfOxfEjBA41/Tz6NtzzQmfH0IxvUx/GMgSewSPdofx/LtgBMyEAsAPxVMh4i4kVqkOV65/utC/vsAI05L6XsskNApvE09X12jsbc1Fr32SGYhU7L8ew3wgPptADQAh27R/HOC0+gY/doOnawYuN68z+zcyzca3t6+boYhh2LmKavj+dDCn6jlHIZ3z6WXts86NYubFAfyzMGHsEi3aPdhO8BgNkYiAWgZ19LxnF7KizHu6617rJDMAs3Hf7orfVSOreLiPPsEI3xW9kJnZZHs98Iv6HTAkBjdqFjdyzvvPAIOnaPpmMHHai1vomIj9k5Fu7tuOZCki6GYSMixvLEdXaOBfIhBT8xPsDex92PJZsHHRpPQfIBeDzPGDiCRboneTOWiQCYiYFYAHo0rhf+b/hue4rL7ADMY3xfdBvIjz6Mt2NCV0opryLib9k5GrTPDsB8dFoezX4j/IROCwCt0bF7NO+8cAQduyfRsYN+XIZO11O9836Wp5th2NFldoCF+voh9So7CLTiu02D+9g86JAN6kezWAcPYJHuSa5qrfvsEAA9MhALQE9KKe/i5+uFPMzHWuuQHYJZ7bMDNOg8lELpzDgAvs/O0aBrz8UuXWYHWCidFvgXOi0AtErH7tF07OABdOyeRMcOOjJ2ul7F7Y3QPM7X9zOH3Cboahh23CxynfPjnEXEf7vKGR5cbLN50Kc32QEWymId/IKbhZ7MbzNAou8GYq+SowDAJEopz0opQ7jN7qluwvBHd8Z9O+XHH702zENnPoS1z/sYjO+QTsuT6LTASKcFgAXQ43gcHTv4BR27J/PbDJ2ptR7ittPF4xmITdLVMOzoTZhef4r3pRQvO3Rr3Ax4aLHN5kFnaq0fQsn/sZzYDPf4zanN/N4/a62fskMA9K7W+qXWuo2IP7OzAMAplVK2EXGIiBe5SVZhNx6iQX/22QEatVdspAellF14jv7MPjsAaXRankanha7ptACwBDp2T6JjB/fQsXsyHTvo1Ph3/4/sHAt3EQ63nF13w7Dj9Lo/aE/zD4uh9Oa7Gx5eH/n/avOgP5dhg/qxnNgM3xnLGhbpHu8mInbZIQD4ptZ6GQZiAViJcXjnf8IJ46dwVWu1b9Mv/93f7yxuB2KdJM1qjcXdt9k5GvWnQyL6pdNyEjotdEenBYAFugwdu8fSsYPv6Ng9mY4ddK7Wuo+Iv2fnWLjXpRRrujPqbhg2IqLWuouIz9k5Fu51KcV1znRhPH19iMefTG3zoCM2qE/i/VgohW6Nz41/ZOdYuDcKYwDtMRALwNKVUjZjwdjwzmncxG3xjU6N3+7eD+93EW6GZKXGvbd9do6G7bMDkEun5SR0WuiGTgsAS6RjdxI6dnRPx+4kdOyAr+uR9uue5m8OK5lPl8OwozfZAVbgRUQM46IqrFIpZRu3mwYXT/yPsnnQERvUJ/HW3xl6NJ7a/CGOP7WZu67G06oAaJCBWACWaty8+hSPLxjzo91YfKNv++wADXvpJGnWZhxM24fb1X/mutY6ZIegCTotT6fTwurptACwZDp2J6FjR5d07E5Gxw743pvwbvZU761FzqPbYdhxA+mf2TlW4CJuNw9eZQeBUxvLbf8Tp9uMt3nQFxvUT/e6lPLJic30opSyidvN6pepQZbPrUIAC2AgFoAl+a5U8T4M7pzSVa3VkB9f9+xsrv+ck6RZjXG9f4inD+ys2S47AG3QaTkZnRZWS6cFgJXQsXs6HTu6omN3Mjp2wB3jLdHbuP194PGG8VnFhLodhh3tIuI6O8QKnEXEf5dSdtlB4FTGBf73E/xH2zzohA3qk7mIiE//n737vYrj2PYGvOuu+126EZgTgXAEHkdgHIGGCIwiEIrAKAJBBEYRGCIwRHAgglcTQb0fusaM0D+Y6Z6q7n6etbRk+/hae60LTHft395lSwpTV77Gb0IIrA9nbhUCGAcDsQCMQQnN34VQRd+ELHjMYPT3fTAQy0SchTPQ71m5jYNHTkOmpQ8yLUyOTAsAUyFj1xsZO2ZBxq5XMnbAFwzE9uJFRFxaVDKsWQ/Dlm/UZe06JuRtSsk3LaOWUjpIKd1ExOsB/xjNg/k4DQ3qPvwUNjYzYSXI+E+4XagPtznn09pFAPB0BmIBaFU5J7yKiL/C+9oQToUs2FSGv5ylft+ZQCNjVnpjQ/bfpsBiAD4j09I7mRZGT6YFgIk6DedCfZCxY9Jk7HolYwd8U875JiJOatcxcq8i4rx2EVM262HYCFuFBvBb2C7ESJVDgH1tDNI8mAEN6l6tNzYLgjAZKaWXA25tnqtl7QIAeD4DsQC0ptwYdRMRv1QuZao+5pyd8fA157ULaNyL6AKNenCMjkHYJ/P5yBdkWnon08JoybQAMFUydr2SsWNyZOwGsaxdANC2ssT2Xe06Ru43ZyvDmf0wbHEatgr16aeI+CelZBsAo1Fe/vd9y4PmwQxoUPfuj5TSlY3NjF1K6SAirkIArE/vykYqAEbIQCwALUgpLVJKdxHxNmwWH8oqhCz4trPovkb4NgOxjI5B2Ce7KAFw+JrTkGnpk0wLoyPTAsDUydj1TsaOSZCxG4SMHfAk5QZpWa7dvC43m9Mzw7Bhq9CA/vQyRetSSgcppZuI+KNSCZoH83AaGtR9+iUi7lJKi9qFwDb2vLV5Lm7LizcAI1YGYjW5Adi7ckZ4GRF/RxeMZzhLgz58S/nacGvFjxmIZTQMwj7Lae0CaJdMy2BkWmieTAsAM3MaMnZ9krFj1GTsBiFjBzzXSUTc1i5i5D54HuufYdjCVqHBrF+mjmoXAo+VLQstvChpHkycBvUgXkTE3yml09qFwHNU2to8dW4VApiQnPNJRBzXrgOAeUgpvSxnC/+NiN8qlzMH73POl7WLoHmGYZ9mPRCr/0azDMI+y0XO+a52EbRNpmUwMi00S6YFgLmRsRuEjB2jJGM3CBk74NnK89kiup8hbO/Sktt+GYbdUAKXptb79yIi/kopndmoSQtKyO0yIj5EOy9KmgcTVxrU72rXMUFvy8bmg9qFwPeklA4rb22estOc803tIgDoT875PAzEAjCwEv65i4i3dSuZjdvSg4HvKk31i9p1jMS6/7asXQhsKn24qzAI+xyntQtgHGRaBiPTQlNkWgCYMxm7wcjYMQoydoOSsQO2YiC2Fy8i4tzZY38Mw35pGb5Jh/JHRNy44pmaykbXu2jzpgfNg4nLOZ+GBvUQfonu88XGZpqUUjqJiH+i/tbmKbrOObsxBmCCDMQCMJSU0jKldBfdEGwroeKpW0WEcxue47R2ASPzwe0etKIEOa6iO7fnadwKy3MtQ6ZlKDItVCfTAgAydgOSsaNpMnaDkrEDdlKG6S0+3s2riLisXcRUGIZ9pHyTntauY8J+ioi/U0qm2tmrjc2Zf0XbITfNg+lbhgb1ENYbmy99vtCKlNJBuQHhz9q1TJQwNcDEGYgFoE8bQ7AfojunZn+Whnx4jvL14nbY53mr90ZtKaXD6IZ3BBaf57R2AYyLTMvgZFqoQqYFAL6wDBm7IcjY0RwZu8HJ2AG9KDmud7XrGLlfnKv0wzDsV5TNFx9r1zFxryPizoYh9iGltIx2N2d+jebBhNmMMrjfwucLDSib6m7CDQhDWuacP9UuAoBhGYgFYBclTGwItq73OWcbbtnGae0CRuh1RFyllA4q18EMlV7cP9H28E6L3ArLVmRa9kKmhb2RaQGAL8nYDU7GjibI2O2FjB3Qm5zzaVhou6vX5fOPHRiG/bZlRNzXLmLi1huGNOYZxMa2oA8xvua75sGElUC/BvVwbLCjmkeb6sb22TMmwtQAM97m5HYAACAASURBVGIgFoDnKkOwp9GFiQ3B1nOdc9bIYytlOOx97TpG6FVE3Agysi/lM/c8us9bnu+0dgGM2jJkWoYm08KgZFoA4Ptk7AYnY0c1MnZ7I2MHDOEkIm5rFzFyf+rl7cYw7DeUDRi+uPbjl4j4b0rp1AsVfdgIu/03xr0tSPNg2pahQT209QY7oUv2YiKfPWNwK0wNMD8GYgF4ihKeOI9uCPZtCFDUdB96LOzuNCJWtYsYoXWQ8ax2IUxbSukwIq6iuz2R53MrLDuRadkrmRZ6JdMCAM+yDBm7ocnYsVcTeRYeAxk7YBDlXHIReni7Oi99FrZgGPY7cs43EfGmdh0z8ja6bdXL2oUwXuXr5ya6r6cp0DyYKA3qvXkR3faUKw+MDCWltEgp3cV0Pntatgo/OwFmy0AsAN+SUjoqG8T/G91AjiHYulYRcVTOv2Br5WvIQOf2/kgp3TgXZQglIHsV3W3EbOe0dgGMn0zL3sm0sDOZFgB4Hhm7vZGxY3AydnslYwcMykBsL15ExKXle9sxDPsDOeeziLioXceM/BQRH8oL1aJ2MYxHeUm6iogP0X0dTYnmwURpUO/VLxHxT0rpzEMjfSk3Dl1GxN8xvc+eVi3dlgAwbwZiAVgr72SnJTjxV9gg3pKTcu4FfTgLjfRdvIruXPS0diFMQ/n8vYqIP8PyiV24FZbeyLTsnUwLW5FpAYDtydjtlYwdvZOxq0LGDhhceUZzA/Vufopu8SjPZBj2aU4i4rZ2ETPzS0T8nVK6TCkdVK6Fhj16SZpy4E3zYKI0qPfuj4i4K1vrYSsppZclQHgTEb9VLmdO3uecL2sXAUB9GwOxhiIAZiiltCzngf+Nbnu44ERb3pfPauiF22F789YtseyqnKvfxLT7cfuwCgEh+ifTsn8yLTyJTAsA9EPGbu9k7NiZjF01MnbA3pS+8LvadYzcK2cqz2cY9glKo30ZQpY1/BYR/00pnWsgsKk0DM6jC73N5SVJ82C6NKj360VE/JlSurOxmedKKS2jO6B7G24+2KfrnLMDdgD+VQ5TF+GsBmAWUkpH5Yz4U3S36MzlPHBsLry7MYSc82lE3NeuYwLWt8S62YNnKTfZ3YTbYPtyVvIH0BuZlqpkWvgqmRYAGISM3X7J2LE1GbtqZOyAvSt9PEtLdvPaEpLnMQz7ROUK52XtOmbsdWggEF80DF5XLqcGzYMJ0qCu5qfoNjZfObDjRzYCXx/CrUP7dh8RR7WLAKA95axmEZ6jASbp0QDsX9GdBQpMtOs23HLHsE5rFzAh65s9lrULoW3l9o7z6G6ye1W5nKm4D7ddMxCZlupkWogImZaQaQFgQDJ21cjY8WQydlXJ2AE1WVqyuz/17p7OMOwzlCvjXeFclwbCTGkYfEbzYII0qKv6JR4O7A4q10JjygHdVQh81bKKiCM3JQDwLQZiAaajDNwsDcCO0n1ELLy7MaSc83lEXNeuY0JeRMSHlNKNECOPlc/k04i4Cz25vp36vGRIMi1NkGmZKZmWz8i0ADAYGbuqZOz4Jhm76mTsgKrKz59FyG/t6iyldFi7iDEwDPtMrnBuhgbCTGgYfJPmwQSVBvWb2nXM2C/hs4Xi0QHdL5XLmbOT0sgAgG8yEAswXuXd67RsCf9/0W0KNwA7LgIW7JPbh/v3KtzswYaydfwuIt6Gz+O+XZfBfhiUTEszZFpmQqblm2RaABiMjF11Mnb8S8auGTJ2QHUGYnvxIiKuUkovaxfSOsOw23GFczvWDQRN+onZeEHSMPg2zYMJyjmfhQZ1bZvNadtVZsYBXVPeC4cB8FQGYgHGYWP49SqllKN793obtoSP2ULAgn0pX2vva9cxUZs3eyxqF8N+bdzOfhfdYgpDsMMw0M8+ybS0Q6ZlomRankSmBYDByNg1QcZuxmTsmiJjBzSj9PKWtesYOQOxT2AYdgsm1pu0btLflI3FjNCjZrsXpKfRPJgmDeo2vI6IfzSn5yGldOSArikfc87CYQA8i4FYgLaklA7LWd9ZObfdHH713jUNxwZhqeA0PO8NaXMo9qh2MQyr9OVOo7sJ9kNE/FS1oGl77zOTfZJpaZJMywTItGxFpgWAIcnYtUHGbkZk7JojYwc0J+d8GRFvatcxcq8i4qx2ES0zDLslzYNmvYqIDymlTyVkdVC5Hp6gBOPOQ7N9W5oHE+Mzpjma0xO20bD+KxzQteI2bIYCYEsGYgH2L6V0sHHj6/nGra//RHfW90e4+XWKjm0ap4ZydrqsXccM/BIRf6WU7sr5me3TE1I+u8+j68u9DTfBDu0+ukF+2Cv9xmbJtIyQTMvOZFoAGIRn3ubI2E2YjF2TZOyAZuWczyLionYdI/e6LDTlK1LOuXYNo1a2Iv9Vuw6+6zoizgVz2lKCE0fRbecShuvHRc55WbsI+pNSOoyIqxBEac19RJxHxFk5VGVkSrBgGd1nkO+vtqwi4jDnfFe7ENpQhijm5jrnvKhdBIydZ+lh5ZxT7RrmrBx2v61dRwXvcs6ntYuYq41t7pu/vwznenP1pjQwoZpy+4DQ1f6sIuIyujNRt1uOVAmiLsP3zr79XjbhQxUyLaMg09IgmZZByLTQuxm/G/6ac76qXQS0Ql+wWTJ2Iydj1zQZuxmZ6zOvXMo0pJRuwrnKriyp/grDsD0ojcMPtevghzTqG1CabcuI+K1yKVOleTAxGtTNu4iuOX1VuxB+zGdQ81YRsfCcxibDsMAuNL6Ho+lQl2FYnmpjgPV7Dsqvr/39Qbjthi85f6QJJYh1E571ariNLsh4KWzVvvJedBLdMI/vl/37mHM+ql0EyLSMhkxLA/QTB+edkl7NdTAgDMPCF2TsmidjNyKeiZsnYzczc33mlUuZhrJs7CbkDnb1s5/7nzMM25OU0llE/FG7Dp7sPromwrkfCsMrL0brXxrtw9M8mBgN6lG4j4iz6D5XbLJryMaGumV4mWqdGxL4gmFYYFcl+H0etgz2StOhrhkPwwL1OXekKSmlk4j4s3YdM/cxun7bpXPRdpT3oGV0fTlnovWsIuLA9watkGkZHZmWPZJp2TvvlvRmroMBYRgWvkrGbhRk7BolYzcqMnYzM9dnXrmU6XCZQS/cCP6IYdgepZTOI+J17Tp4Nk2EnpUNDkcRsQjNglo0DyZGg3pUPkYX/jqvXchcbXwOLWOGhwAjdex7hq8xDAv0oTwbXIWB2N5oOtRlGBaoxHkjTZprCKRR1/EwGHtXuZbZKTfCr4d4BBbbIJhIc2RaRkumpWcyLU3wjkkvZvxOaBgWvkHGblRk7CqTsRslGbsZmuszr1zKtJRFZH/VrmPkbqO7GdxCkTAM27uU0mVE/Fa7Dra2iq6JcBW2WD9L2diwiO7FaHYPXI3SPJgYDerRWX+mXAq8DG/jcO4oPIuNzbuc82ntImiTYVigLwZi+6XpUJdhWKAC54w0q9xYcBMGGFqzHtq5iogr/bb+la/9RTwM8vgeaMvHnPNR7SLga2RaRk+mZUsyLU3yrsnO5joYEIZh4btk7EZHxm6PZOxGTcZupub6zCuXMj0ppZOI+LN2HSOn91AYhu2ZcOXk3EZp1Idm/Wc2GgXrX5rsbdI8mBiHdaOlMT0Ah3OT4HOK7zIMC/TJmU1/NB3qMgwL7Jn3NpqneT4K19E9i9+EfttWSl9uszfn9td2rSLiwNc5rXI+MjkyLd8g0zIa3jnZyVwHA8IwLPyQjN1oydgNQMZuEjw3z9hcn3nlUqbJM1ov3uecT2oXUZth2AFoHkzaupGwbtbfVa1mT8rX9LpRsP5do2A8vARNiM+YybiOcnCXc76pXcyYlMb1+nDO98G4+XzihwzDAn3zPN0PTYe6DMMCe+S9jdFwy93o3EbXa7uJiBsh7s+VW183h18PQ19uTAwm0DznI5Mm0yLTMkbePdnaXAcDwjMn/JBn3smQsduSjN2keF6eubk+88qlTFdK6SZ8Nu3qOOd8XruImgzDDsSL1GysojQRIuIuuob9qF+4SoP9IB6aBIdhu/QUeBmaEJ8xk7O50W70nyN9s7V5sm5zzoe1i6B9hmGBIXie3p2mQ12GYYE9cZ7IqJRnvLtwdjRmt1F6beXX3dTPSjcGdw6j682t/9rX8XjZyM5oOB+ZDZkWxsI7KFuZ62BAGIaFJ/HMOzkydt8hYzdZMnbM9plXLmW6yjPaTTjP2dWs3wsNww7Ii9Ss3UbEp+j+//8puh/Wn1p5+SovPS+jaxAcRNcceBkzfFCaGc2DCfEZM2mr+Hxj81XVavbo0dbmRQh+TdVtRCxyzp9qF0L7DMMCQ/E8vRtNh7oMwwJ74ByRUUopLSLi79p10Lv76IZ3Hv9qpu/2LRvnnRHdeWeEntyUCScyOs5HZk2mhRZ5F+XZ5joYEDMPPcNzeOadNBk7Gbupk7EjIub7zCuXMm3l7OcqfH7tYhXd50QT53n7Zhh2YGUj4U34JuVz1+X3dVNh7ab8s11sNtYjHpoCETN8EOILmgcT4rBuVjZvRbiK7laEu4r17MzW5tlySMezGIYFhuR5enuaDnUZhgUG5vyQUfM5OVvrgdmIL3tvj/++D497cREPw64RAohztIqIw7Gf2zNPMi18g0wLtXgn5VnmOhgQhmHhWfQEZ0XGjqmQseNfc33mlUuZvpTSUUT8VbuOkZvt54Vh2D0wtQ40RvNgQjSoZ+86HprQd+tfrRzi2drMI7N96WJ7hmGBoWl+b0fToS5DPsCAnBsyCXMNhgBVHeecz2sXAduSaQEa492UJ5vx+59hWHgmGbvZk7FjTGTs+Mxcn3nlUuYhpXQSEX/WrmPkZpk3/d/aBcxBzvkmpbQIzQMAepZzvvMZM2vrF9zfNv9hSimi20S/3tR8Fw83I0TY2sz+OaQDoEk5508bz9MGYgGYM2FjpuQourMw56XAPlwYhGXsZFoAAJg6GbvZk7FjLGTsgFnJOZ+VpRCva9cyYr+klM7n1ut3M+we2aYJNECobaJ8xgANc0jH1twMC+xLuSH2PB41QPk6GzjrcjMsMIA3Oeez2kVAn0q48e/adQCTd5tzPvzxvwbjoN8INECmhWeZ6y1Z4WZY2JpnXqBhMnZ81VyfeeVS5iWldBMuMdjV8ZwWd/5P7QLmJOd8ExGLiLivXAowT5oGE7bxGbOqXArAJod0AIxCzvlTzvkoIi5q1wIAe3ZsEJYpKqHgN7XrACZtFd1N1DAZMi1AZTItAAxOxg5olIwdMHeLcCa5qw9lWfAsGIbds/IidRjdQwvAvmgazIDDOqAxDukAGJ3y3mQgFoA5WEXE73PaDsv8lEHvj7XrACbrKOd8V7sI6JtMC1CJTAsAeyNjBzRGxg6YvfIz8Cg8n+3qMqV0WLuIfTAMW0H5Rl2E5gGwH5oGM2JjM9AIh3QAjJaBWABmYBXdO9tl7UJgD5ahHwf07025gRomSaYF2DOZFgD2TsYOaISMHUBRns+WtesYuRfRDcS+rF3I0AzDVqJ5AOyJpsEM2dgMVOaQDoDRMxALwITdRsRhOT+CybNJGhjARbl5GiZNpgXYE5kWAKqRsQMqk7EDeKQsc35Tu46R+ykirmoXMTTDsBVpHgADO9Y0mC+fMUAlDukAmAwDsQBM0HV072x3tQuBfSpf80e16wAm4TYiTmoXAfui3wgMTKYFgOo88wKVyNgBfENZRimvtZtXKaXz2kUMyTBsZTnnTznnw/DNCvTrOOd8XrsI6nJYB+zZRTikA2BiDMQCMCEXOWfvbMxWzvkqIo5r1wGM2iqcfzJDMi3AQGRaAGiGjB2wZzJ2AD9Q8lqezXbzOqU02eWehmEbIVwJ9GQVEb9rGrC2cVh3XbkUYNoucs5Lh3QATJEzGwAmwG07EBHl3NxzHbANg7DMnvMRoCcyLQA0ScYO2BMZO4CnW4SB2F39mVI6ql3EEAzDNqQ0D97UrgMYrXUj/rJ2IbSlbGxehAY1MIwLoWoApk7gE4CRWkXEz0LG8MBzHbClZc75pnYRUJtMC7AjmRYAmiZjBwxMxg7gGcrigGV05wls7zyldFi7iL4Zhm1MzvksIo5r1wGMzm10TQONeL5J0AsYgNuFAJgNz9MAjMxtRBw4L4SvOgmbpIGnOza0Aw9kWoAtybQAMBp6gsAAZOwAtlDOESZ5s+kevYiIq5TSy9qF9MkwbIPKlvafwwQ78DSaBjxZeaHWoAb6cOx2IQDmpjxPv6tdBwD8wEXO+bBsywUeKd8bizAQC/zYG2eg8CWZFuCZZFoAGB0ZO6BHMnYAO8g5X4Xnsl1NbiDWMGyjygHgIjTige+7iK5pINjGk5UX6+PQoAa2s4qInx3SATBXOefTcMgKQJtWYbs4PMnGQOx95VKAdl2UGzCBr5BpAZ5IpgWA0ZKxA3YkYwfQk/Kz9KJ2HSP3KiIm0/MwDNuwjebBdeVSgDa9yzkvNQ3YRnkoXITDOuB5bG4GgPis+Q0ArVi/r53XLgTGopytH4UzUuBLF5ZLwI/JtAA/INMCwOjJ2AFbkrED6Fk5s3cOuZvXKaXT2kX0wTBs43LOn3LOizDFDjxY3/BwWrsQxq28aB+Gjc3A0zikA4ANBmIBaMj78L4GW9kY4hFoBNYMwsIzyLQAXyHTAsCkyNgBzyRjBzCco/BMtqu3KaVl7SJ2ZRh2JErDTcASuA83PNCjnPNddGGvj3UrARp3kXM+tLkZAD5nIBaAylYR8XvO+cT7GmzPQCywwSAsbEmmBShkWgCYJBk74Ilk7AAGVH6+LkNPb1dnKaXD2kXswjDsiJSDwp/DNy7M1XVEHNoWRN/Kxuaj6G4RAXjsjQAYAHybgVgAKrmOiIOc82XtQmAKDMQCYRAWdibTArMn0wLApMnYAT8gYwewB+Xc4ah2HSP3IiKuUkoHlevYmmHYkSnfuAfRHSAC8/E+57ywLYgh5ZxPogvxa1ADEd3Pgl9zzme1CwGA1hmIBWCPVtEFKpwVQs82BmLvK5cC7J9BWOiJTAvMlkwLALMhYwc8ImMHsGc556uQ09rVi4i4TCm9rF3INgzDjlDZLrQI24VgDlYRcVwOUGBwJcS/CIEvmLvb6DY3X9UuBADGwkAsAHuwflcTqICBlAGew+i+34B5eG8QFvol0wKzItMCwCzJ2AGFjB1AJeV57KJ2HSP3KiLOaxexDcOwI1YOEn8P24Vgqm4jYlE+qGFvNgJfNjbDPF1E9/lzV7sQABgbA7EADGQVEe9yzofe1WB45TarRRiIhTkwvAMDkmmByZNpAWDWZOxg9mTsACoriy49i+3mt5TS6JZxG4YduZzzZdhQDVO0fkm6qV0I87Sxsfld7VqAvTrOOS9L6BMA2IKBWAB6dh3dVvHT2oXAnGwMxH6sXAownGPDOzA8mRaYLJkWAAgZO5gxGTuAdhyFs8dd/ZFSWtYu4jkMw05Azvku53wYEe9r1wLsbBVekmhICVr+GjY2w9TdR8TPwl8A0I/ymermEwB2sYqINzlnW8WhkhJmPIou6A9MxyqchcJeybTApMi0AMBXyNjBbMjYATSmnE8sw3PYrj6klA5rF/FUhmEnJOd8El6mYMxuo7vl4bx2IbAp53wVEQfR3UQCTM/H6D5/bG4GgB6Vm08W4ZwGgOf7GBEHOeez2oUAETnnZUQc164D6MVtuMUOqpFpgdGTaQGA75Cxg8mTsQNoVPnZfFS7jgm4Sikd1C7iKQzDTszGy9THupUAz/Qu53zolgdaVW5BWETEu9q1AL1Z3zJ0ZHMzAAyjHLYuQsgTgKe5j4hfvadBe0rg//fwXAdjdh0GYaE6mRYYLZkWAHgCGTuYJBk7gBEo546W2+7mRURcppRe1i7kRwzDTlB5mTqK7htZUx7atg64ndYuBJ6ifK3+Gt3XLjBe6xsQ3DIEAAMzEAvAE6yiCxYflCYd0KCc82V0z3W3lUsBnu99znkhsAhtkGmBUZFpAYAtyNjBZMjYAYxIWW57UbuOkXsVEZe1i/gRw7ATVr6RD6Pbcgu0531EHAq4MTbla/YwbGyGsXpfNje7AQEA9sRALADfcRHdGeFp7UKAH9t4rnM2CuOwiojjnPNJ7UKAL8m0QPNkWgBgBzJ2MHoydgAjlHNehvPGXf2SUmp6EYRh2InLOd/lnBcR8SYELqEVq4j4Ped8YgM1Y7Wxsfn38PkCY7He3Cz4BQAVGIgF4JHr6N7Rljnnu9rFAE+3cTb6rnYtwHfdR3dzx3ntQoBvk2mBJsm0AEBPZOxglGTsAMbvKLrbvdnOKiLOaxfxPYZhZyLnfBY2akILLiLiIOfc/NXh8BTla/kgbLCD1n0Mm5sBoDoDsQBEF6L4Pee88I4G41ZudP41PNtBi9bnoW7ugJGQaYFmyLQAwABk7GA0ZOwAJqAs91qGHt42bqM7G2q6v2IYdkY2Nmoeh29q2Lf1pqClzZlMzcYGOxuboT3rzc1HPn8AoA0GYgFmaxURxzlnoWKYkBKKOgiDO9CSN85DYZxkWqAqmRYAGJiMHTRNxg5gYko+66h2HSNzERGLMXwWGoadoZzzeXSN+Yu6lcBsvA+bgpiBjY3NNthBG2xuBoBGGYgFmJVVRLyL7v3svHItwABKkHERXZARqOc2In4uvQpgxGRaYO9kWgBgj2TsoDkydgATVc46jmvXMRLvx7QkzTDsTJXG/DIifo1uux/Qv3XT/WQsHwqwq7Kx+Sgifg/BfqjF5mYAGAEDsQCTtzkEe+r9DKavBBl/jq43AOzX++i2ld/ULgToh0wL7IVMCwBUImMHTZCxA5iBsnjP0r3vO845n9Qu4jkMw85czvkq53wQXSjHCxX0YxURb3LOh5ruzFXZknUQHh5h396Fzc0AMBobA7EGJgCmwxAszFjO+SbnfBjdYB4wvHVo0RAPTJRMCwxCpgUAGiFjB9XI2AHMSFm6d127jgatouuxnNcu5LkMwxIRETnn04g4DC9UsKuL6IJuZ7ULgdoebWwW7odhXUe3uVnQGgBGxkAswGQYggX+VbYnu8kOhvU+hBZhNmRaoDcyLQDQGBk72CsZO4D5OgrPWptuI2Ix1h6LYVj+lXO+80IFW1u/IC29IMHnysbmw7CxGYawiojjnPPC5mYAGK/yHrkI5zEAY3Qf3XvZS+EJYFNpHrslFvrnNliYKZkW2IlMCwA0TsYOBiVjBzBz5TzkKDxnRTwMwo72M9EwLF/YeKE6Dhur4UfWYbdRfxjAPpSNzQdhYzP05X10m5vPaxcCAOzOQCzA6FxHdy7ovQz4pnKzx0lE/Bye86APboMFZFrgeWRaAGBkZOygdzJ2AEREt2wvumzWnF3knA/HvizNMCzfVB76bBmCr1tFxDthN3ieEv5aRrex+bpyOTBW1xHxHzcfAMD0GIgFGIWL6G6jWzgXBJ4q53zjZg/YyW24DRZ4RKYFvkumBQBGTMYOeiFjB8AXyrKw49p1VPKuPGOOnmFYvqu8UJ1Gt2XoXd1qoBnvotsSdFq7EBirsrF5ETY2w3Pcx0Pg+q52MQDAMAzEAjRpFd2Z4H9yzku30QHbKn2Fw4j4WLkUGItVRLwpW8qvahcDtEemBb5KpgUAJkLGDrYiYwfAd5XFYe9r17FHq4g4ntJZkWFYnmSjgfCf6DbfwxxdRBd4O7UlCPphYzM8yfol5EDgCwDmwUAsQDOuo3sfe1nOBO9qFwSMX875Lud8FN3NHp734NsuohvkOatdCNA+mRaICJkWAJgsGTt4Ehk7AJ4s53wS81heu4qIRXmenAzDsDxLadAvQwOBeVk3DJYCb9A/G5vhm9Y3Dx1M7SUEAPgxA7EA1dxHtwX2P2Vr+HnleoCJKjd7HEZ3s4cQIzy4joe+nEEe4FlkWpgpmRYAmAEZO/gmGTsAtrWMaeeybiPiMOd8U7uQvhmGZSsaCMyEhgHskY3N8K/NAzqbmwFgxgzEAuzVx4j4vWwMP3EeCOxLCWgdhJs94Doifi3LKO5qFwOMm0wLMyHTAgAzJGMH/5KxA2An5bPjKKbZn7uO7kbYu9qFDMEwLDv5SgNhij8EmB8NA6hIc5qZuwgHdADABgOxAIO6je5Gxv/LOR/lnC9rFwTM01du9tBvY07uI+K4DMFe1S4GmBaZFiZKpgUAkLFj7mTsAOhFOVtZVC6jbxel5zLZz0jDsPRi46XqIDTpGadVaBhAUxzYMSOPP4Mm+/IBAGxnYyDWczHA7m4j4k1072CHOedz72FAKwzFMjPrIdiDckMywGBkWpgAmRYA4Ktk7JgRGTsABpFzvoluifYUHJdnw0kzDEuvHjXpj6NrYkLLVtE1uw40DKBNDuyYMJ9BAMCTlTOXZXgmBtjG4wHYM+9gQMsMxTJxt2EIFqhEpoUR0k8EAJ5Exo4J80wMwOBKv+J97Tp2sIqI3+fSdzEMyyBKA+E853wQEb9HxHXlkuCx9bbplznnUxuCoH0bB3b/FwJgjNvmAZ3PIADgWQzEAjzZxzAAC4ycoVgm5joifl3fzF67GGDeZFoYAZkWAGArMnZMiIwdAHuVcz6JLmcwNvcRscg5X9YuZF8MwzK4nPNlznkRD9uGvFhR08foGu22TcNIPQqAvQkbmxkPTWsAoBcGYgG+6j66n42/R8T/5ZyPDMACU7E+E805vwy32DE+FxHxc855kXO+ql0MwGMyLTRGpgUA6IWMHSMmYwdATcuIuK1dxDPcRsRhzvmmdiH7ZBiWvdnYNnQQXqzYr1V0V5b/p4TgrirXA/SgHNidlY3Nx2FjM+1a33igaQ0A9MZALEBEdO9bb6IbsDnIOS9LkF0wApisjVvsfo1xbqdmHtY3d/ynfD7PKoQBjJNMCxXJtAAAg5GxY0Rk7ACormQNjmIcC/MuorsRdnb5iJRzrl0DM5ZSWkQ3Of+6biVM1HVEnHspgvlIKR1GxEl0D6EvKpfDvK0i4jwi3EIEO0gpzfGF9brcQgDwJCml89jzuUrOX+MEugAAEA9JREFUOe3zz+NzKaXTiHhbuw6o5DoiriLiSjgYoJNSOoiu13YSzkSpT28OmBSZFgbmcxN2lFK6iohfatdRwa/OxoBdyNjREBk7+IG5PvPKpVBbeV76p3Yd3/E+53xSu4haDMPShJTSy+gaCMuIeFW1GMbuProXo3MvRjBfG58rJxHxU91qmJnbiDiLCDcRQQ8MwwI8zb4HYjUd6jIMy4ysoht8vQnDrwBPklJaRhdi/K1yKcyL0CIweTIt9EimBXo018GAMAwL9ETGjopk7OCJ5vrMK5dCC0rf7UPtOr7ieO7L1QzD0pwyQb8sv2wc4ilWEXEZXbPgqnItQGNsbGYP1p9DZznnm9rFwJQYhgV4un0OxGo61GUYlgm7jm7wdT38ele3HIDx2rgtdhmCjAznY3SBxfPahQDsk0wLW5BpgYHMdTAgDMMCA5CxYw9k7GALc33mlUuhFSmls4j4o3YdxSoiFj5HDcPSuJTSUXQbrL1c8TWa7MCT2djMAK6j29xsQx0MxDAswPPsayBW06Euw7BMwCrKwGtE3EXEjWYNwHDKwM5JdP02Azvs6jYebrNzJgrMnkwLPyDTAgOb62BAGIYFBiRjxwBk7GAHc33mlUuhJSmly4j4rXIZtxGxlK3oGIZlFMrL1bqJUPuHCHV9jG4zkJciYGsbG5uPws0IPM99PIS97uqWAtNnGBbg+fYxEKvpUJdhWEbkNiI+xcPQ6110g6/O9AAq2RjYMRjLc6wHYC+diQJ8nUwLG2RaYI/mOhgQhmGBPZGxYwcydtCTuT7zyqXQknL2dxX1FoXcRncjrLOmwjAso7PRRFiEZv1caBYAgxEA4wlW8XA4Z6MO7JFhWIDtpJROIuLPof77mg51GYalIeth17vHvwQbANrnXJQfMAALsCWZllmSaYFK5joYEIZhgQqcJfEEMnYwgLk+88ql0JqU0kFE3MT+n4Mucs7LPf+ZzTMMy+htvGAtwuahqbiPbnPCZc75snItwIw4tGPDKh6a1j6LoBLDsADbSyktI+LDEP9tTYe6DMMykOtHf39XfkV0A6/r0MInAQaA6UkpLeLhXFSvbb4+xkN/7q5uKQDTIdMySTIt0Ii5DgaEYVigMhk7NsjYwcDm+swrl0KLUkqHEfHPHv/INznnsz3+eaNhGJZJKT9cFtG9YM3uQ3/krqN7IboSqANaoDE9S/fxcDh3VbkWIP4N486NAROgN0MNxGo6AABMV9lsvT4b1Wubtn8HeaLrz7nJDmBgMi2jJtMCAPAVMnazJGMHwGwNeTnBhlVEnOSczwf+c0bLMCyTlVJ6Gd3L1frXq4rl8KXb6BrsV6HBDjSuNKaX4fNkim4j4jw0rgGAiRriENYwLADAfJRA4yKcjU7F+vZX56EAlcm0NE+mBQDgmWTsJk3GDgCKlNJZRPwx0H9+FRELn7ffZxiW2dBIqE6jAJiEcjPCIh422r2oVw1bWEXZ2hzddjqfRwDA5PU9EGsYFgBgnvTaRmcVD725Gzd1ALTN52x1Mi0AAD2SsRs9GTsA+I6U0nlEvO75P3sbEUc557ue/7uTYxiWWUspLaJ7yToML1t9uo+Im/LrSnMdmLKy0W59aPdL3Wr4is3Al810AMBs9TkQaxgWAIC1R722w4j4qWY9M3cdD/25G2ehAOMn0zIYmRYAgD2TsWuejB0APENZbHcV/S20+xgRSwsonsYwLGwom4jWzfpFRByEpv2PfNYkiK657gcwMFua0tU5mAMA+Ia+BmINwwIA8C2l+b/ZZzsIAce+reKhL3cXBl8BZkOmZSsyLQAADZKxq07GDgB2VHpid7H7c8xFznm5c0EzYhgWfmCjaX8YXSNh/fvcGgr30f2gviq/39mOCfBjZavd+tDuMPrbAENn87aDq5zzXd1yAADa1sdArGFYAACeqwzvHER3TrruvR3E/Pptz3Fdfr+K0psLAzwAPCLT8i+ZFgCAEZOxG5yMHQAMoDzDXMX2A7HHOefz3gqaCcOwsIPyg+tldC9fsfH7GDdcr7dIR3Q/jD+Vv/9k4w9Av8pmu82G9Bg/N2rYPJRz2wEAwJZ2HYg1DAsAQJ82BmUf/4qY7tnpemAnouvLRZS+XBh4BaAnMi0AAIyZjN3WZOwAYI+2zGGtImKZc77sv6LpMwwLA9po3kd0L2Ivy19v/vP13/e9lfM2usP/tbt4aKqvmwIRGuoATXh0M8L6r+d4gLduZN/FxvZm2+gAAPq1y0CsYVgAAPZt49a7tcXGXz/+39b/bB83iFx/5Z9dbfz1Zk/OsA4ATZFpAQBgbGTs/iVjBwANSSmdRsTbJ/7r9xFxpGe0PcOwAAAN2wh5fe33fYS5hrAOiP1700F0QbCrahUBAMxQ2aZ8GREvnvN/ZxgWAAAAAAAAaIWMHQBQW0rpPCJe/+Bfu42IheVvuzEMCwAwcimlzU3Ni43/afOfRwyztfk+HrY0R3y+qTni4RYEtx4AADSoPEtexTMGYg3DAgAAAAAAAGMiYwcADKks57iKby/iuIiIE4OwuzMMCwAAAAAz9tyBWMOwAAAAAAAAAAAAD8pA7F18mcF6n3M+2X9F0/Q/tQsAAAAAAOop24UXEbGqXAoAAAAAAAAAAMDolFtfF/F5BuvYIGy/DMMCAAAAwMwZiAUAAAAAAAAAANheyWCdRJfB+jnnfF63oulJOefaNQAAAAAADUgpHUbEVUS8+Na/k3NOeysIAAAAAAAAAAAAws2wAAAAAEDhhlgAAAAAAAAAAABaZBgWAAAAAPiXgVgAAAAAAAAAAABaYxgWAAAAAPiMgVgAAAAAAAAAAABaYhgWAAAAAPiCgVgAAAAAAAAAAABaYRgWAAAAAPiqMhB7GBG3tWsBAAAAAAAAAABgvlLOuXYNAAAAAEDDUkovI+IqIl7lnFPlcgAAAAAAAAAAAJgZN8MCAAAAAN+Vc/4UEYtwQywAAAAAAAAAAAAVuBkWAAAAAAAAAAAAAAAAAIBmuRkWAAAAAAAAAAAAAAAAAIBmGYYFAAAAAAAAAAAAAAAAAKBZhmEBAAAAAAAAAAAAAAAAAGiWYVgAAAAAAAAAAAAAAAAAAJplGBYAAAAAAAAAAAAAAAAAgGYZhgUAAAAAAAAAAAAAAAAAoFmGYQEAAAAAAAAAAAAAAAAAaJZhWAAAAAAAAAAAAAAAAAAAmmUYFgAAAAAAAAAAAAAAAACAZhmGBQAAAAAAAAAAAAAAAACgWYZhAQAAAAAAAAAAAAAAAABolmFYAAAAAAAAAAAAAAAAAACaZRgWAAAAAAAAAAAAAAAAAIBmGYYFAAAAAAAAAAAAAAAAAKBZhmEBAAAAAAAAAAAAAAAAAGiWYVgAAAAAAAAAAAAAAAAAAJplGBYAAAAAAAAAAAAAAAAAgGYZhgUAAAAAAAAAAAAAAAAAoFmGYQEAAAAAAAAAAAAAAAAAaJZhWAAAAAAAAAAAAAAAAAAAmmUYFgAAAAAAAAAAAAAAAACAZhmGBQAAAAAAAAAAAAAAAACgWYZhAQAAAAAAAAAAAAAAAABolmFYAAAAAAAAAAAAAAAAAACaZRgWAAAAAAAAAAAAAAAAAIBmGYYFAAAAAAAAAAAAAAAAAKBZhmEBAAAAAAAAAAAAAAAAAGiWYVgAAAAAAAAAAAAAAAAAAJplGBYAAAAAAAAAAAAAAAAAgGYZhgUAAAAAAAAAAAAAAAAAoFmGYQEAAAAAAAAAAAAAAAAAaJZhWAAAAAAAAAAAAAAAAAAAmmUYFgAAAAAAAAAAAAAAAACAZhmGBQAAAAAAAAAAAAAAAACgWYZhAQAAAAAAAAAAAAAAAABolmFYAAAAAAAAAAAAAAAAAACaZRgWAAAAAAAAAAAAAAAAAIBmGYYFAAAAAAAAAAAAAAAAAKBZhmEBAAAAAAAAAAAAAAAAAGiWYVgAAAAAAAAAAAAAAAAAAJplGBYAAAAAAAAAAAAAAAAAgGYZhgUAAAAAAAAAAAAAAAAAoFmGYQEAAAAAAAAAAAAAAAAAaJZhWAAAAAAAAAAAAAAAAAAAmmUYFgAAAAAAAAAAAAAAAACAZhmGBQAAAAAAAAAAAAAAAACgWYZhAQAAAAAAAAAAAAAAAABolmFYAAAAAAAAAAAAAAAAAACaZRgWAAAAAAAAAAAAAAAAAIBmGYYFAAAAAAAAAAAAAAAAAKBZhmEBAAAAAAAAAAAAAAAAAGiWYVgAAAAAAAAAAAAAAAAAAJplGBYAAAAAAAAAAAAAAAAAgGYZhgUAAAAAAAAAAAAAAAAAoFmGYQEAAAAAAAAAAAAAAAAAaJZhWAAAAAAAAAAAAAAAAAAAmmUYFgAAAAAAAAAAAAAAAACAZhmGBQAAAAAAAAAAAAAAAACgWYZhAQAAAAAAAAAAAAAAAABolmFYAAAAAAAAAAAAAAAAAACaZRgWAAAAAAAAAAAAAAAAAIBmGYYFAAAAAAAAAAAAAAAAAKBZhmEBAAAAAAAAAAAAAAAAAGiWYVgAAAAAAAAAAAAAAAAAAJplGBYAAAAAAAAAAAAAAAAAgGYZhgUAAAAAAAAAAAAAAAAAoFmGYQEAAAAAAAAAAAAAAAAAaJZhWAAAAAAAAAAAAAAAAAAAmmUYFgAAAAAAAAAAAAAAAACAZhmGBQAAAAAAAAAAAAAAAACgWYZhAQAAAAAAAAAAAAAAAABolmFYAAAAAAAAAAAAAAAAAACaZRgWAAAAAAAAAAAAAAAAAIBmGYYFAAAAAAAAAAAAAAAAAKBZhmEBAAAAAAAAAAAAAAAAAGiWYVgAAAAAAAAAAAAAAAAAAJplGBYAAAAAAAAAAAAAAAAAgGYZhgUAAAAAAAAAAAAAAAAAoFmGYQEAAAAAAAAAAAAAAAAAaJZhWAAAAAAAAAAAAAAAAAAAmmUYFgAAAAAAAAAAAAAAAACAZhmGBQAAAAAAAAAAAAAAAACgWYZhAQAAAAAAAAAAAAAAAABolmFYAAAAAAAAAAAAAAAAAACaZRgWAAAAAAAAAAAAAAAAAIBmGYYFAAAAAAAAAAAAAAAAAKBZhmEBAAAAAAAAAAAAAAAAAGiWYdj/374dCwAAAAAM8reexo7yCAAAAAAAAAAAAAAAAACALRkWAAAAAAAAAAAAAAAAAIAtGRYAAAAAAAAAAAAAAAAAgC0ZFgAAAAAAAAAAAAAAAACALRkWAAAAAAAAAAAAAAAAAIAtGRYAAAAAAAAAAAAAAAAAgC0ZFgAAAAAAAAAAAAAAAACALRkWAAAAAAAAAAAAAAAAAIAtGRYAAAAAAAAAAAAAAAAAgC0ZFgAAAAAAAAAAAAAAAACALRkWAAAAAAAAAAAAAAAAAIAtGRYAAAAAAAAAAAAAAAAAgC0ZFgAAAAAAAAAAAAAAAACALRkWAAAAAAAAAAAAAAAAAIAtGRYAAAAAAAAAAAAAAAAAgC0ZFgAAAAAAAAAAAAAAAACALRkWAAAAAAAAAAAAAAAAAIAtGRYAAAAAAAAAAAAAAAAAgK0A2zUf1ilx1WAAAAAASUVORK5CYII=;" parent="2" vertex="1">
                    <mxGeometry x="18.651428571428575" y="69.99818181818182" width="82.69714285714288" height="12.53922077922078" as="geometry"/>
                </mxCell>
                <mxCell id="8" value="" style="group" parent="1" vertex="1" connectable="0">
                    <mxGeometry x="500" y="130" width="185" height="103" as="geometry"/>
                </mxCell>
                <mxCell id="6" value="" style="rounded=1;whiteSpace=wrap;html=1;fontSize=21;" parent="8" vertex="1">
                    <mxGeometry width="185" height="103" as="geometry"/>
                </mxCell>
                <mxCell id="7" value="" style="shape=image;verticalLabelPosition=bottom;labelBackgroundColor=default;verticalAlign=top;aspect=fixed;imageAspect=0;image=data:image/png,iVBORw0KGgoAAAANSUhEUgAADA4AAAHaCAYAAAA6iuqbAAAACXBIWXMAAC4jAAAuIwF4pT92AAAgAElEQVR4nOzd63VUV7Y24Dl79H/xRSA5AtQRSB0BdARSR4A6ArYjaDkCyhFYRGARQYsILCI4KIL1/aglIzAXXapq7svzjKGBm2PQe4xQ1V5rvWtmay0AAAAAAAAAAAAAAIB5+lt1AAAAAAAAAAAAAAAAYHsUBwAAAAAAAAAAAAAAYMYUBwAAAAAAAAAAAAAAYMYUBwAAAAAAAAAAAAAAYMYUBwAAAAAAAAAAAAAAYMYUBwAAAAAAAAAAAAAAYMYUBwAAAAAAAAAAAAAAYMYUBwAAAAAAAAAAAAAAYMYUBwAAAAAAAAAAAAAAYMYUBwAAAAAAAAAAAAAAYMYUBwAAAAAAAAAAAAAAYMYUBwAAAAAAAAAAAAAAYMYUBwAAAAAAAAAAAAAAYMYUBwAAAAAAAAAAAAAAYMYUBwAAAAAAAAAAAAAAYMYUBwAAAAAAAAAAAAAAYMYUBwAAAAAAAAAAAAAAYMYUBwAAAAAAAAAAAAAAYMYUBwAAAAAAAAAAAAAAYMYUBwAAAAAAAAAAAAAAYMYUBwAAAAAAAAAAAAAAYMYUBwAAAAAAAAAAAAAAYMYUBwAAAAAAAAAAAAAAYMYUBwAAAAAAAAAAAAAAYMYUBwAAAAAAAAAAAAAAYMYUBwAAAAAAAAAAAAAAYMYUBwAAAAAAAAAAAAAAYMYUBwAAAAAAAAAAAAAAYMYUBwAAAAAAAAAAAAAAYMYUBwAAAAAAAAAAAAAAYMYUBwAAAAAAAAAAAAAAYMYUBwAAAAAAAAAAAAAAYMYUBwAAAAAAAAAAAAAAYMYUBwAAAAAAAAAAAAAAYMYUBwAAAAAAAAAAAAAAYMYUBwAAAAAAAAAAAAAAYMYUBwAAAAAAAAAAAAAAYMYUBwAAAAAAAAAAAAAAYMYUBwAAAAAAAAAAAAAAYMYUBwAAAAAAAAAAAAAAYMYUBwAAAAAAAAAAAAAAYMYUBwAAAAAAAAAAAAAAYMYUBwAAAAAAAAAAAAAAYMYUBwAAAAAAAAAAAAAAYMYUBwAAAAAAAAAAAAAAYMYUBwAAAAAAAAAAAAAAYMYUBwAAAAAAAAAAAAAAYMYUBwAAAAAAAAAAAAAAYMYUBwAAAAAAAAAAAAAAYMYUBwAAAAAAAAAAAAAAYMYUBwAAAAAAAAAAAAAAYMYUBwAAAAAAAAAAAAAAYMYUBwAAAAAAAAAAAAAAYMYUBwAAAAAAAAAAAAAAYMYUBwAAAAAAAAAAAAAAYMYUBwAAAAAAAAAAAAAAYMb+Xh0AAAAAAACYj8w8iIiD2hQbc91au64OAQAAAACPMaa1utbaZXUGWLpsrVVnAAAAAAAAdiAzDyPi2Z2fOoi/bhx++e/cehYRz7cSbPpuIuLqG/+3y6/83FVEfLzzvxUUAAAAABYkM5/Feh3urq+ty31rre4gIvY3n2wU3n3j579cU/vaz1lng+9QHAAAAAAAgAn64rawuxuId//5IOa7gThn7+PThud1/4j+c7cFBZugAAAAACPwRQngW/8cEXG0y1xExOfrbHfX1j7759baty4FgVlRHAAAAAAAgJG5Mxng9seD+FQSsMHIl243QO9ueF72H69aa1/exAYAAADAPWTmcf9H63TL8LV1ttupBi7yYPIUBwAAAGBhvjH6FIAfc/iWjbkzLeDLgoDNRrblQ3yaXnD3w/c2AAAAYJHu7Jl97cfnhdEYt9t1tttywfXth2IBY6c4AAAAAAvTb0b5vToHwAT9s7V2WR2Caemvuwf94zhsOjJe7+KLzU7f8wAAAICpu1MOuC0EHIc1OrbrdmrBZdxZb1MqYAz+vu1P4DACj/S2tfayOgTMXWauIuKkOgfj1VrL6gwAAAAwBV8pCBxGxF5ZIHi422kXL25/IjMjIm5ivbl5Wyi4ClMKuCMz3VIGMCP2hgCAqboz4fM4Pq3Tme5JhdtSymdff32t7e7lHbeFgqudpmPRtl4cgEd6kZnHbjOC7emb2UoDAAAAAA9w54ay4/7jQbidjHnbi/Um55cbnbcj2S/DJicAAACwIwoCTNy3Lu94H58u7rgMEwrYkmxtu5eAmDjAE3xorR1Uh4C5ysyrsKnND7hVhjnIzMOIMMmITblura2qQ8BTeVYHeLR/uuhiWb5SEjiMiP3KTDAB7+LTjWlXygTzZ+IAwLzYGwIAxqTv999e3nEcpnyyLLeTQC+jTwK11sZTmTjAmO1n5tBaG6qDwNxk5lkoDQDLcR5uF2CDMvNSsx8AYJ7ubEQe9x+tn8DDfTad4M4I9ttNzivPVAAAAMCX7qzN3X7Y52fp/jIJ9Iu1tquIcH6BBzFxgLG7iYhD39hgc/q4rqvQvuUe3CrD1GXmaUS8qc7B7PzaWjutDgFP4Vkd4NFMHJiZ/pp4HJ/KAtZLYDc+xKciwaWb0qbNxAGAeanYG+r7l6e7/rzAVnyM9Xv9r7lqrX3cZRhgvPqkz+P4/BIPa3PwOHcnE1yG11y+Q3GAKXjXWjuuDgFzkZkXEfGiOgfToDjA1GXmdUTsV+dglv7hYAtT5lkd4NEUByau31r2MtabkW4sg3F5F5+KBJe1UXgIxQGAeSkqDhyHtSpYottDjreu+8eX/+zwI8zAF5M+j8M+Pmzb++glgjCVgDsUB5iKf7XWLqpDwNT5nsxDKQ4wZaYNsGXKrUya94UAj6Y4MDH95tLj+FQWcGsZTMe7iLgIEwlGT3EAYF4UB4ARu1s0uOw/XkXER+s1MD69KHB858O6HNT6EJ8mEigSLJjiAFPxISIONYjhady8zUMpDjBVfazhdVh8YLscHGSyPKsDPJrX/wnom5Knsd6QfF4aBtiUm+glgoi4sFcwLooDAPOiOABM3LuI+BjrQoFSAezQnQs8jmN9iYe9ehi32yLB7cUd1tsW4u/VAeCe9iPiLCKG4hwwWZk5hNIAsBxnYSGC7RtivfAFAECxzHwZ6w1Jm5IwT3sRcdI/3mTm+4hYhWkEAADA5476jy9ufyIzI9aHI6/ufrhpGZ6ur8kdx3pNzpkkmJb9+LTeFn297SLWl3ZYb5sxEweYmp+8cYeH663eq7BxzgOZOMAUmTbAjv2rtXZRHQIeyrM6wKOZODAiygJA9yHWm5orm5o1TBwAmBcTB4AFuYn1OYrLUCaAe+nnj27LAi++9+8Ck3Y7/dM0ghlSHGBq3rXWjqtDwNRk5kV4w84jKA4wRX3CyuvqHCzGh9baQXUIeCjP6gCPpjhQLDMPYz1hTFkA+BolggKKAwDzojgALNztZILLMOEMIuLP9bjbyzueF8cBaryNTyWC6+IsPJHiAFPkVld4gH773m/VOZgmxQGmpt9w8EdxDJbn3621VXUIeAjP6gCPpjhQ4M5NZmdh5Dlwfx8iYhXrEsF1bZR5UxwAmBfFAYDP3MS6ROCwJIvSywKnsV6Tsx4H3PU+1mtuF14Xp0lxgCn6EBGHxp/Aj2Xms1i34b2J51EUB5iazFxFxEl1DhbH+1Mmx7M6wKMpDuxQf706C1MUgad7F+sCwao6yBwpDgDMi+IAwHfdTjm7dOkpc9Mv77id9OmcEXAf7yPiPNYlAuclJuJv1QHgEfZj/SYF+DE38QGL0RcylAao4P0pAMAGZeZpZl7H+uCQ0gCwCUcR8SYzP2bmeV9DAAAAeKj9iHgVEb/154tVX8d4Vh0MHiMzn2XmWWZeRcQfsf76ds4IuK/nEfEmIv4vMy8y82V1IH7MxAGm7B+ttavqEDBWffPrj+IYTJyJA0xJZl7G+iAAVLiJiAMteqbCszrAo5k4sCV9g/2sf+wVxwGW4W1EnPu+/nQmDgDMi4kDAI/2NtY3Lq+qg8CP9MO9p+HSDmDzbiJiFevpn873jpCJA0zZeXUAGLlVdQCAXembCkoDVNoLUwcAAB6s32o2RMR1RLwOpQFgd15ExO+ZeZ2Zp9VhAACAyXsRnyadrfr+JYxGZh5k5tAnff4WSgPAduzFenrJ/zLzymSe8VEcYMqOLObD1/VmsAO0wJIM1QEgIl73iT8AAPyAwgAwIvuxPtxzbSMTAADYgL2IOIlPReUzzxlUyszjzLyIiD9ivQ63XxwJWI7nEfEmIq4z89x5inFQHGDqzr25hs/1vxMmcgCLoSzFyAzVAQAAxkxhABix/fi0kTnYewAAADZgPyL+GxH/16cQHFYHYhn6Gtxpny7we5guANS6nULwR2Ze9nM+FFEcYOr2wuEs+NIQ2sHAsihLMSYnWvIAAF/Xp4deh8IAMG57sf4+dW3qMQAAsEEnEfG/fmDyuDoM85SZB3cu7XgTzg8B43MUEb/dTv+sDrNEigPMwSuNXFjrfxdeVecA2JX+EGGxg7FZVQcAABiTPg79OtablQoDwFTsRcQbm5gAAMCGHUXE75412KReGFhFxB/h0g5gGvZjvfb20fTP3VIcYC7cNAxr/i4Ai9EfGobqHPAVR26KAQD4c8PyItbj0BV+gam63cR0KygAALBJt88aCgQ8Wr+w4yLWhYGT6jwAj3B3+qcCwQ4oDjAXR95Es3T978BRdQ6AHToLh48Yr6E6AABApcw8i4iriHhRnQVgQ25vBV1l5kFxFgAAYD6UlXmwXhi4jPWFHdbfgDm4LRD8n/W37VIcYE7OtY1Yqv61b9oAsBj9+95ZdQ74DlMHAIBF6lMGLiPiv2EkOjBPJxFx1QtSAAAAm3JbVr5wWJJv+aIw4HJRYK5OIuKPzHQmeAsUB5iTvXCzK8s1hM14YFnOwvc9xm9VHQAAYJfuTBmwaQnM3V5E/DczrzLzsDoMAAAwKy9ifVhyqA7CePTLOi5CYQBYllcRcZ2ZgwLB5igOMDev3OzK0vSNqVfVOQB2pd+w8bo4BtzHfmaeVocAANi2zHxmygCwUM8j4n8O9AAAAFvwOjOvnYNatl4YWEXEH7EulQAszV6szwhdW4PbDMUB5ui8OgDs2Ko6AMCODdUB4AGG6gAAANvUN6+vw01nwLK9Nn0AAADYgv2I+D0zz920vCz9oo4h1tM9T4rjAIzBXnwq1Z1Wh5kyxQHm6Hkfiw6z17/Wn1fnANiVPm3AwghTsq/1DgDMVX+f83uYMgAQ8Wn6gP0JAABg015FhLLyQvQDsVexvmHbuhvA5/Yj4k1mXnpdfBzFAeZq0LRl7vrX+FCdA2DHTBZiis68NwUA5qTfeLaK9eYlAJ/7b2ZeeA4EAAA2bD+UlWctMw8z8zIi3sT6zxuAbzuK9eviyjrcwygOMFd74WAh83cemsXAgmTmcUS8qM4Bj7AXERZxAYBZ6Avwl2ESGMD3vAi3gQIAANuhrDwz/ZKO84j4X6wPwgJwfycRcd2ntXAPigPM2Uk/YAiz07+2bdADSzNUB4AnOMvMg+oQAABP0Q/AXkfE8+IoAFNwexvoaXUQAABgdl5ExKWy8vRl5stYr7e9Ko4CMGV7EfEmM7023oPiAHNn6gBz5WsbWJRemHK7AlO2F8ovAMCE9cX2yzD9EOCh3mTmqjoEAAAwO89DeWCy+pSBi4j4Lay3AWzKUawv8hiqg4yZ4gBz9zwzz6pDwCb1FzY3+wFLs6oOABtwYuoAADBF/bbs/4VNTIDHOuk3nj2rDgIAAMzKXqzLA6fVQbi/O1MGXhRHAZir15l5pVz3dYoDLMFgMZ656IcNlWGARekLXfvVOWBDTA0CACalvx9/U50DYAaOYn2gx34FAACwSXuxnnR2Wh2E7zNlAGCnnofpA1+lOMAS7IUDWszHeXh4AJZnqA4AG/QiM4+rQwAA3IfSAMDGPY8It50BAADboDwwYqYMAJS5nT5wUB1kLBQHWIoTB7SYuv417AECWJTe/DVtgLkZqgMAAPxIX4dQGgDYvP1YTx5QHgAAADZNeWBk+pSB8zBlAKDS7WUep9VBxkBxgCVZVQeAJ1pVBwDYpcx8FhFn1TlgC46UWgGAMeuHWS+qcwDM2F4oDwAAANuhPDAS/ZnvMiJeFUcBYL0e9yYzV/080mIpDrAk+/3WYpgcN24DC3UWbl1gvlbVAQAAvubOhqb34gDbpTwAAABsyxvPGrV6eeMy1rdcAzAeJ7HwNTnFAZbmLDMPqkPAQ/SvWTduA4viex8LsO+2FwBgbPotOxehNACwK8oDAADAtnjWKJCZzzJzFRFvwhobwFg9j/Xr5Gl1kAqKAyzNXkScV4eAB1qFhwlgeYbwvY/5G6oDAADc6qWByzDxEGDXbssDix6RDgAAbNxeRKw8a+xOvxzvMta3WQMwbnuxntCzuNdKxQGW6EVmHleHgPvIzJcRcVSdA2CX+oKKxRSWYD8zTdYAAMbiPIxOB6iiPAAAAGzD81hfVsmW9fM9V2F9DWBqTmK9LndQnGNnFAdYqlV1APiRvklkQgawREN1ANihwcEQAKBaLzMq7wLUuh2R7hkRAADYpBcustqu/t/3t1iXwgGYnucRcbWUC8kVB1iq/cwcqkPAD5xFxH51CIBd6m/CHVhiSfZi/ZoPAFAiMw8j4r/VOQCIiPUmpctkAACATftvXwNigzLzWWauwtoawBzsRcTvmXlaHWTbFAdYsrMljRdhWvrX5uviGAAVhuoAUODMjZIAQIX+HuSiOgcAnznJTOUBAABg01bVAeakr6tdhkvxAObmTS+FzZbiAEu2F27uYbxW1QEAdq1PGziqzgEFvC8FAKqswrRDgDF6tYTbzQAAgJ16nplDdYg56NMbrmM9NQ6A+TnJzIu5XgCpOMDSvcjMl9Uh4K7+NengLLBEDk6zZCemYQEAu9TXH15U5wDgm877YRQAAIBNeW0/6mn6ZXiXsb4YDID5ehERl3MsDygOwHrxfXZ/uZmm/rW4qs4BsGv9Fj03MrB0Q3UAAGAZrD8ATMJeRKzsXwAAABu2qg4wVX1P+/dQGgBYiucRcTW3yz0UB2A9jv2sOgR0Q3jAAJZpqA4AI3DSbykBANi2VVh/AJiC52FCIwAAsFlH9qMerpcG3lTnAGDn9mM9eWA25QHFAVgzioty/cXlVXUOgF3LzLNYv9EGlGgAgC3rG8MvqnMAcG8n/YAKAADApigoP0BmnofSAMCS7cWMygOKA/DJqjoAi+fBDFiczHwWDkrDXW55AQC2zfoDwPScu/wIAADYoOcKyveTmatwCSgA6/LA/+bw+qk4AJ8cZebL6hAsU39BOarOAVDgLNZvroFPHOYDALairz88r84BwIPthcuPAACAzRqqA4xdLw2cVOcAYFTeTL08oDgAnzvvNx/DzvSvOQcEgcXp3//OqnPACLnlBQDYlqE6AACPduRZEQAA2KB9U7C/TWkAgO+YdHlAcQA+tx8OMLJ7Q7htG1im8/D9D75lqA4AAMxLX8Ter84BwJO4/AgAANikoTrAGCkNAHAPky0PKA7AX73OzIPqECxDb2+/qs4BsGv9tdZiC3zbfmYqtAIAmzRUBwDgyfbC93MAAGBzjpyR+pzSAAAP8CYzX1aHeCjFAfi6VXUAFuO8OgBAkaE6AEzA4CZJAGATTBsAmJVXDvYAAAAb5CKrLjOHUBoA4GFWmXlYHeIhFAfg646mOkaE6ei3CD+vzgGwa33aigUX+LG9sFgLAGzGaXUAADZqVR0AAACYjdPqAGPQz4m9rs4BwOTsRcTllMoDigPwbedueGVb+tfWUJ0DoMhQHQAm5Mx7UgDgKfqt1EfFMQDYrKN+MQMAAMBT7WXmy+oQlXpp4E11DgAm67Y8MImzHX+vDgAjthfrg41ueWUbzmP9NQawKH1T26EluD/vSQGApzqtDsBsvfvif19FxMcvfu5j//n7uGqtffnrN65v3vzo9qfjL/73YUTcbvocRMT+ZlPBowzx169VAACAx3gZERfVISr0G6LPq3MAMHm35YHjXaxzP0W21rb7CdaHw37f6ieB7fpHa+2+m1vwQ74vMiWttazOwLxk5mUoDsBj/NRau64OwXx4TwrwaP9srV1Wh3iIzLwOh5y5v/exPux/3T8iIi77jx+tk37uzo3vB1/58PeOXRjFs2JmbnezEYCdqtgbslYFUO6mtTaJW5I3qV8ucB0u/gRgc9621kY9ycfEAfix83BrD5u1qg4AUKGPeFQagMcZwm3BAMADZeZBOLzMX72P9ab4VXwqCOzktv+5+VGRqN9a+CzW68u3kw4Ow4EENmcIz4oAAMDT7WXm4ZIuDOilgcvwjA7AZr3IzPPW2ll1kG9RHIAfO8rM09baqjoI05eZQ9iwB5ZrqA4AE3bSHy4Xs2ALAGzEqG+1YetuYl0OuOw/Xns/uVt3/ntffvl/67fqHvSP41Ao4HFOMvNM8QcAANiAl7FeP1iK84h4Xh0CgFl6lZmXrbWL6iBfozgA93OemRcW33mKfsvfaJtkANvUpw0oTsHTmIQFADyU4sCyvI9PJYHL1tp1aRq+62vTCvpth4fxqUhwGJ6l+bGXYcotAADwdMfVAXal712fVOcAYNZWfZrPdXWQL2VrbbufYH1rzu9b/SSwG7+MeXwI45eZFxHxojoHPERrLaszMH394MN1uDkRNuGfXztgBA/lWR3g0Sb1WpyZ2138pdq7WBcFLqf0dcnD9Gfq4/hUKDiqzMMovW+tHVYG8HoDMC8Ve0PWqgDGYQnnAzLzMNbrKfauAdi28nW7r/lbdQCYkFf9zSM8WF/sUhoAluosLLzApgzVAQCAaehrEczLh4j4JSL+1VrL1tpxa21QGpi31trH1tpF/7M+7oc4/hkRP8e6PALP+7RbAACAJ5n7elIv56/C3jUAu/E8M8+rQ3xJcQAeZlUdgMlaVQcAqNAXX0zsgc056uNTAQB+5Lg6ABvxPiL+ExE/tdYOWmtnrbWL6lDUaq1d3hYJIuL/RcS/IuLXiLgpDUall9UBAACAWTiuDrBlQ0Q8rw4BwKK8ysxRrd0pDsDDPM9Mhx95kMwcImK/OgdAkSHc2ACbNlQHAAAm4bg6AI92O1ngp9baYWvtvLV2XZyJkbozkeC0tfYsPpUIWJbT6gAAAMAsHFYH2JY+TeFVdQ4AFmnVL14dhWytbfcTrF90f9/qJ4HduomIg9bax+ogjF8fEf1HcQx4tNZaVmdgunwPhK36d2ttVR2C6fKsPiq/hgllMCVXU1kTysyPocQ7Ne8iYuV9HpvQN6Jexrp47FKTZfipqmSUmdvdbARgpyr2hqxVAYzG+9ba7MoD/Rn5OqyVwfuI+Nb69uUTf++D/vE1h+HvH7xtrY1i8sDfqwPABO1FxHm4wYf7WVUHACg0VAeAGTvPzIupHFwEvuu6tXZZHQKYl17itREzHe8j4szrAZvUnxVWsb7N6jjWz+hHhZHYvuOwHg0AADzN8+oAW7IKa2XMx01EXPV/vu4fEetCwNWdf+96rFNMe5nnbknpMCJub2M/iE8FBIUD5uRFZr5srV1UB1EcgMc5ycyVzTy+JzNfhs04YKEy8zAiTqpzLNC/4ts3BGzbKtxiuUt7EXEWCjoAwNfN7ma4Gfu5tTZUh2De+jr2sQLB7B2H4gAAAPBEmXnYWrv68b85Df1Z+EV1Drin21LAxy9+jJjQNNwf6f9/XN75qcuv/5trd4oGdwsHx/1/z7XwxDytMvOg+u+y4gA83nnYhOUb+huW8+ocAIV8D9y9XyubyZk5RMSbqs+/UGeZeV79UAkAjJI1q2n4d2ttVR2C5bhTIHgZ6+d25e95Oa4OAAAAzMKzH/8r09DP7qyqc8AXbssBt8WAy4j4OKfCzqZ9UTT4y5mIO8WCg/5x3H+09sXY7MX6dellZQjFAXi855l51lpzMJKvOQtvPoCF6rc2uL1w94bKT95aW/XygNe/3TF1AAD4FsWB8VMaoExr7SIzL2P9LPGqNg0btN9vLLve9SdureWuPyfT0deLXlfn4BN/Z2Hx3kfd5GKmx03Oy3QYP7j9e0Kc3aHS3YLAdawnBlxWBpqrr0ww+FM/v3IQ6+9ttx97O4oGX/MiM48rvx8oDsDTDJm5cssrd2XmQVgEB5ZtqA6wQL9WHAz4iiFMHdi11/396HV1EABgVGZzM9xMvVUaoFpf0z7LzItY33LlIMU8HIfbNAGA7ztzaJHH6ocvIz7d6nwYLhObo1msKzm7Q4F3sT68fhXrksB1aRoi4s8JnJ/p3x8OY72O4rWMCqtYv5cqoTgAT7MX65HOp8U5GJdVdQCAKpl5Gh6qKgzVASL+nDpwGr4Gdm0I70cBgM95PzZeN7G+7Q5GobV2mZmHsV7TfFEch6czcQYAgK25c/jy8u7P92eK4zsfbnKetoPqABuyqg7ArH2ITyWBy9baVW0cHqKXOq4j4uL257yWsWP7mTm01oaKT/63ik8KM3Nyp1XNwjksCTCOA+wLM5ZpA7eG6gALdNJvRQAAYPwuRvb+HaK19rG19jIifqnOwpMpDgAAsHOttavW2nlr7WVr7VlE/Csifq3OxaMdVAd4qn6Oy9kdNulDrL+v/TsifmqtHbTWTvv3PqWBGfjKa9lPsf7z/jXWf/6waWdV5zwUB2AzVtUBqJeZz2I9gQJgkXp5ar86xwIN1QHu6rfNvKvOsUCr6gAAwDi44GL0huoA8C2ttbNYb4gyXQ7GAABQrrV20Vo7jYj/FxE/x3r6HuzSqjoAs/AuIv4TEf+4UxRYuRRkGVpr1/3P+7S1dhAR/4j118Pb2mTMyF4U7RcoDsBm7GfmUB2CckMYUwQsVC9PDdU5FujnkS5MDNUBFujIIUEAgNF7P9L37/Cn1toqlAcmzUQ6AADGok83G2J9g70CATvhsjue4CY+TRX4f621YxMFuPXFRIKMT9N1TCPgKU4qznkoDsDmlI0OoV5mHkbEq+ocAIXOwgLMrt3ESCfdmDpQZqgOAACMwkF1AL7psjoA3IfywOQdVAcAAIC7vigQuKl5/A6qAzxWv+xulPunjNZtWeBfrbVnd6YKfKwOxrjdTte5M43gl1Ai4HGGXX9CxQHYnL3w5nPJ/NkDi9UXYM6qcyzQ+QbEz88AACAASURBVMgXLIbqAAt0lJkvq0MAAOUOqgPwTZfVAeC+enngP9U5eJTD6gAAAPA1vUDwMtZFZdMHxmvKl8Wdxfr8FvzI24j4952ywEV1IKarTyM4UyLgkY52PXVAcQA260XF6BBq9TFnR9U5AApZgNm90U4buGXqQJlRf10AACzcdXUAeIjW2nmsb91jWp5VBwAAgO/pReXjUB5gg1x2xz18iPUlCT+11l7270WwUV+UCP4Z67U1r3f8yLDLT6Y4AJu3qg7A7hhzBixdZh5ExOviGEs09mkDt06rAyzQfi81AgAwMq21q+oM8FCttdNY38LHdBxUBwAAgB/pz8jH4TAlm+OyO77lbUT8s7V20Fo7b61dVwdiGVprl31t7SDW03belwZizI4y8+WuPpniAGzefmYO1SHYmfPw4AEs21AdYIFGP23gVl90cTvl7g293AgALNNhdQBgdk7DePUpOagOAAAA96E8wKaYNsBX3ETEL/FpusBlcR4WrLX2sbW2aq0dxqcpBPClYVefSHEAtuOs38DMjGXmcUScVOcAqNJf63wf3L2pTBu4NVQHWKD9sDgKAEumQAhsVH8G3dmNVwAAwHIoD7AhL8Oln6zdRMTPEXHQWjszXYCxuTOF4KdYl1u8/nHreT+PunWKA7AdezGRm4B5En/GwNKtqgMs0IfW2lAd4iFMHShzZuoAAACwKf0wz8/VObgXk2cAAJiU/rzhQiSeYqgOQLm7hYFhYhfxsUCttevW2lmsJ0f+HAoErA27+CSKA7A9LzLTLUwzlZlnEfG8OgdAld5yParOsUBDdYBHGqoDLNBeWGQHAAA26zxsYk6BWzYBAJic1toqXETFI2TmaayncbNMCgNMWmvtY7888iDWEwhYtqNdTB1QHIDtOnfT6/z0P9OhOgdAsaE6wAJ96Iumk2PqQJnXmXlQHQIAAJiHvvm+qs4BAADM1lkoK/Nwp9UBKPNLKAwwE71AcBYRP0XE2+o8lDrd9idQHIDt2g83vc7RKtzaBCxYn6hj2sDuDdUBnmioDrBQQ3UAAADWdnFTEOzAeXUAAABgnvrBX2dsuLfMPAz71kv0LiJ+aq2dKQwwN62169bay4j4Z0R8qM5DiZNtXxCpOADb56bXGekbvC+qcwAUc0hg9yY7beBWnzrwc3WOBdr6QyUAAPd2WB0Anqo/272vzgEAAMxT3w9zUJL7UjRZlpuI+Fdr7bivT8BstdYuW2sH4YzFUm319U1xAHZjVR2AjVlVBwColJmnsZ6ow24N1QE25DyMmK2g7AMAMA7H1QFgQ1bVAQAAgFkbqgMs3CSKG5n5LCJeVudgZ36NiIPW2kV1ENil1toQET/FetIGy3G6zd9ccQB24ygzvVmduMwcwmFZgKE6wAJNftrArT4q0iH23XvRpyYBAFDruG9qw9RdVgcAAABm7SJcRFXpujrAPb2MiL3qEGzd7ZSB077XDIvTWrturR2H6QNLstcvdt0KxQHYnXMbg9OVmQdhxBmwcApUZU6rA2yYqQM1huoAAADEXrgJjxlorV2F5zoAAGBL+uFgt4rzI6fVAdi6t2HKAPypTx/4R0S8L47Cbpxu6zdWHIDd2Q8Hz6fsPDSVgQXr5TevY7v3rrV2WR1ik0wdKHNk6gAAwCgM1QFgQ66qAwAAALPmoDDf1C//PCqOwXb9p7X20pQB+Fy/0OM4In4tjsL2HfXXu41THJi/D9UB+Mzrbf1lZnv6IbsX1TkW5l11AOAvzkKBqsJQHWBLTB2osaoOAABA7GemUjZzcFkdAAAAmLXL6gALNoWi+Gl1ALbmJiL+2VpzER18Q2vtY2vtNCL+U52FrdvKXoLiwPxdR8TP1SH4zKo6APfXb9heVedYmA8x34OyMEm99OZgy+7NbtrALVMHyuxn5ml1CABg66awubt0Q2YeVoeAp2itDa219DHOj+qvDwAAeKq+l/S+OsdCTeGG99PqAGzF+4g4nOseOWxaL9j8M1zaOGen2/hNFQcWoLU2hMkDY3KUmS+rQ3BvZxGxXx1iYU6rAwB/MYRpAxWG6gDb5D1qmaE6AACwdVPY3F26vYhY9QsrAAAAgK+7rg6wUNfVAb6nX8bgHM/8vI2I49badXUQmJJetDkOZbu52tvGWWPFgeU4rQ7AZ2wMTkC/Yft1cYyleas5DOPSvxeeFMdYotlOG/jCUB1ggfYzc6gOAQBAPI+IS2uEAAAA8E2mKta4rg7wA6fVAdi4X1trL/ukEeCBWmtXoTwwZ4oDPE4/ePa2Ogd/2gsH5aZgVR1gYW7CAx6M0Xl1gIUaqgPsQmttFaYOVDhzQA0AZs0G23Q8j4jrzDyuDgIAAAAjZI2jxnV1gB84rQ7ARv3aWjutDgFT14s3x6E8MEcnmz7foTiwLKexPpjLOLzq47MYoT7i5ag6x8IM2sMwLv3wyovqHAv060KmDdwaqgMs0F5EnFWHAAC2xm1807IXEb9n5qpPfAMAAADWrHHs3k1r7bo6xLf0/eu96hxsjNIAbJDywKxtdOqA4sCC9G8MQ3UOPuMW5xHqDS1/Nrv1rrXmvzmMz1AdYKGG6gC7ZOpAmTMH0wAARuUkIv5QIAAAAAAKjb2ssdGDk5RSGoAtUB6YLcUBHq8fzH1XnYM/HWXmaXUI/uIsIvarQyyMW49hZPptDSav7N6vY77FY4uG6gALtBf+uwPALC1setUc3RYILvpETAAAAIBdURxgF5QGYIuUB2bpRb8MeyMUB5bJAd1xOd/kX2qeJjMPI+J1dY6F+bm1NvaHT1iiVXWAhRqqA1ToUwc8tO7eidtsAQBG60VE/JaZ15l53tesAAAAALbpsjrAt/S1EZeATt87pQHYPuWBWdpYeU5xYIH6Ad2fq3PwJ7e9jst5dYCF+RD+m8Po9Gk4Fl12b6nTBm4pt9bwOgwA82Ti6HzsR8SriPjfnRLBcXEmAAAAYJ7GfOnjaXUAnux9mBoBO9PLA6cRcVMchc043tRvpDiwXOexPrDLOLxya1i9flD2qDrHwpz1NynAuAzVARZqqA5QqbV2GQ64VXjh4BkAzNJ1dQC24rZE8HtmfszMi8w8s64IAADATB1UB1iYDyO/5Oy4OgBPchMRL50Rgt3ql4wr7MyDiQM8TX8RdqvruLjttVBmPgt/Brv2trV2UR0C+FxmDmHaQIVfRr4QtytDdYCFGqoDAAAbN+bb4diMvYh4ERH/jfU0AkUCAAAA5uagOsDCjPb8RmYeRMTz4hg8zUv74VCjX+L4n+ocPNnepi6FVBxYsH5g9211Dv50lJnKHHWGWG+4shs3obwEo9NLVP5u7t5NOLgdEaYOFDoydQAAZkdxYHm+LBK0zLzMzPPMPPV+DwAAgAk6qA6wMJfVAb7juDoAT/Jz3wcGirTWzsNZ4TnYyNSBv2/iN2HSzmL95sqB6XEYMnNlLNNu9VvYXlXnWJhBkxhG6Sy8J6hw7rX/M0NE/F4dYoHOI8LNtAAwE621y8ysjkG9o/4RERH9a+JDRFzHulzyMdaHAj72kdUAAAAwJgfVARbkpl9AO1bH1QF4tPettaE6BBAREaexXhfeL87B4x1v4jdRHFi41tp1Zg6xvomKenuxPrR1WpxjaVbVARbmfW8xAiNi2kCZm1i/9tP1Q27v4s4BJ3bieWaettZW1UEAgI15H0a481f7/eP2/fbriD9LBRGfJoDdFgs+xqcJFgoGAAAA7JK9ot0Zc2kgYkM3LLNzN+EMHIxGa+1jZr6MiP9VZ+HRnmfms6deTqo4QLTWzjPzNGwkjsVJnzpwWR1kCTLzLHzt79ppdQDgq87DtIEKpg183Vl4WK0whEIlAMzJZVjz4OGOvvjxM19Msnj3xf/5tmxw13X/+J4rz0UAAADclZnH1RkWZrTFgcw8DPvYU3XuEgoYl9baVWb+J1w0PmXH8cTXbcUBbp2Gw1ljch4Rh9Uh5q7frj1U51iYXzwUwPhk5kFEnBTHWCLTBr6hP6z+Gr4ud20/M89MBgKA2biMiFfVIZi1L8sFj74J8otCwmN8WWJ4jMuK38MFMgAAAF/lhvnd+dBaG21xINYHJJme9621oToE8Ff9ovGXYbLPVB2H4gCb0A9n/RI2E8fiuUNbO+F27d26CUUNGKuhOsBCmTbwfUMoDlQY+vQrX5sAMH2X1QFghzaxybWJ3+P1Q3/BD0oTN7Ge5PCl6/jrJIcvf+6jCzwAAIAJUxzYnVV1gB9w8eo0nVUHAL7rNNbrjs5OTs/xU38DxQHuGmL9DcE3g3FwaGuL+lg7hxF369TXM4yP74dlPoRpA9/VWrs2daDEXqwX8obiHLAkp8ZuwyhdtdYmvbnVWvuYmW8j4kV1FuDR9uLrhYZ7lRy+KCV8iM+LBZd3/vkqIm7X7a6s4QEAAJX6eul+dY4FGfue5XF1AB7srQmLMG79PMZ5POIiFMo9f+pvoDjAn/pm4mlE/FadhYhYbwqdx7rMweaN/cFnbt6NfLQdLNlQHWChBgcx7mUIxYEKZ5lpIgbszn7YBAO25yIUB4C1L99zfLN8cKdw8K7/+DE+TT64LRlct9auNxsRAAAgIpyT2aVfx7wflJnPwvr5FE36QhZYitba0M8L+z47MZl5/JSCluIAn2mtXWTmu9jMWGae7qRPHbisDjInmXkWG2hecW834cEeRqnf1uE1f/c+tNZW1SGmwNSBMgqsADAfFxHxpjoEMFl31wz+UkLqBYOb+FQm+OzH1trVl78GAADgezLzIOwL7dJQHeAHDqsD8GC/umgAJuU0In6vDsGDHcbnE2UfRHGArzmN9cL+XnEO1s7DG+GN6Q+ZQ22KxTn3UACjZfpKjaE6wMQMYYG4wklmDl7DAWDa+oTRt2HqALA9e/GpYPDZ95ovigXX/eO2VHC5q4AAAMCkrKoDLMgUDngfVwfgwYbqAMD9tdYu7SFM0pPOE/9tUymYj/6m0EHC8XiemUN1iBk5D6WYXfrQWhuqQwB/1ceNmb6ye6YNPFB/b/pzdY6FGqoDAAAbcVEdAFi022LBSUS8jojfIuL3zGyZeZ2Zl5l5nplnmXmcmc9K0wIAAGUy82WYlr5LQ3WAezioDsCDTKGMAvzVWXUAHuzgKb9YcYCv6gd9P1Tn4E9n/aZ8niAzj0M7btdOqwMA3zRUB1iooTrARJ3H+pZKduukv38CACasF1e9lwLGaD/Wh4JeRcR/Yz0W/f8y82MvFAyZeZqZJvICAMDM9RLxqjrHgvwykQPeB9UBeBAXFcME9deDX6tz8CBPKloqDvA9p9UB+NNeeHO1CavqAAvzq5HjME6ZeRbrzXl2y7SBR2qtfQzvhaoM1QEAgI1YVQcAeIDbKQWvI+JNRPyvTyi4nU6gTAAAAPNzEetnAbbvJqaz/2MCxXS8a61dVYcAHm2oDsDDPOUicsUBvqkf+NUkGo8Xbnx9vMwcwiHZXboJY4xglPptHUN1joU6rQ4wcaYO1DjyHhQAZkEJE5iD2+kEXysTvDS1FwAApikzV+GA+C6d9Uu7Rq3vazMdq+oAwOOZOjBJB4/9hYoD/MhZOKA1JqvqAFPUN4wcYt+tSTxowkKdhds6KrwzheVpTB0oNVQHAACexqI/MGO3ZYLfIuKPzLzOzJWpBAAAMA29NHBSnWNB3k1oQrpnuum4mdDXFfBtq+oAPMjBY3+h4gDf1Q9oOXA9Hvv95nwe5jwckt2lKT1owqL0Wxm8rtcYqgPMhKkDNY4y87Q6BADwZKvqAAA7sB/rQ0e3Uwk+3ikSHJQmAwAAPqM0sHM3Ma0J6QfVAbi3i+oAwNP1yzDfV+fg3g4e+wsVB/ihfgD4XXUO/nRmg+P+MvNlRLyozrEwp9UBgG8aQpGqgmkDG2LqQKmhOgAA8DT9Pak1PmBp9uJTkeB2IsF5XzcGAAAKZOazzLwIpYFdO+1TKafioDoA96Y4APOxqg7AvR089hcqDnBfp9UB+NNeODB3L/1mbf+tduvniT1owmL00tmr4hhLNVQHmJPW2hARH6pzLNC+qQMAMAsmkAFLtx/r9ZHfMrNl5kVmuqwHAAB2JDMPI+IqXAC5a7+21qZ2uPugOgD3cjPBry3g21bVAbi3g8f+QsUB7qUfBP65Ogd/epGZx9UhJuAs1htB7MaHUNSAMRuqAyyUaQPbMVQHWKjzXswEACaqtXYVEb9W5wAYkRcR8d9YTyO4UiIAAIDt6FMGziPif+Ecx669j2leJnFQHYB7URqAGWmtfYyIt9U5uJdHn91QHOAhzsPtrmOycnDr2/rmzuviGEtz2t88ACPTb+4w6rPGUB1gjlprq/C+tMJeTHNhGQD43BARN9UhAEboeXwqEVwrEQAAwNP1wsAQEddhOnqFm4h46SwHW6Q4APNzWR2Ae3n+2F+oOMC99TeRp9U5+NN+OLj1PavqAAvz1o3aMGqmgdT41ffGrRqqAyzUmfIqAExbnyzqGQHg+/bjr5MIPAsBAMA9ZeZBnzBwHetLH/dqEy3STUQc97WgKTqqDsC9XFYHADZOIWjmFAd4kH74zSiS8XjtxqO/ysyX4QFil25CqQhGKzOPw/fEKkN1gDkzdaDMXvjaBoDJa60N4b0UwH3dTiL4v8y86OvPAADAFzLzMDOHzLyKiD9iPWFAYaDOWWvtqjoEs/beNAuYn144s38wAY89O6w4wGOchnHmY7KqDjAm/dYnt+bt1uBBAEZtqA6wUL9O+PaOKRmqAyzUK+VVAJiF0+oAABP0IiJ+y8zrfiDqoDgPAACUyMxnmXnc3xdfZObHiPhfrKcLPC+OR8S/+yVcsE2X1QGArbmsDsC9HDzmF/19wyFYgNbax8wcYn3DDvWOMvNla82ImLUh1mOk2Y13rTVFDRipzDwN0waqDNUBlqC1turvS732794QDhsCwKS11i4z85dY3/4HwMPsx/pA1OvM/DUiVn1iMwDA2B1mZnUGpuMgPh1IexYRh/2f7T+O2+RLA5l5XJ2Be7msDgBszWVEnFSHYDsUB3iU1tp5H8frYWAczjPzcum3vmfmYdjs3rWz6gDAdw3VARbKtIHdOo2I36tDLNBJZp4bcQsA09ZaO+sbsW4CBHi8k1g/I72LiHOX/AAAI+eCSJi3yZcGmBT7hDBfl9UBuJdnj/lFf9t0ChbFgeHx2A9/HhERbr7frV8cFoTx6tMG3MJeY6gOsCT9Rsd31TkWynsvAJiH04i4qQ4BMANHEfFbZl73dRkAAIBdUhpgp1ymB/PV/37bNxi/wx//K3+lOMCj9QPDv1Tn4E+vM/OgOkSVvhFjAsbufAgHY2G0MvNZONBb5RcLJCWG6gALdWRULABMX1/jcyEFwObsR8QbBQIAAGBHbiLiHzMrDTzqBmV2ysVuMH8uFJ4pxQGeaoj1AWLGYVUdoIIDsiXOWmsfq0MA33QWEXvVIRboJhxgL2HqQKmhOgAA8HR9Y9kFIQCbdbdAcFwdBgAAmKX3EXHcL4aYk0fdoMxOXVcHALZubq8tdIoDPEk/OOxGsvE4ysyX1SEKDOGA7C69ba1dVIcAvq6Xqbw21zhXqio1VAdYqCM3aALAPLTWzkIZE2Ab9iPi98y8zEyHXwAAgE15G/MsDTAN19UBgK27rg7AdigO8GT9APHb6hz8adUPjS5Cv6npVXWOBbkJB5Jh7IZQpqpwE6bflDJ1oNRQHQAA2JiXsb6pDoDNO4qI/2Xm+ZLW8AEAgK34ubX20qVmFFJYgfnz93z8Dh7zixQH2JSzWB+Yo95eLOvwlkOau3XeWruuDgF8XWYehDJVFdMGxmGoDrBQ+6YOAMA89Pe0x2GdD2CbXkXEtecoAADgET5ExD9ba0N1EBbP3jjM33V1AH7o4DG/SHGAjegHiR3gHo9XSxh5nJlnEfG8OseCvPfwCaM3VAdYKNMGRqJPHfi1OsdCDW7MBIB5UB4A2Im9iHiTmZf9IggAAIAfeRsRh30/DKq5iRxmzuXC86U4wMb0A8VGmY/HrA8w9oNpQ3WOhTmrDgB8W99kPimOsVSmDYzLUB1gofbDewUAmI3W2lUoDwDswlFEXPVLcgAAAL7mJiL+1Vp7aU+SsfC1CDBdigNsmsXt8Tia+ajj81jfysRu/KK1DqO3qg6wUKYNjExvvZs6UOPM1AEAmA/lAYCd2YuI/2bmhWcqAADgC79ExEFr7aI6CACL9K46AJunOMBG9YPFv1Tn4E/nc9xoyMzjcKv2Lt2E25th1Pr3xaPqHAt15jaFURqqAyzUXigSA8CsKA8A7NSLiLju6zwAAMCyvYuIf7bWlroXeVgdgO96Xx0AgMdTHGAbhrCZOBZ7Mc+Dc2523q3ThT6IwpQM1QEW6kNrbVUdgr8ydaDU68w8qA4BAGxOLw8chg1BgF3Yi4jfM1MpGwAAlulDRPy7tXbcL29dqtldkjozzhABTJjiABvXDxifVufgT68yczZN3MwcIuJ5dY4FeWfkHYxbZr4M0waqDNUB+K6hOsCCDdUBAIDN6sXM41AeANiV/2bmao4ThQEAgK+6iYifI+LQxWUAwDYpDrAV/aDxu+oc/GkWN/T322vdtLRbp9UBgB+axff4CTJtYOT64bZfqnMs1ImpAwAwP621j621wzDZCWBXTiLiUnkAAABm7bYwcNBaG/plrQAwFpfVAdg8xQG26f+zd6/HcR3n1oBXf3X+g46AUASkIyAcAakIOIpAUAQaRmAwAoMRmIzAQAQGIzhABIeI4P1+zIYIUbzgMjO9L89ThaIti+AqExjs6e7V76p3AP7wYiajjU+yGdXMfrwZDl0CI9VaWyV52jvHQq17B+BO1tksuLJ/p70DAAC7UVWrJL/1zgGwEM+SXMxpqjAAAJBEYQAA6ERxgJ0ZDhy/6Z2DP6ynfDNRa+0oycveORbkqqrWvUMA3za8pq9751go0wYmYlhkNZWjjxfD8xsAMENVdZLkH1HSBNiHp9lMHlAeAACA6btK8ksUBgCAThQH2Knh4PFV7xwk2dzUP+WDc6e9AyzMqncA4IeOY9pAL3OY4rMkJ3GgrZd17wAAwO5U1VmSwyTnfZMALMJBlAcAAGDKPiT5uaoOq+pUYQAA6EVxgH1Y9Q7AH15P8ebX1to6Dsfu07th8x8YqWHagMPrfZxX1fveIbg7Uwe6etFae9U7BACwO1X1qaqOYuoowD4oDwAAwLRcJXmb5KeqemWPEQAYA8UBdm44gPyudw7+MKmDc621wzgcu0/X8f83TMFxNpvF7N+6dwAexNSBfib17AkAPMwwdfTvST52jgIwd8oDAAAwfu/yebrAcVVd9g4EAHBDcYB9OY7DWmPxrLU2pYPhp3E4dp+OjcSDcRsKVb93jrFU5yayTJOpA109ba2teocAAHavqi6q6nlMHwDYNeUBAAAYnw9Jfknyt6pamS4AAIyV4gB7MRzWmtJh9blbt9ae9A7xI621V0le9M6xIOdVddo7BPBD694BFmzdOwCPcpLNSFj2bxLPngDAdtyaPnDeOQrAnN2UB7zXAgCA/j4kOa2qUxc1AgBjpzjA3gwHkm0YjsNBRn7r7rDhMeqMM6TcAyM3TBt43TnGUpk2MHHDQu26d46FehrPGQCwKMP0gaNsbtozhRRgN5QHAABgHF4m+XdrrVpr71trK8/pAMBYKQ6wbw4Mjcfr1tpR7xDfcZzNITP2401VXfQOAfzQae8AC7buHYDHG4qspg70cWyRHACWZ3j+Okzytm8SgNl6FutFAAAwJi+T/CvJ/7XWTltrr3oHAgC4TXGAvRoOJr/pnYM/jPJG/+FG7d87x1iSq4z0awH4bCh7veidY6E+mDYwK+veARbqIErEALBIVfWpqo6T/JTkQ+88ADP0srW27h0CAAD4i9fZTCK4bK2th7MwADAlLgecIcUBejiJm17H4llrbYwHuE57B1iYVVV96h0C+KF17wALNsaflTyQqQNdHVsUB4DlqqrLqnqV5B9JznvnAZiZ30c+YRgAAJbsaTaXZ/5va+29Z3cAJuR57wBsn+IAezccUF71zsEfRtVqHsa0uVF7f9yiDRNg2kBX76rqsncItm7dO8BCHcT/9wCweFV1VlVHUSAA2Lb3rTW3wAEAwLi9TPKf1tpFa23VOww8kIPEABOmOEAXw0Flo8nH4SCbKRDdDZsap71zLMh13KINU3HaO8CCrXsHYPtMHejq9ZhKqwBAPwoEAFt3EGtIAAAwFc+S/Ku1dqlAwAQd9A4AwMMpDtDTcTYHl+nv5UhGoa3j4XKf1m7RhvEbFoqe9s6xUKYNzNuqd4AFG0VpFQAYh1sFgr8nedc5DsDUvRym+gIAANPwNAoEX3PROwAASZLD3gHYPsUBuhkO4q07x+Cz055/eGvteZJfe2ZYmI9V5dAeTMO6d4AFW/cOwO4ME7DcbNvHWEqrAMCIVNVFVa2S/JTkTVw4AvBQp8N0XwAAYDpuCgRn9lCSJJ96B+D7fJ3CYrjodIYUB+hqOLj8sXcOkiRPW2vrjn++Q+z7teodAPix4XXZQ3gfpg0sw7p3gAVb9w4AAIxTVV1W1bqqniT5JdYOAe7rINbbAQBgql4k+U9r7X1r7bBzFgBghhQHGINV7wD84bjHG49h3NqLff+5C/a2qox1g5EbboY77p1joa7j//tFMHWgqxduIgEAfqSqTqvqeZK/J3kXUwgA7uq191wAADBpL5NctNbsWTJWR70DALtlbWm+FAfobjjA/LZ3DpJ0uIloOBjr9qP9uYobfmEqjrN5XWb/TqrK+MvlWPcOsGCnvQMAANNQVRdVtbo1heBD70wAE7DuHQAAAHiUgyT/bK1dtNae9w4DX3jSOwCwc77PZ0pxgLFYZ3Ogmf5e7rktdhIHY/fp2GFYGL9h+ovbI/q4jkLbopg60NXTYfIUAMCdDVMIXiX5W5LfknzsHAlgrF601l71DgEAADzasyT/ba2teweBW5RZYP58n4/f2UN+qw5dLwAAIABJREFUk+IAozAcZHZAcjxO9/GHDAWF1/v4s0iSnFfV+94hgDtZR6mqF9MGlmndO8CCrXsHAACmqao+VdVJVT1P8lOUCAC+xuUIAAAwH7+31s6GS+igtxe9AwA7pzgwU4oDjMZwoNltr+PwdE9NZZsW+3OdZNU7BPBjw0KPUlUfpg0s1DB14F3vHAu1r+dOAGDGquryVongb0l+SfKhcyyAMTDpDQAA5uVFkosFTBe77B2AH2utOVQM8+Z7fKYUBxibVTaH9ujv9122lFtrx9mMU2M/TqrqsncI4E4cXO/HtIFlW/cOsGDHrbUnvUMAAPMwTCI4rapXVdWS/JzkbZKrztEAejHtGQAA5uUgyb9nfjHTZe8A3IlDxTBTw/7909452A3FAUZlONjswOR4nO7ikw4/WNa7+Nx81ceqWvcOAfxYa+0oycveORbKtIGFG55DTR3o4yAOsgAAO1JV76vquKoOk/yU5LdsphG4vARYimfDmhMAADAvv7fW3ruciY6OegcAduaodwDu5PIhv0lxgNEZDjh/7J2DJMmLHY03O8nmgBj74SAeTMe6d4AFOzZtgPge7MnUAQBg56rqsqpOhmkET5L8PYoEwDJYIwYAgHl6meTMHgudHPUOAOzMUe8A3MnlQ36T4gBjZRF7PE62+QZjuNno9bY+Hz/0tqrOeocAfmx4fXzRO8dCXVXVae8Q9GfqQFcHMfUDANizqrr4RpHgXZKrvukAtupla+2wdwgAAGAnniW5bK097x1kiy56B+BOnnqvCbN11DsAu6M4wCgNB53f9s5BkuRptlvkON3i5+L7ruPmZJgSB2b7WfcOwKisewdYsNcWFwGAnm4VCVZVdZjkb0l+TvImyXlMJQCmbdU7AAAAsDMH2UwemEV5wKT4STnqHQDYruGS6We9c3AnD/p5qTjAmK1jM24sft/GIa7W2jqbIgL7cezNFExDa20VD929mDbAnwxTBxRY+1n3DgAAcKOqPlXV+6paV9XRMJXgp3wuE3yIyQTAdKx6BwAAAHZqVuUBJuNV7wDA1vm+noiqetCEHsUBRms48LzNm+55nNPH/OaheODvc3/OHYSFSVn3DrBg694BGKV1FFh7ed1aO+odAgDgW6rq8laZ4FVVHVZVS/KPJL/k83QChQJgbJ46QAQAALM3p/LAx94BuJOXw+3kwHwc9Q7AbikOMGrDwefz3jlIkrxorT2mTXaSzRsU9mPVOwBwN62145jG0otpA3zVUGA96Z1jwda9AwAA3FdVnVXV6a3pBLcLBbcnFJxHSRXoZ9U7AAAAsHNzKQ986h2AO3M7OcyL7+lpePDlRf+zzRSwI6sk/9s7BEmSk9ba2XCY7s6GW2Nf7iYSX/Gmqi57hwB+bGjer3vnWDCTcPiek2y+RhQf9+9Fa+2oqs56BwEAeKxbzzTvv/zfbk1a+vLXF7vMBCzaq1gPAQCAJbgpDxxV1UXvMA+kODAdr5Kc9g4BPN5wsbQzEtNw+dDfqDjA6FXVZWvtTZLfe2chT7M54HrfjYXTrSfhW66qat07BHBnDiX3c15Vfzm4Azeq6lNr7SSeQXs5STL1m3AAAL7rVqng7Gv/+3Az4JMkh8NH8rlc8CTJs11lA2braWvt+YQPDgEAAHd3Ux44vO8FoSNxEZeUTsXL4evssncQ4NFWvQNwZw/+2a44wCRU1bq1tsrm4Dp9/dpaO73rxkJrbR1/b/u06h0AuJth2oAb3vpZ9w7AJJg60M+z1tqqqk57BwEA6OUe62+H+VwseJI/FzCPvvjXTTMAXmVzAAcAAJi/25MHplYemFrepVvFHjxM2nCOSWFrOh68vqc4wJSskvyndwiSbA7RHf3oXxo2Ld3Suz8fbt1UB4zfSRxG7uUqSVprR51zMA1n8ea4l3VMrgIA+KHhNrfLW//oztPVbk01uO3L8sFth/lcUviRw7hQBMboqHcAAABgr55lsze96pzjvhSep2UVxQGYulXvANyLiQPMX1WdtdY+xMGtMXhxxxtgf/S/sz3X8cMbJmMoVr3uHGPJnkYZEabgaWvtuKpOegcBAJir70w1uHP5YFu+UWL4lu+VG77mMHcvPGT43Mr+zJXJIwAAsDyvW2sXE9tzMXFgWp621l5V1d7XlICtOe4dgHsxcYDFWGVze5ZNm/5OWmvvvzXKrLX2KjYg9mk9wbFysGTr3gEAJmLdWjv1nAMAMH/fKTF8S7eN6GFs99eKC4f5a0Hhy0KEUgLdtdaOTK8FAIDF+Wdr7ewB77+7qKqL1lrvGNzPcTqu1wAPN5z1ND12Wi4f+hsVB5iUqvrUWlsn+WfvLOQgm4Ovf2maDRtnU2opT935xFrhsGittaOYNgBwVwfZPG+uO+eAXXoX09pgjJTWgG8aiq1nj/08XxQQbv/nw3wuILichV04yha+hgEAgMk5HYrEU1n7uoqDrFPyQlEdJsu0gYmpqsuH/l7FASanqk7cZj8avw43wH7ZRj6OB/d98oMbpmXdOwDAxBy31k4mtIgN93VpER0AlukrBYRv3srXWruZXHD4xYcJBjzE1yZmAAAA8/cs37gkdKQu4/zR1KyzKasDEzFcgOos7rR8fMxvVhxgqo6T/Ld3CJJsJgsc3fyX1tphkt87ZVmiN1MZIwd42AZ4oINsnjlXnXMAAEA3P1oDHNYcDoePm//scAXfojgAAADL9a1LQsfoLPbXp8bUAZiede8A3NvlY37z/9tSCNir4eH1Te8cJNk88K1u/ffTTjmW6CqbQ3TAdPieBXiY10NBFQAA+IqqOquq06paV9VRVR0m+VuSf2Szlv4hm/VESJKnrbUnvUMAAADdTGXf+rJ3AB5kKl9fsHguQJ2sR5X/FAeYspPY6BiLk9bak6FA4AfJ/hwP48yBCRheI5/1zgEwYeveAQAAYEqq6tNQKFhX1auhTPBTkp+TvM0jR1ozeaYOAADAcn15SehYTWEqAn/1bCJfX4BLoqfq7DG/WXGAyRoOTB/3zkGS5CCbHyIao/vzoare9w4B3Mu6dwCAiXvdWnOwBQAAHqGqLqvqfVUdV9XzbKYS/JLkXVzUszSHvQMAAABdrXsH+JGqUhyYrhOT7mDcWmvHSZ72zsGDmDjAcg0Hpz/0zkGS5GU2BQJ27zpKMzApQ5vewzbA4ymqAgDAFg1TCU6rajVMJPh7TCNYisPeAQAAgK6ettbWvUPcwXnvADzIQezrwWi11g4zgQIZX3U1XLr+YIoDzMFxNgepYSnWVXXZOwRwN0OL3htigO140Vo76h0CAADmqqoubk0juCkRmEQwTya6AQAAU7i08qx3AB7stX09GK2TuCR6qs4e+wkUB5i84QD1unMM2JePVeUAMkzLcTxsA2zTuncAAABYglslgsMkP8f037l50jsAAADQ3UFrbdU7xA+c9Q7Ao5wOly0CI9Fae5XkZe8cPNjZYz+B4gCzMBykNjqZJVj1DgDc3fAGeAq3NABMyYsJLGIDAMCsVNX7qnqV5Kck73rnYSsOewcAAABGYd07wA9c9A7AozzN5mZzYARaa4dJTvum4JHOHvsJFAeYk1XvALBjb6vKGyKYlnVMGwDYhXXvAAAAsERVdVlVqyR/T3LeOQ6P87R3AAAAYBSeDrdPj1JVfYrLZKfu9Zi/xmBhTuMc05RdVdXlYz+J4gCzMRyofts7B+zIdRyQg0kZWrq/do4BMFdPTR0AAIB+quqiqo6S/JbN2iUAAADTteod4Afe9w7Ao50OZyiATlpr6yQveufgUc628Un+ZxufBEZknc3DrFYUc7MaWtTAdKx7BwCYuZPW2nvPSAAsXWvtqHcGvq2qznpngF2qqpPW2lk2m1bW5SemtfbEeyoAACDJy5G/PzhL8nvvEDzKQZL3rbWjEX+dwWwNUz+8jk7fVop0igPMSlV9Gm4e/XfvLLBF51WlPQ0T0lp7nuR17xwAM3eQ5DiKWgDwn94B+K7WOwDsWlVdDCWmsygPTM3zbOmmMgAAYPJWSU56h/iaqjprrV3He86pe5bN19iqcw5YlOEM02nvHGzF2TY+ieIAs1NV71tr5zFWhXm4jgdmmKJRLqgAzNBxa+3EzSQAwFiN/LY+2Jpb5YH/9s4CAMB3vUty2TsEe/M8yZNb//0wydM+UZiAVca9z32W5GXvEDza69baRVWN+WsNZqO19iSb0oDi1fR92NZeg+IAc7VKchEveEzfSVVd9g4B3N2wSa68BrAfB9lMHDjunAMA4Fvc5s1iDOWBNzH2HABgzE6r6qx3CPprrR1mUyRIkqNbvx5GuWCpno38AoT3URyYi38O5YGz3kFgAd5nM+2D6Tvb1if6f9v6RDAmw0FrzUSm7qqq1r1DAPe27h0AYGF+HTY4AADG6MmP/xWYj2E982PvHAAAwPdV1WVVnQ0f6+HjqKoOq6ol+XuSX5K8TXLeNy179Kp3gO943zsAW/W+tfa8dwiYs9baaVx8Oidb+zmoOMBsDRsUV71zwCOsegcA7qe1toqHboAe1r0DAAB8gw1QlshEMAAAmLiquqiq06o6HgoFLck/kryJIsGcjbY4MExC8LU3HwdJzlprLt2AHRhKA69752BrPg6XqW+F4gBzt+odAB7onZFcMEnr3gEAFuq1W0kAgJE67B0A9m1Y13SpDwAAzMyt6QRHSf6W5Ock75Jcdw3GNh31DvADpg7Mi/IA7MBw6anSwLycbvOTKQ4wa8MGxbveOeCeruNWLpic4cH7ae8cAAt20jsAAMBXKDeyVJ7PAQBgxqrqU1W9r6pVVT1J8kuSD71z8WgHI7+oSXFgfp5FeQC2Zji79K/eOdi6rf78UxxgCY6j3cy0HA8j1oCJGN7ErnvnAFi4F621o94hAAC+8Kx3AOjEYQ4AAFiQqjqtqldJfkryNs7pTNlR7wDfUlWXST72zsHWKQ/AFigNzNbH4eff1igOMHvDAWy3tzMV51V12jsEcG/HMW0AYAzWvQMAAHxJuZElcpgDAACWqaouq+o4yWGSN1EgmKIxTxxIktPeAdgJ5QF4BKWBWdv6ZFfFARZhOIh93jsH3MGqdwDgfoY3rgpqAOPworX2qncIANgzB3PH76h3AOjkoncAAACgj6r6VFXrbAoE7/qm4Z4UB+hFeQAeQGlg9rY+2VVxgCVZ9Q4AP/Bm22NlgL04TnLQOwQAf9h64x4ARu5T7wD80FHvANCJ4gAAACzcUCBYJflHXH4wFc96B/ieqvqU5EPvHOyM8gDcQ2ttHaWBOXs3/NzbKsUBFmM4kP2mdw74hqs45AaT01o7TPJ75xgA/NnT4VYFAICxeGGzk4VSHAAAAJIkVXVWVc+TvO2dhR9rrY196sDWb19mVJQH4A5aa6dxZmnudvLzTnGApTnJ5oA2jM1qF+0wYOfWvQMA8FVri4kAwMi86h0AAAAAequq4yQ/J7nunYXvGvUeS1WdxtfQ3D1LcjGBEgvsXWvtSWvtLMnr3lnYqauqUhyAxxoOZq9654AvfKiqs94hgPsZpg14CAcYp6dJjnuHAIA9caP3NCgOsDjWPAEAgK8ZDsEdxcHvMTvqHeAOTB2Yv6fZTB5Y9Q4CYzGUac6SvOgchd073dUnVhxgcYbNig+9c8DgOsosMFWnvQMA8F3Hpg4AsBAmGE7Dy6GADgAAAItXVRdJnif52DsLk3XSOwB7cZDkX601f98s3lCiOctmIgfzd7qrT6w4wFKtornMOKyHSRjAhLTWjqK9CzB2BzF1AIBlsK4wHaveAQAAAGAsquoyJg+M1VHvAD8ylE8UT5bj19baxXDbOixKa+1Ja+19kn9lswfO/H0YnpN2QnGARRoOaq9752DxzqtKIxamad07AAB38rubfQFYgIveAbgzpUYAAAC4ZTi/cxTlAR7GmZtleZbkv621de8gsC+ttVdJLpO87ByF/Trd5SdXHGCxhgPb571zsGg2i2GChody0wYApmPdOwAAwOBgGCcNizBMbGTclM8AAOhuuDn+Ve8c/MmT3gHu6H2UTpbod9MHmLtbUwb+HVMGluaqqt7v8g9QHGDpHNyml7fDm19getxaADAtr00dAGDOquqsdwbuZd07AMCN4XZXAADobljfeNM7B3941jvAXQzvaXZ6uJLRupk+cNJam0rRBe5kmKpxGVMGlmrn59IUB1i04eD22945WJyr2CSGSRpuhnzaOwcA93baOwAA7Jib1abjqXHqLIib/wAAgDurqnWS8945mJx17wB09WuSy9aay4OZvNbaq9baZZLfY8rAUl1nD2cbFAdg8wB51TsEi3LsJieYnqGlvu6dA4AHedFaO+odAgB2yFTDaTk2EYmFUBwAAADuaxUXJHAPVXWZ5EPvHHR1kOSfrbXL4TJImJTW2lFr7SzJv+My06U72ce5UsUBFm/4RtM6ZF8+VJUxaTBNx/GADjBl694BAGCHLnsH4F4OsodxwzACR70D8F1ucgUAYHSGQ+DeM3NfvmZINuc5/qVAwFTcKgz8J8mLznEYh738PFMcgCTDQW7tU3btOkoqMEnDtAHfvwDTZuoAAHNm4sD0vLSByZy11p7HBQwAAMADVNU6yVXvHExHVZ1FOZrP/lQgGM57wGgMX5dnURjgz97tY9pAojgAtx3HuDN262RoxwPTc5zNjZAATNtp7wAAsCOKA9N0Mhyuhjla9Q7AD+1lIxIAAB5o3TsAk7PuHYDReZrkX0kuW2vr1tph3zgsWWvtSWvtuLV2mc3XpcIAX1rv6w9SHICBcWfs2MehFQ9MzPDm0bQBgHl46mZfAGZKcWCaDpKcuvWMuRm+ple9c/BDfnYAADBaVXUaUwe4B1MH+I6DJL8n+d/W2nsTytmn1trz1tppkssk/4wJnXzdu31eSK04ALcMB7s/9s7BLDl0DNO1jmkDAHOy7h0AALZtGF9rM32ansVUJObH5MZpMHEAAICxW/cOwOSsewdg9F4m+U9rzRQCdmaYLrBqrV0k+W+S17FWxvet9/mHKQ7AXzngzba9HZrNwMQMbxJfd44BwHY9ba2te4cAgB046x2AB3s53DoFkzdMG7DGPg0mDgAAMHbvk1z3DsF0mDrAPTzN5ykEZ8Mhb1NBeZTW2qvW2vsk/5fkX9lcGgM/8maf0wYSxQH4i+Eh8m3vHMzGdTSaYcpOegcAYCeOLf4BMEMOgE7ba+UBZuI0blCbisveAQAA4HuGCYunvXMwOeveAZicF9kc8v6/1tp7JQLuYygLnLbWPiX5dzZTLeCurtPhbJriAHzdOlrLbMdqeDMLTExr7Sge6AHm6iBuQQVgfs56B+DRlAeYtGGyl7WUidj3TWYAAPBAp70DMC3DhbHveudgsl7mzyWC49baYd9IjElr7clQLnl/qyzwOi7S4GFOepwtVRyArxi+GVe9czB551X1vncI4MHWvQMAsFMW+gCYlaq6iIsw5uD1sOnkVjMmpbW2SvJ77xzc2cfeAQAA4C6G9Y6r3jmYnHXvAMzCyyT/TPK/rbWL1trJcAElC9Nae95aW7fWLpL8XzblkpdRFuBxrqpq3eMPVhyAbxgOfJ/3zsGkrXoHAB5meLP3oncOAHbqIBaOAZifs94B2IqXSc5aa897B4G7GCYN/Kt3Du7loncAAAC4Bxc2ci/DhLU3vXMwK8+S/JrkP621ujWNwPrdDLXWDr+YKvDfbC7MeNY5GvNy3OsPVhyA71v1DsBkvTHqGSbttHcAAPbitakDAMyMjfT5eJZNeWDVOwh8yzCa/TQmDUzRZe8AAABwD6e9AzBJJzGtgt25mUbw39bap+GA+dpEgmkaJgocD3+Pl0n+N6YKsFvnw8XmXSgOwHdooPJA3cbIAI83HMp42jsHAHtz0jsAAGyR4sC8HCT517Bh9aR3GLhtuFHvLMnrzlF4mLPeAQAA4K6q6iLJde8cTEtVfUrH25xZlINsDpj/ns8TCS5aayfDrfWmEozIUBJYDX8/Z621ymaiwD+z+Xt0Xoh9WPX8w/+n5x8OU1BVa4dIuadV7wDAo6x7BwBgr1621o6q6qx3EAB4rKr61Fr7kM0GB/PxMslla+24qk57h4HW2jqmDEya9z8AAEzQWax3cE9V9b61dp7kRe8sLM6z4SNJ0lpLko9JLrKZAniW5HK41JgdGC5ieT58HA6/ei1gDN70/t5XHIC7WSX5T+8QTMI7my4wXcPGt6IYwPKskxx1zsByHRpdC5P2abj1bkzex0b6HN1MH1glWVt/oofhmeU01k6m7mPvAAAA8ABnsd7Bw6yyOax90DkH3C4T/J78USg4T/Ipn0sFl0kuhqkZ/MCwXnVTEjjM55KA73nG6CrJSe8QigNwB1V11lp7F2OX+b7rGHMGkzW0jX0PAyzTC1MH6Oh1vNeEKTvP+Mpn77NZeLYxMk8vshl5/i6bAsFl5zwsQGvtMJvCgFvZ5uGsdwAAAHiAs94BmKaquhwuEPxn7yzwDTfrLX8qR92aUnBTKviUz8WCRUwTbK09z6YUcFMMSD6vx1unYopWYygFKQ7A3R0neRWbrnzb8Rhe2IEHO47XeIAlO83mBgoAmLSq+tRaex+lpLl7neT1UCA4XcJGIfs3FAbW8XoyN2e9AwAAwH1V1cVwiBburapOWmuv4qAx03MzoeAvX7u3XhOvsykWJJ9LBjcuh48/9FhHvFUAuHG7CJB8nhRw859Nu2SO3o5lHV9xAO5o2HQ9TvKv3lkYpfOqOu0dAniYYSPctAGAZXvaWlt5pgNgJk7ioO9S3BQIzrMpEJx2zsMMDIcpjuNAxVyd9Q4AAAAPdB7vU3i4VTYHql0myNwc5M+vjS+/9S8mfyocfOkqX5QM7ulJPhcdgD+7yuaCllFQHIB7qKrT1toq3ojwVw4cw7StY4EAgM3Pg9POGQDg0YZb+GymL8uLJC9aayfZPM+cVtXF938LfDbc/LbKZuquW93m66OpuQAATNhlrHXwQFV12VpbJ/ln7ywwUk9jTQh2ZTWmNbn/1zsATJAD4nzpjY1YmK5h2oCbOAFINlMHPO8DMBfr3gHo4iDJr0n+21q7bK2dDAfC4U9aa09aa69aa6ettcsk/83ma8cG8by97x0AAAAe4bJ3AKatqk6SfOidA4BFeVtVZ71D3KY4APc0HBB/0zsHo3GV5KR3COBR1r0DADAq69bak94hAOCxhoXo89456Opp/loieNU7FH0MRYGj1tq6tXaW5P+S/DubyxSUBZZDcQAAgClzoSPbsMrmrA8A7NrHqhrdxYX/0zsATNRJNg+SNlQY1RgZ4H5aa0cxbQCAPzvIZsrYunMOANiGdZL/9A7BKNyUCH5trSWbUsnZ8HFhfWt+hjWP57c+nnUNxBhcmZwLAMDEee/Ko1XVp+Fihf/2zgLArF1nc8Z4dBQH4AGGh8hVbLwu3YexjZEB7m3dOwAAo3TcWjtxgA6Aqauqs9baeZIXvbMwOi+Gj9+TpLX2MZubGy+yKRKc9YvGXQ2Tsp4nORw+joZfXXjD15z2DgAAAI+kCMtWVNVFa+23JP/snQWA2Toe6yUeigPwQMPG64ckL3tnoYvrbG6iBSZquHnP4RkAvuYgn6eMAcDUrePyC37s2fDxOkmGqQQfk1xmczDjMsmlQsH+tdaeJ7kpCNz+1ZoG93XaOwAAADzGcMln7xjMRFWdDO+5X/fOAsDsvKuq094hvkVxAB7nOJtbnA4652D/1lV12TsE8CgnvQMAMGqvW2ue+QCYPFMHeISbMsEfF6fcOqBxPvx6Nvx6keRTkk9jvUVpjIZLDZLPEwOSzXpz4nuW7frgvQ0AAMBfHGdT0H/WOwgAs/Gxqla9Q3yP4gA8QlVdttbWMbpqaT5WlQPHMGGttVW8+Qfgx9YxdQCAeVgl+d/eIZiVF1/8+odb5YLrbAoFNy6Hj9tuCgc/tO9pB7cO9d/H137PzYSAGwoB9GA9GwCAuXA5AlszTLE4yma9wqWxADzWdb6+RjwqigPwSMPoqlUcQF2SVe8AwKOtewcAYBJet9ZO931IDQC2bbj84m2SX3tnYVEO8ufDHI862HGrkADcz5X3NAAAAF93qzxwFuUBAB7uOslRVd3popye/l/vADATq94B2Ju3xq3DtLXWjpM87Z0DgMlY9w4AAFuyTnLVOwQAe7fuHQAAAGDMhnNAq945AJi01VTOlSoOwBYM3/Bve+dg565ikwUmrbX2JL6PAbifF8NNMwAwacMtN8e9cwCwV1dVddo7BAAAwNhV1fskv/TOAcAk/TL8HJkExQHYnnXc2jZ3x1MYJQN813GMFwTg/k56BwCAbRgWrj/0zgHA3iiMAQAA3NFQvFYeAOA+fpnaxR3/0zsAzEVVfWqtHSf5d+8s7MT5lFphwF8N0wZslvZ1VVWHvUPAFLXW1kl+751jwZ611lZTe8MPAN9wnOQoStUAc2dNGwCAOXLZIztVVaettST5V+8sAIzeuymeITBxALZoWIQ/752DrbtOsuodAni0kzgY05viBjzcSTbPJPSz7h0AALahqi7j5xrAEqx7BwAAgB246B2A+RsOgb7rnQOAUXtXVaveIR5CcQC2bxWHuubmZNhUByaqtXaY5HXnGEvnljt4hKr6lE15gH6eDhPGAGDyquokyYfeOQDYmXdVddY7BAAAwFQNh0Hf9s4BwChNtjSQKA7A1g0HzB3qmo+PVbXuHQJ4tHXvAPg7gC0wdaC/dWvtSe8QALAlq3i2AJij65j6CAAA8GhVdZzkl945ABiVSZcGEsUB2InhoPnH3jnYChssMHGttecxbaC3c7fcweOZOjAKB/F8CMBMDM8Wq945ANi61fAaDwAAwCNV1WmUBwDYeDP10kCiOAC75EDR9L110BVmwSHb/ta9A8CMmDrQ37GpAwDMRVW9j5HrAHPyYXhtBwAAYEuUBwBI8stwofjkKQ7AjgwHzm28Ttd1HHSFyWutHSV50TvHwpk2AFsTASxDAAAW9UlEQVQ03BqpoNrXQTwnAjAv65icCTAH1zFJBgAAYCdulQdc8AWwPL8MPwdmQXEAdmsdD4xTdWycM8zCuncA/B3Atg1vSK9651i4X1trh71DAMA2DOsfq1jDApi6lTVtAACA3Rn26I5iHQ1gKa6T/Dyn0kCiOAA75UbYyTqf24s9LFFrbRXTBnozbQB2Z907AP4OAJiPqrqINSyAKXtbVe97hwAAAJi7YR3tKCZ4AszddZKjOa65KQ7Ajg0H0M975+BeVr0DAFux7h0Ar6ewK6YOjMLr1trz3iEAYFuG54u3vXMAcG8fq0r5CwAAYE+UBwBm72OS58Pr/ewoDsB+rHoH4M7eVNVl7xDA4wzTBp72zrFw77yews6tewcgJ70DAMA2DQdPXYABMB3XSV71DgEAALA0VfWpqp4nedc7CwBb9SGbSQOXvYPsiuIA7MHwIvKmdw5+6Kqq1r1DAI/TWnsSBznHYN07AMydqQOj8KK1dtQ7BABs2au4LQ1gKl7NeRMTAABg7KpqleS33jkA2Iq3VfWqqj71DrJLigOwJ8OBdAe7xm3VOwCwFcdJDnqHWDjTBmB/1r0D4O8AgHkZFsSPsrnFGoDx+qWqznqHAAAAWLqqOknyj1hPA5iq62zW2o57B9kHxQHYr1XvAHzTB5ssMH3DtIFFPMSN3Lp3AFiKYerAee8cC/eitbbqHQIAtkl5AGD03g3vBwEAABiB4czR85jkCTA1V0mOlrTWpjgAezQ8JH7onYO/uI5SB8zFOqYN9GbaAOzfuncA/B0AMD9VdRHlAYAx+lBVq94hAAAA+LNhn/woybu+SQC4ow9Jng/7IYuhOAD7t4oN17FZDzfpARPWWjtM8mvnGDg8C3s3lFNNHejrqakDAMyR8gDA6HyMS3AAAABGq6o+DWXvX2JNDWDMfquqV0s8N6o4AHs2vNCse+fgD+dVddI7BLAV694ByFvTBqCbde8A5KS19qR3CADYNuUBgNH4mM3Y9MVtZgIAAExNVZ1ms6b2sW8SAL5wleQfSz4zqjgAHQwvOm6FHYfj3gGAx2utPU/yuneOhbuOg8vQjakDo3AQz5YAzJTyAEB3V1EaAAAAmJRba2pvO0cBYONDkufD+YrFUhyAfhwq6u/N8JAOTN9iW6AjcmLzGrpb9w5Ajk0dAGCulAcAurlOssix6QAAAFNXVZ+q6jjJz7GuBtDLdZLfqsoaWxQHoJths/VN7xwLdhUHjWEWWmtHSV70zrFw1/GaCt2ZOjAKpg4AMGu3ygNGrAPsx8dsJg24AAcAAGDCqup9ksPYywPYt5v1NeeaBooD0NdJNgfY2b9j7TGYjXXvAJg2ACPi0Hp/v7fWDnuHAIBdUR4A2BulAQAAgBkZpg8cJfktpg8A7MObqnpufe3PFAego+GQpcNd+/dhaPICE9daexXTBnozbQBGZHjD+653DpTaAJi3YZPzeTx3AOzKTWnARQ0AAAAzM9x6/TymDwDsysckf6+qde8gY6Q4AJ0NB9g/9M6xINdR1oA5cWC9P9MGYHzWvQOQ16YOALAEVbXK5oY0ALbnXZQGAAAAZq2qLk0fANi665gy8EOKAzAOx/EQuC/rqrrsHQJ4vNbaKsnT3jkWzrQBGKHhWcftv/2d9g4AAPsw3JD2j1jbAtiGt1W1UhoAAABYhmFt7TAunQV4rPMkz00Z+DHFARiB4XDXunOMJfg4PHADE9daexKvm2NwbCMbRmvdOwB50Vo76h0CAPahqs6y2eA0Xh3gYa6T/FJVpuUCAAAsTFV9qqpX2VzOcdU7D8DEXCf5uaqOXCh9N4oDMBLDgfaPvXPM3Kp3AGBrjmPaQG9XVXXaOwTwdaYOjMa6dwAA2Jdhg/MoyZveWQAm5irJkXUWAACAZauqs6o6zGZ9zXRPgB97m+Swqt73DjIligMwLqveAWbsbVVd9A4BPN4wbcDta/2tewcAfmjdOwB50Vp71TsEAOzTMAbY7WgAd/MhmxHq1q4BAABI8sf62vO4JAzgW86T/FRVx1X1qXeYqVEcgBEZNgfe9s4xQ9dxcA7m5DjJQe8QC2faAEzAMHXAs2V/J70DAMC+VdVZNpubnkUAvu46yS9V9crmJgAAAF+qqsuqWmVzQcd55zgAY3GV5B9VdTSch+ABFAdgfNYxbmrbVjZfYB5aa4dJfu8cA2UsmJJ1PFv29rS1tuodAgD2rao+VdVxTB8A+NJ5NlMGTnsHAQAAYNyq6qyqjpL8HGtswHJdZXMJx+FwcRGPoDgAIzMccF/1zjEj51X1vncIYGvWvQNg2gBMyfBs6cb7/tattSe9QwBAD6YPAPzhOslvbkQDAADgvqrqfVUdJvklCgTAclwneROXcGyV4gCM0HDQ3Zipx7uOEgbMxjBt4HXnGChvwBSdxNSB3p4mOe4dAgB6uTV94O+x5gUs082UAcVuAAAAHmw4OPs8m4O09v+AubopDBxW1Xq4MJEtURyA8VrFA95jnbi5CWbltHcAcq7BC9Nj6sBoHJs6AMDSVdXFMFrdzWjAUlxnM0bdlAEAAAC2YrikY53kMAoEwLwoDOyB4gCM1LCJ4IDXw10ND8nADLTWjpK86J0D0wZgwkwd6O8gpg4AQBI3owGLcbPJedo7CAAAAPPzRYHgt7ioA5guhYE9UhyAERse7jzUPcyqdwBgq9a9A5DzqjrrHQJ4GFMHRuP31tph7xAAMAa3NjafJ3nXOQ7ANn1I8pNNTgAAAPZhWGc7qarDmPQJTMtVFAb2TnEAxm/VO8AEvXO4FebDtIHRWPcOADyaqQPjsO4dAADGpKouq2qV5KcoEADTdp7kH1X1apgoDAAAAHtVVadDgeDnbN6nAozRVZJfqkphoAPFARi54QC8TdO7u05y3DsEsFWnvQNg2gDMwfBme907B3lt6gAA/JUCATBhN4WBI+snAAAAjEFVva+qoyR/j7U2YDw+ZLOOdlhVp73DLJXiAEzDcdwOe1fHGmgwH621VZKnvXPgoDHMRVWdxHjSMTjpHQAAxuqLAsGbWBMDxkthAAAAgFGrqosv1trsEwL7dp3kbZKfhkmdZ53zLJ7iAEzAcBDeLfo/dq6JBrOz7h0A0wZghta9A5CXrbWj3iEAYMyGAsE6yWGS32JTExgPhQEAAAAm5WatraoOk/ySzXtbgF36mOSXqnpSVcdVddk7EBuKAzARw4F4D23ft+odANie1to6pg2MgeIazMzwXOngXX/r3gEAYAqq6lNVnQybmv/IZpQxQA/vsrkZTWEAAACAyaqq06o6ymYKwdvYNwS252a6wN+r6rlLoMdJcQCmZdU7wIi90UqD+WitPYkD62PwrqoueocAdmLdOwB5YeoAANxPVZ1V1asYrQ7sz1U2rzd/q6qVNWgAAADmYphCcDxc2PFzNoV5gIf4kD9PF3DWaMQUB2BChk2JN71zjNBVkpPeIYCtOk5y0DsEDhbDXJk6MBqnvQMAwBR9MVr9H9lsal73TQXMzLskP1fV4fB686l3IAAAANiVqnpfVaskf0vyS0z9BH7sY5Lfsrlw45XpAtOhOADTcxKHvL60snED89FaO4xpA2Pwzi16MHvr3gHI09baqncIAJiyYQrBqqqexKYm8Di3NztXVfW+dyAAAADYp6r6VFWnt6Z+/pbN+2WA5PP62U9V9byqTpzbnB7FAZiY4YV21TvHiHyoqrPeIYCtWse0gTFY9w4A7NbQ+LfQ19+6dwAAmItbm5puRgPuymYnAAAAfMUw9fOkqp5nUyKw3gbL9LX1s8vOmXgExQGYoOGgvAexzQj6Ve8QwPYM0wZed46BaQOwJCa89Pe0tbbuHQIA5uSLm9Fulwiu+yYDRsJmJwAAANzDUCL4cr3tXay3wRxdZ7Oe/ks2kzmtn83M//QOADzYKsllln0r99rtTzA7J70DkMTt17AYVXXWWjtP8qJ3loU7bq252RQAdmD4+Xo6fKS19irJUZJXSZ72ygXs3YckZ0ne2+QEAACAh/vKetvzbNbaXiV51i0Y8BhXSd4nOauq973DsFuKAzBRVfVpuJn0n72zdHJeVQ4Yw4y01o6SvOydA9MGYIHWSf7TO8TCHWQz/WHdOQcAzN6w6fE+m+Le83wuEShSwrxcZSgKZLPhqaQLAAAAO1BVF0kukqxba0+yWWs7Gj5c3AHjdJ0/r51ddk3DXikOwIRV1clwS9oSNzaPewcAtm7dOwC5jtdXWBxTB0bjuLV2alEGAPbn1qbmSfKnaQRHcTsaTM3NZudZTBUAAACALr4yjeAwn9fbjqJIAL3cXjs7G9bGWSjFAZi+4yT/7R1iz9764QXzMkwbcGC1vxM38MFirWPqQG8H2fw9rPrGAIDlujWNwKYmjJ/NTgAAABi5odh/GkUC2LerbC7NOYu1M76gOAATV1UXrbW3SX7tnWVPruJWcpij094ByHWGWzaB5TF1YDRet9bWbkcFgP5+sKn5PCYSwL5dZbPReRGbnQAAADBJX1lze5LP621HsVcJD/Uxf147u+yahlFTHIB5WCd5lWW0MI/dhg3z0lpbZRmvX2Nn2gCwjqkDY3CSzbM9ADAiNjVhr67z+Ua0m81OaxYAAAAwM8P7/T+mgCZJa+15Pq+5ucAD/ur2NIGLqjrrmobJURyAGaiqT6214yT/7p1lxz4MI+OBeVn3DoBpA8AfUwfeJXndO8vCvWytHVngAYBx+86m5lE2G5o2NeFuviwJXLgRDQAAAJZrmDJ4keECjyRprR3l85rbYVziwXJ8THKZPxcFXLDBoygOwExU1fvW2ockL3tn2ZHrJMe9QwDbNZSeTBvoz7QB4MY6igNjsM7m0CEAMCG3NjWT/DGV4MsygffALNnNbWh/fCgJAAAAAD8yXLh1dvufDZd4HObz+tthrL0xXTeXa1xkKAq4aI5dURyAeTnO5kHooHOOXTixiQSzdJTkvHcITBsANqrqsrX2Jg6td9daO/T8CwDTNhS0z/LXTc2jfL4d7aZQMMf1PJbrKpsNzrPh10sbnQAAAMA23brE4/3tfz6svR0OHzf/WaGAMTnPsGaWYf3MvjD71Kpqt3/A51uV6OPT8EOShRjalE9659g2G0vL4mfHePjeAwAAgN1rrR3m82bmzbqIQgFjd57kUz7fhvbJWhLwpVs/4xgJr9UAACzRUCi4ve72JMmLnpmYtY/ZrJud5db62XDZDHS18+IAAAAAAADwMF9sah7e+nBTGrt2s8F5cftXB04BAACAubh1uan1N+7jOl+smQ2/mh7A6CkOAAAAAADABN26xfnm4/YURzem8T3nw6+Xw0eyuQEtcfsZAAAAQJI/FQuSzbTQ5HPR4DDKBXN0UwpIPpcCLoePT1V18fXfBtOgOAAAAAAAADPVWrvZyEw+b27e3vB8kuTZnmOxfTfTAZI/lwFubjtL3HgGAAAAsBO31uC+XHd7futfc9FHP1f5xnrZrX/uMg0WQXEAAAAAAABI8peiwZebm8nnG9VuO4zb1R7q/Cv/7Pbm5Y3LfN7ETNxuBgAAADBZtyaJ3vhyze1r63I3/97BrnKN1O0LM258bf3s4va/V1Vnu40F06Q4AAAAAAAA7MRXNkGXxk1lAAAAAOzclNfhHPKH/VEcAAAAAAAAAAAAAACAGft/vQMAAAAAAAAAAAAAAAC7ozgAAAAAAAAAAAAAAAAzpjgAAAAAAAAAAAAAAAAzpjgAAAAAAAAAAAAAAAAzpjgAAAAAAAAAAAAAAAAzpjgAAAAAAAAAAAAAAAAzpjgAAAAAAAAAAAAAAAAzpjgAAAAAAAAAAAAAAAAzpjgAAAAAAAAAAAAAAAAzpjgAAAAAAAAAAAAAAAAzpjgAAAAAAAAAAAAAAAAzpjgAAAAAAAAAAAAAAAAzpjgAAAAAAAAAAAAAAAAzpjgAAAAAAAAAAAAAAAAzpjgAAAAAAAAAAAAAAAAzpjgAAAAAAAAAAAAAAAAzpjgAAAAAAAAAAAAAAAAzpjgAAAAAAAAAAAAAAAAzpjgAAAAAAAAAAAAAAAAzpjgAAAAAAAAAAAAAAAAzpjgAAAAAAAAAAAAAAAAzpjgAAAAAAAAAAAAAAAAzpjgAAAAAAAAAAAAAAAAzpjgAAAAAAAAAAAAAAAAzpjgAAAAAAAAAAAAAAAAzpjgAAAAAAAAAAAAAAAAzpjgAAAAAAAAAAAAAAAAzpjgAAAAAAAAAAAAAAAAzpjgAAAAAAAAAAAAAAAAzpjgAAAAAAAAAAAAAAAAzpjgAAAAAAAAAAAD/v307kAEAAAAY5G99j688AgAAGBMHAAAAAAAAAAAAAABgTBwAAAAAAAAAAAAAAIAxcQAAAAAAAAAAAAAAAMbEAQAAAAAAAAAAAAAAGBMHAAAAAAAAAAAAAABgTBwAAAAAAAAAAAAAAIAxcQAAAAAAAAAAAAAAAMbEAQAAAAAAAAAAAAAAGBMHAAAAAAAAAAAAAABgTBwAAAAAAAAAAAAAAIAxcQAAAAAAAAAAAAAAAMbEAQAAAAAAAAAAAAAAGBMHAAAAAAAAAAAAAABgTBwAAAAAAAAAAAAAAIAxcQAAAAAAAAAAAAAAAMbEAQAAAAAAAAAAAAAAGBMHAAAAAAAAAAAAAABgTBwAAAAAAAAAAAAAAIAxcQAAAAAAAAAAAAAAAMbEAQAAAAAAAAAAAAAAGBMHAAAAAAAAAAAAAABgTBwAAAAAAAAAAAAAAIAxcQAAAAAAAAAAAAAAAMbEAQAAAAAAAAAAAAAAGBMHAAAAAAAAAAAAAABgTBwAAAAAAAAAAAAAAIAxcQAAAAAAAAAAAAAAAMbEAQAAAAAAAAAAAAAAGBMHAAAAAAAAAAAAAABgTBwAAAAAAAAAAAAAAIAxcQAAAAAAAAAAAAAAAMbEAQAAAAAAAAAAAAAAGBMHAAAAAAAAAAAAAABgTBwAAAAAAAAAAAAAAIAxcQAAAAAAAAAAAAAAAMbEAQAAAAAAAAAAAAAAGBMHAAAAAAAAAAAAAABgTBwAAAAAAAAAAAAAAIAxcQAAAAAAAAAAAAAAAMbEAQAAAAAAAAAAAAAAGBMHAAAAAAAAAAAAAABgTBwAAAAAAAAAAAAAAIAxcQAAAAAAAAAAAAAAAMbEAQAAAAAAAAAAAAAAGBMHAAAAAAAAAAAAAABgTBwAAAAAAAAAAAAAAIAxcQAAAAAAAAAAAAAAAMbEAQAAAAAAAAAAAAAAGBMHAAAAAAAAAAAAAABgTBwAAAAAAAAAAAAAAIAxcQAAAAAAAAAAAAAAAMbEAQAAAAAAAAAAAAAAGBMHAAAAAAAAAAAAAABgTBwAAAAAAAAAAAAAAIAxcQAAAAAAAAAAAAAAAMbEAQAAAAAAAAAAAAAAGBMHAAAAAAAAAAAAAABgTBwAAAAAAAAAAAAAAIAxcQAAAAAAAAAAAAAAAMbEAQAAAAAAAAAAAAAAGBMHAAAAAAAAAAAAAABgTBwAAAAAAAAAAAAAAIAxcQAAAAAAAAAAAAAAAMbEAQAAAAAAAAAAAAAAGBMHAAAAAAAAAAAAAABgTBwAAAAAAAAAAAAAAIAxcQAAAAAAAAAAAAAAAMbEAQAAAAAAAAAAAAAAGBMHAAAAAAAAAAAAAABgTBwAAAAAAAAAAAAAAIAxcQAAAAAAAAAAAAAAAMbEAQAAAAAAAAAAAAAAGBMHAAAAAAAAAAAAAABgTBwAAAAAAAAAAAAAAIAxcQAAAAAAAAAAAAAAAMbEAQAAAAAAAAAAAAAAGBMHAAAAAAAAAAAAAABgTBwAAAAAAAAAAAAAAIAxcQAAAAAAAAAAAAAAAMbEAQAAAAAAAAAAAAAAGBMHAAAAAAAAAAAAAABgTBwAAAAAAAAAAAAAAICxAAI9Zi8NX0oQAAAAAElFTkSuQmCC;" parent="8" vertex="1">
                    <mxGeometry x="20.879999999999995" y="40.5" width="143.24" height="22" as="geometry"/>
                </mxCell>
                <mxCell id="20" style="edgeStyle=none;html=1;entryX=1;entryY=0.5;entryDx=0;entryDy=0;" edge="1" parent="1" source="6" target="2">
                    <mxGeometry relative="1" as="geometry"/>
                </mxCell>
                <mxCell id="21" value="HTTP/1.1 200" style="edgeLabel;html=1;align=center;verticalAlign=middle;resizable=0;points=[];fontSize=14;" vertex="1" connectable="0" parent="20">
                    <mxGeometry x="0.0105" y="-2" relative="1" as="geometry">
                        <mxPoint x="6" y="-9" as="offset"/>
                    </mxGeometry>
                </mxCell>
            </root>
        </mxGraphModel>
    </diagram>
</mxfile>